<?xml version="1.0" encoding="UTF-8" standalone="no"?>
<!DOCTYPE svg PUBLIC "-//W3C//DTD SVG 1.1//EN"
 "http://www.w3.org/Graphics/SVG/1.1/DTD/svg11.dtd">
<!-- Generated by graphviz version 2.43.0 (0)
 -->
<!-- Title: BAL_SetStateRequest Pages: 1 -->
<svg width="302pt" height="101pt"
 viewBox="0.00 0.00 302.00 101.00" xmlns="http://www.w3.org/2000/svg" xmlns:xlink="http://www.w3.org/1999/xlink">
<g id="graph0" class="graph" transform="scale(1 1) rotate(0) translate(4 97)">
<title>BAL_SetStateRequest</title>
<!-- Node1 -->
<g id="Node000001" class="node">
<title>Node1</title>
<g id="a_Node000001"><a xlink:title="sets the current state request of the state variable bal_state.">
<polygon fill="#999999" stroke="#666666" points="122,-56 0,-56 0,-37 122,-37 122,-56"/>
<text text-anchor="middle" x="61" y="-44" font-family="Helvetica,sans-Serif" font-size="10.00">BAL_SetStateRequest</text>
</a>
</g>
</g>
<!-- Node2 -->
<g id="Node000002" class="node">
<title>Node2</title>
<g id="a_Node000002"><a xlink:href="bal_8c.html#ace76b9a00c0a0ec922e15d0d677b9315" target="_top" xlink:title="checks the state requests that are made.">
<polygon fill="white" stroke="#666666" points="294,-93 158,-93 158,-74 294,-74 294,-93"/>
<text text-anchor="middle" x="226" y="-81" font-family="Helvetica,sans-Serif" font-size="10.00">BAL_CheckStateRequest</text>
</a>
</g>
</g>
<!-- Node1&#45;&gt;Node2 -->
<g id="edge1_Node000001_Node000002" class="edge">
<title>Node1&#45;&gt;Node2</title>
<g id="a_edge1_Node000001_Node000002"><a xlink:title=" ">
<path fill="none" stroke="#63b8ff" d="M103.98,-56.03C125,-60.8 150.65,-66.62 172.92,-71.68"/>
<polygon fill="#63b8ff" stroke="#63b8ff" points="172.36,-75.14 182.88,-73.94 173.91,-68.31 172.36,-75.14"/>
</a>
</g>
</g>
<!-- Node3 -->
<g id="Node000003" class="node">
<title>Node3</title>
<g id="a_Node000003"><a xlink:href="os__freertos_8c.html#ab8517d65da4e4805a64eda3fbec933de" target="_top" xlink:title="Enter Critical interface function for use in FreeRTOS&#45;Tasks and FreeRTOS&#45;ISR.">
<polygon fill="white" stroke="#666666" points="284.5,-56 167.5,-56 167.5,-37 284.5,-37 284.5,-56"/>
<text text-anchor="middle" x="226" y="-44" font-family="Helvetica,sans-Serif" font-size="10.00">OS_EnterTaskCritical</text>
</a>
</g>
</g>
<!-- Node1&#45;&gt;Node3 -->
<g id="edge2_Node000001_Node000003" class="edge">
<title>Node1&#45;&gt;Node3</title>
<g id="a_edge2_Node000001_Node000003"><a xlink:title=" ">
<path fill="none" stroke="#63b8ff" d="M122.23,-46.5C133.67,-46.5 145.7,-46.5 157.34,-46.5"/>
<polygon fill="#63b8ff" stroke="#63b8ff" points="157.45,-50 167.45,-46.5 157.45,-43 157.45,-50"/>
</a>
</g>
</g>
<!-- Node4 -->
<g id="Node000004" class="node">
<title>Node4</title>
<g id="a_Node000004"><a xlink:href="os__freertos_8c.html#a83489428a970d8f77f122f41f4b6bc0a" target="_top" xlink:title="Exit Critical interface function for use in FreeRTOS&#45;Tasks and FreeRTOS&#45;ISR.">
<polygon fill="white" stroke="#666666" points="281,-19 171,-19 171,0 281,0 281,-19"/>
<text text-anchor="middle" x="226" y="-7" font-family="Helvetica,sans-Serif" font-size="10.00">OS_ExitTaskCritical</text>
</a>
</g>
</g>
<!-- Node1&#45;&gt;Node4 -->
<g id="edge3_Node000001_Node000004" class="edge">
<title>Node1&#45;&gt;Node4</title>
<g id="a_edge3_Node000001_Node000004"><a xlink:title=" ">
<path fill="none" stroke="#63b8ff" d="M103.98,-36.97C125,-32.2 150.65,-26.38 172.92,-21.32"/>
<polygon fill="#63b8ff" stroke="#63b8ff" points="173.91,-24.69 182.88,-19.06 172.36,-17.86 173.91,-24.69"/>
</a>
</g>
</g>
</g>
</svg>
