<?xml version="1.0" encoding="UTF-8" standalone="no"?>
<!DOCTYPE svg PUBLIC "-//W3C//DTD SVG 1.1//EN"
 "http://www.w3.org/Graphics/SVG/1.1/DTD/svg11.dtd">
<!-- Generated by graphviz version 2.43.0 (0)
 -->
<!-- Title: CANRX_CurrentSensor Pages: 1 -->
<svg width="727pt" height="335pt"
 viewBox="0.00 0.00 727.00 334.50" xmlns="http://www.w3.org/2000/svg" xmlns:xlink="http://www.w3.org/1999/xlink">
<g id="graph0" class="graph" transform="scale(1 1) rotate(0) translate(4 330.5)">
<title>CANRX_CurrentSensor</title>
<!-- Node1 -->
<g id="Node000001" class="node">
<title>Node1</title>
<g id="a_Node000001"><a xlink:title="CAN Rx callback function for current sensor measurements.">
<polygon fill="#999999" stroke="#666666" points="125,-185 0,-185 0,-166 125,-166 125,-185"/>
<text text-anchor="middle" x="62.5" y="-173" font-family="Helvetica,sans-Serif" font-size="10.00">CANRX_CurrentSensor</text>
</a>
</g>
</g>
<!-- Node2 -->
<g id="Node000002" class="node">
<title>Node2</title>
<g id="a_Node000002"><a xlink:href="can__helper_8c.html#a844d064ef821d64e6ae5cd80e597d452" target="_top" xlink:title="Copy CAN data from 8 bytes to a 64&#45;bit variable.">
<polygon fill="white" stroke="#666666" points="352,-326.5 188,-326.5 188,-296.5 352,-296.5 352,-326.5"/>
<text text-anchor="start" x="196" y="-314.5" font-family="Helvetica,sans-Serif" font-size="10.00">CAN_RxGetMessageDataFrom</text>
<text text-anchor="middle" x="270" y="-303.5" font-family="Helvetica,sans-Serif" font-size="10.00">CanData</text>
</a>
</g>
</g>
<!-- Node1&#45;&gt;Node2 -->
<g id="edge1_Node000001_Node000002" class="edge">
<title>Node1&#45;&gt;Node2</title>
<g id="a_edge1_Node000001_Node000002"><a xlink:title=" ">
<path fill="none" stroke="#63b8ff" d="M68.9,-185.12C81.76,-207.07 116.46,-261.01 161,-287.5 166.42,-290.72 172.22,-293.51 178.22,-295.93"/>
<polygon fill="#63b8ff" stroke="#63b8ff" points="177.19,-299.28 187.78,-299.43 179.59,-292.7 177.19,-299.28"/>
</a>
</g>
</g>
<!-- Node3 -->
<g id="Node000003" class="node">
<title>Node3</title>
<g id="a_Node000003"><a xlink:href="can__helper_8c.html#ad6206f20af5736a526257873d3c04bd6" target="_top" xlink:title="Gets CAN signal data from a 64&#45;bit variable. This function is used to get signal data from a 64&#45;bit C...">
<polygon fill="white" stroke="#666666" points="379,-278 161,-278 161,-259 379,-259 379,-278"/>
<text text-anchor="middle" x="270" y="-266" font-family="Helvetica,sans-Serif" font-size="10.00">CAN_RxGetSignalDataFromMessageData</text>
</a>
</g>
</g>
<!-- Node1&#45;&gt;Node3 -->
<g id="edge2_Node000001_Node000003" class="edge">
<title>Node1&#45;&gt;Node3</title>
<g id="a_edge2_Node000001_Node000003"><a xlink:title=" ">
<path fill="none" stroke="#63b8ff" d="M72.69,-185.17C88.86,-201.54 124.19,-234.48 161,-250.5 165.78,-252.58 170.77,-254.42 175.88,-256.05"/>
<polygon fill="#63b8ff" stroke="#63b8ff" points="175.24,-259.51 185.82,-258.93 177.19,-252.78 175.24,-259.51"/>
</a>
</g>
</g>
<!-- Node5 -->
<g id="Node000005" class="node">
<title>Node5</title>
<g id="a_Node000005"><a xlink:href="can__cbs__rx__current-sensor_8c.html#a015c24f07fe4ea7b1d78bad30f2cf7a2" target="_top" xlink:title="Sets the error states in the CAN data shim.">
<polygon fill="white" stroke="#666666" points="347,-241 193,-241 193,-222 347,-222 347,-241"/>
<text text-anchor="middle" x="270" y="-229" font-family="Helvetica,sans-Serif" font-size="10.00">CANRX_HandleChannelError</text>
</a>
</g>
</g>
<!-- Node1&#45;&gt;Node5 -->
<g id="edge4_Node000001_Node000005" class="edge">
<title>Node1&#45;&gt;Node5</title>
<g id="a_edge4_Node000001_Node000005"><a xlink:title=" ">
<path fill="none" stroke="#63b8ff" d="M84.38,-185.09C103.83,-193.68 133.85,-206.03 161,-213.5 169.98,-215.97 179.47,-218.15 188.96,-220.07"/>
<polygon fill="#63b8ff" stroke="#63b8ff" points="188.34,-223.51 198.82,-221.97 189.67,-216.64 188.34,-223.51"/>
</a>
</g>
</g>
<!-- Node6 -->
<g id="Node000006" class="node">
<title>Node6</title>
<g id="a_Node000006"><a xlink:href="can__cbs__rx__current-sensor_8c.html#aed5e2d4232e719de94e61d3f7d1b2a40" target="_top" xlink:title="Sets all error states in the CAN data shim to invalid.">
<polygon fill="white" stroke="#666666" points="361,-204 179,-204 179,-185 361,-185 361,-204"/>
<text text-anchor="middle" x="270" y="-192" font-family="Helvetica,sans-Serif" font-size="10.00">CANRX_HandleMeasurementError</text>
</a>
</g>
</g>
<!-- Node1&#45;&gt;Node6 -->
<g id="edge5_Node000001_Node000006" class="edge">
<title>Node1&#45;&gt;Node6</title>
<g id="a_edge5_Node000001_Node000006"><a xlink:title=" ">
<path fill="none" stroke="#63b8ff" d="M125.16,-181.2C138.89,-182.47 153.8,-183.85 168.65,-185.22"/>
<polygon fill="#63b8ff" stroke="#63b8ff" points="168.62,-188.73 178.9,-186.17 169.26,-181.76 168.62,-188.73"/>
</a>
</g>
</g>
<!-- Node7 -->
<g id="Node000007" class="node">
<title>Node7</title>
<g id="a_Node000007"><a xlink:href="can__cbs__rx__current-sensor_8c.html#a8a12e408a319c062e14dc8d0d19062a1" target="_top" xlink:title="Sets current value in the CAN data shim.">
<polygon fill="white" stroke="#666666" points="343.5,-167 196.5,-167 196.5,-148 343.5,-148 343.5,-167"/>
<text text-anchor="middle" x="270" y="-155" font-family="Helvetica,sans-Serif" font-size="10.00">CANRX_HandleSensorData</text>
</a>
</g>
</g>
<!-- Node1&#45;&gt;Node7 -->
<g id="edge6_Node000001_Node000007" class="edge">
<title>Node1&#45;&gt;Node7</title>
<g id="a_edge6_Node000001_Node000007"><a xlink:title=" ">
<path fill="none" stroke="#63b8ff" d="M125.16,-170.1C144.27,-168.43 165.66,-166.55 185.98,-164.77"/>
<polygon fill="#63b8ff" stroke="#63b8ff" points="186.51,-168.24 196.17,-163.88 185.9,-161.27 186.51,-168.24"/>
</a>
</g>
</g>
<!-- Node17 -->
<g id="Node000017" class="node">
<title>Node17</title>
<g id="a_Node000017"><a xlink:href="can__cbs__rx__current-sensor_8c.html#a83852ac068ce7e021104d547d3d40f06" target="_top" xlink:title="Sets all error states in the CAN data shim to invalid.">
<polygon fill="white" stroke="#666666" points="345.5,-130 194.5,-130 194.5,-111 345.5,-111 345.5,-130"/>
<text text-anchor="middle" x="270" y="-118" font-family="Helvetica,sans-Serif" font-size="10.00">CANRX_HandleSystemError</text>
</a>
</g>
</g>
<!-- Node1&#45;&gt;Node17 -->
<g id="edge22_Node000001_Node000017" class="edge">
<title>Node1&#45;&gt;Node17</title>
<g id="a_edge22_Node000001_Node000017"><a xlink:title=" ">
<path fill="none" stroke="#63b8ff" d="M85.98,-165.89C105.5,-157.86 134.7,-146.61 161,-139.5 171.48,-136.67 182.66,-134.15 193.69,-131.96"/>
<polygon fill="#63b8ff" stroke="#63b8ff" points="194.6,-135.35 203.76,-130.03 193.28,-128.47 194.6,-135.35"/>
</a>
</g>
</g>
<!-- Node18 -->
<g id="Node000018" class="node">
<title>Node18</title>
<g id="a_Node000018"><a xlink:href="can__cbs__rx__current-sensor_8c.html#ac05536fdfeb7e0bb31dffe5a8402ed2b" target="_top" xlink:title="Resets all error states in the CAN data shim to valid.">
<polygon fill="white" stroke="#666666" points="323.5,-93 216.5,-93 216.5,-74 323.5,-74 323.5,-93"/>
<text text-anchor="middle" x="270" y="-81" font-family="Helvetica,sans-Serif" font-size="10.00">CANRX_ResetError</text>
</a>
</g>
</g>
<!-- Node1&#45;&gt;Node18 -->
<g id="edge23_Node000001_Node000018" class="edge">
<title>Node1&#45;&gt;Node18</title>
<g id="a_edge23_Node000001_Node000018"><a xlink:title=" ">
<path fill="none" stroke="#63b8ff" d="M73.02,-165.87C89.41,-149.92 124.71,-118.2 161,-102.5 175.19,-96.36 191.24,-92.2 206.55,-89.39"/>
<polygon fill="#63b8ff" stroke="#63b8ff" points="207.2,-92.83 216.48,-87.73 206.04,-85.93 207.2,-92.83"/>
</a>
</g>
</g>
<!-- Node19 -->
<g id="Node000019" class="node">
<title>Node19</title>
<g id="a_Node000019"><a xlink:href="can__cbs__rx__current-sensor_8c.html#a87a0fad4f95418622b2e6bbb1383b00d" target="_top" xlink:title="Sets the string number based on the associated CAN message ID.">
<polygon fill="white" stroke="#666666" points="355,-55.5 185,-55.5 185,-25.5 355,-25.5 355,-55.5"/>
<text text-anchor="start" x="193" y="-43.5" font-family="Helvetica,sans-Serif" font-size="10.00">CANRX_SetStringNumberBased</text>
<text text-anchor="middle" x="270" y="-32.5" font-family="Helvetica,sans-Serif" font-size="10.00">OnCanMessageId</text>
</a>
</g>
</g>
<!-- Node1&#45;&gt;Node19 -->
<g id="edge24_Node000001_Node000019" class="edge">
<title>Node1&#45;&gt;Node19</title>
<g id="a_edge24_Node000001_Node000019"><a xlink:title=" ">
<path fill="none" stroke="#63b8ff" d="M69.16,-165.76C82.3,-144.05 117.13,-91.59 161,-65.5 165.49,-62.83 170.23,-60.45 175.14,-58.32"/>
<polygon fill="#63b8ff" stroke="#63b8ff" points="176.71,-61.46 184.73,-54.53 174.14,-54.95 176.71,-61.46"/>
</a>
</g>
</g>
<!-- Node4 -->
<g id="Node000004" class="node">
<title>Node4</title>
<g id="a_Node000004"><a xlink:href="can__helper_8c.html#a0d38948df89b374965b8541588148819" target="_top" xlink:title="Convert bit start in big endian case. In the big endian case for CAN, the bit start is set to the MSB...">
<polygon fill="white" stroke="#666666" points="582,-315 415,-315 415,-296 582,-296 582,-315"/>
<text text-anchor="middle" x="498.5" y="-303" font-family="Helvetica,sans-Serif" font-size="10.00">CAN_ConvertBitStartBigEndian</text>
</a>
</g>
</g>
<!-- Node3&#45;&gt;Node4 -->
<g id="edge3_Node000003_Node000004" class="edge">
<title>Node3&#45;&gt;Node4</title>
<g id="a_edge3_Node000003_Node000004"><a xlink:title=" ">
<path fill="none" stroke="#63b8ff" d="M329.33,-278.03C359.73,-282.99 397.09,-289.1 428.87,-294.29"/>
<polygon fill="#63b8ff" stroke="#63b8ff" points="428.54,-297.78 438.98,-295.94 429.67,-290.87 428.54,-297.78"/>
</a>
</g>
</g>
<!-- Node8 -->
<g id="Node000008" class="node">
<title>Node8</title>
<g id="a_Node000008"><a xlink:href="can__cbs__rx__current-sensor_8c.html#a1b7d463e6a8a6b8df6bcb6c03af73de0" target="_top" xlink:title="Sets Coulomb counting value in the CAN data shim.">
<polygon fill="white" stroke="#666666" points="578,-278 419,-278 419,-259 578,-259 578,-278"/>
<text text-anchor="middle" x="498.5" y="-266" font-family="Helvetica,sans-Serif" font-size="10.00">CANRX_SetCoulombCounting</text>
</a>
</g>
</g>
<!-- Node7&#45;&gt;Node8 -->
<g id="edge7_Node000007_Node000008" class="edge">
<title>Node7&#45;&gt;Node8</title>
<g id="a_edge7_Node000007_Node000008"><a xlink:title=" ">
<path fill="none" stroke="#63b8ff" d="M343.74,-160.65C356.38,-163.79 368.74,-168.76 379,-176.5 408.2,-198.52 386.25,-227.89 415,-250.5 416.6,-251.76 418.27,-252.93 419.99,-254.03"/>
<polygon fill="#63b8ff" stroke="#63b8ff" points="418.57,-257.23 429.03,-258.88 421.88,-251.07 418.57,-257.23"/>
</a>
</g>
</g>
<!-- Node10 -->
<g id="Node000010" class="node">
<title>Node10</title>
<g id="a_Node000010"><a xlink:href="can__cbs__rx__current-sensor_8c.html#a0b670491ba5987ef02123c19aa4261ad" target="_top" xlink:title="Sets current value in the CAN data shim.">
<polygon fill="white" stroke="#666666" points="552.5,-241 444.5,-241 444.5,-222 552.5,-222 552.5,-241"/>
<text text-anchor="middle" x="498.5" y="-229" font-family="Helvetica,sans-Serif" font-size="10.00">CANRX_SetCurrent</text>
</a>
</g>
</g>
<!-- Node7&#45;&gt;Node10 -->
<g id="edge9_Node000007_Node000010" class="edge">
<title>Node7&#45;&gt;Node10</title>
<g id="a_edge9_Node000007_Node000010"><a xlink:title=" ">
<path fill="none" stroke="#63b8ff" d="M343.67,-163.85C355.91,-166.7 368.15,-170.76 379,-176.5 399.28,-187.23 394.94,-202.36 415,-213.5 421.03,-216.85 427.62,-219.57 434.38,-221.79"/>
<polygon fill="#63b8ff" stroke="#63b8ff" points="433.76,-225.26 444.34,-224.69 435.72,-218.54 433.76,-225.26"/>
</a>
</g>
</g>
<!-- Node11 -->
<g id="Node000011" class="node">
<title>Node11</title>
<g id="a_Node000011"><a xlink:href="can__cbs__rx__current-sensor_8c.html#aaa50c064efa3bf94bc02700315f0e971" target="_top" xlink:title="Sets energy counting value in the CAN data shim.">
<polygon fill="white" stroke="#666666" points="573,-204 424,-204 424,-185 573,-185 573,-204"/>
<text text-anchor="middle" x="498.5" y="-192" font-family="Helvetica,sans-Serif" font-size="10.00">CANRX_SetEnergyCounting</text>
</a>
</g>
</g>
<!-- Node7&#45;&gt;Node11 -->
<g id="edge11_Node000007_Node000011" class="edge">
<title>Node7&#45;&gt;Node11</title>
<g id="a_edge11_Node000007_Node000011"><a xlink:title=" ">
<path fill="none" stroke="#63b8ff" d="M329.33,-167.03C359.73,-171.99 397.09,-178.1 428.87,-183.29"/>
<polygon fill="#63b8ff" stroke="#63b8ff" points="428.54,-186.78 438.98,-184.94 429.67,-179.87 428.54,-186.78"/>
</a>
</g>
</g>
<!-- Node12 -->
<g id="Node000012" class="node">
<title>Node12</title>
<g id="a_Node000012"><a xlink:href="can__cbs__rx__current-sensor_8c.html#ae86f4b755c6e4cb329e9a314ab585b39" target="_top" xlink:title="Sets power measurement value in the CAN data shim.">
<polygon fill="white" stroke="#666666" points="549.5,-167 447.5,-167 447.5,-148 549.5,-148 549.5,-167"/>
<text text-anchor="middle" x="498.5" y="-155" font-family="Helvetica,sans-Serif" font-size="10.00">CANRX_SetPower</text>
</a>
</g>
</g>
<!-- Node7&#45;&gt;Node12 -->
<g id="edge13_Node000007_Node000012" class="edge">
<title>Node7&#45;&gt;Node12</title>
<g id="a_edge13_Node000007_Node000012"><a xlink:title=" ">
<path fill="none" stroke="#63b8ff" d="M343.6,-157.5C373.68,-157.5 408.17,-157.5 436.86,-157.5"/>
<polygon fill="#63b8ff" stroke="#63b8ff" points="437.15,-161 447.15,-157.5 437.15,-154 437.15,-161"/>
</a>
</g>
</g>
<!-- Node13 -->
<g id="Node000013" class="node">
<title>Node13</title>
<g id="a_Node000013"><a xlink:href="can__cbs__rx__current-sensor_8c.html#a48215e60e201d28cc5a84e001f03e139" target="_top" xlink:title="Sets temperature measurement value in the CAN data shim.">
<polygon fill="white" stroke="#666666" points="565.5,-130 431.5,-130 431.5,-111 565.5,-111 565.5,-130"/>
<text text-anchor="middle" x="498.5" y="-118" font-family="Helvetica,sans-Serif" font-size="10.00">CANRX_SetTemperature</text>
</a>
</g>
</g>
<!-- Node7&#45;&gt;Node13 -->
<g id="edge15_Node000007_Node000013" class="edge">
<title>Node7&#45;&gt;Node13</title>
<g id="a_edge15_Node000007_Node000013"><a xlink:title=" ">
<path fill="none" stroke="#63b8ff" d="M329.33,-147.97C359.73,-143.01 397.09,-136.9 428.87,-131.71"/>
<polygon fill="#63b8ff" stroke="#63b8ff" points="429.67,-135.13 438.98,-130.06 428.54,-128.22 429.67,-135.13"/>
</a>
</g>
</g>
<!-- Node14 -->
<g id="Node000014" class="node">
<title>Node14</title>
<g id="a_Node000014"><a xlink:href="can__cbs__rx__current-sensor_8c.html#a783b162ad377c67d0656e90c793bdaa3" target="_top" xlink:title="Sets V1 voltage measurement value in the CAN data shim.">
<polygon fill="white" stroke="#666666" points="559.5,-93 437.5,-93 437.5,-74 559.5,-74 559.5,-93"/>
<text text-anchor="middle" x="498.5" y="-81" font-family="Helvetica,sans-Serif" font-size="10.00">CANRX_SetVoltageU1</text>
</a>
</g>
</g>
<!-- Node7&#45;&gt;Node14 -->
<g id="edge16_Node000007_Node000014" class="edge">
<title>Node7&#45;&gt;Node14</title>
<g id="a_edge16_Node000007_Node000014"><a xlink:title=" ">
<path fill="none" stroke="#63b8ff" d="M343.65,-151.9C355.89,-149.15 368.14,-145.18 379,-139.5 399.33,-128.86 395.01,-113.76 415,-102.5 419,-100.25 423.25,-98.26 427.63,-96.52"/>
<polygon fill="#63b8ff" stroke="#63b8ff" points="429.13,-99.7 437.38,-93.05 426.79,-93.1 429.13,-99.7"/>
</a>
</g>
</g>
<!-- Node15 -->
<g id="Node000015" class="node">
<title>Node15</title>
<g id="a_Node000015"><a xlink:href="can__cbs__rx__current-sensor_8c.html#afa60c7734915ad6ff707acbffb2cc2a6" target="_top" xlink:title="Sets V2 voltage measurement value in the CAN data shim.">
<polygon fill="white" stroke="#666666" points="559.5,-56 437.5,-56 437.5,-37 559.5,-37 559.5,-56"/>
<text text-anchor="middle" x="498.5" y="-44" font-family="Helvetica,sans-Serif" font-size="10.00">CANRX_SetVoltageU2</text>
</a>
</g>
</g>
<!-- Node7&#45;&gt;Node15 -->
<g id="edge18_Node000007_Node000015" class="edge">
<title>Node7&#45;&gt;Node15</title>
<g id="a_edge18_Node000007_Node000015"><a xlink:title=" ">
<path fill="none" stroke="#63b8ff" d="M343.71,-155.08C356.35,-152.06 368.72,-147.18 379,-139.5 408.3,-117.61 386.38,-88.27 415,-65.5 418.89,-62.4 423.2,-59.79 427.74,-57.59"/>
<polygon fill="#63b8ff" stroke="#63b8ff" points="429.42,-60.69 437.33,-53.64 426.75,-54.21 429.42,-60.69"/>
</a>
</g>
</g>
<!-- Node16 -->
<g id="Node000016" class="node">
<title>Node16</title>
<g id="a_Node000016"><a xlink:href="can__cbs__rx__current-sensor_8c.html#a30cb0176f666773a792172b1ed25c2a3" target="_top" xlink:title="Sets V3 voltage measurement value in the CAN data shim.">
<polygon fill="white" stroke="#666666" points="559.5,-19 437.5,-19 437.5,0 559.5,0 559.5,-19"/>
<text text-anchor="middle" x="498.5" y="-7" font-family="Helvetica,sans-Serif" font-size="10.00">CANRX_SetVoltageU3</text>
</a>
</g>
</g>
<!-- Node7&#45;&gt;Node16 -->
<g id="edge20_Node000007_Node000016" class="edge">
<title>Node7&#45;&gt;Node16</title>
<g id="a_edge20_Node000007_Node000016"><a xlink:title=" ">
<path fill="none" stroke="#63b8ff" d="M343.52,-156.51C356.47,-153.41 369,-148.14 379,-139.5 418.57,-105.32 376.29,-62.65 415,-27.5 418.84,-24.02 423.18,-21.15 427.83,-18.8"/>
<polygon fill="#63b8ff" stroke="#63b8ff" points="429.24,-22.01 437.08,-14.89 426.51,-15.56 429.24,-22.01"/>
</a>
</g>
</g>
<!-- Node9 -->
<g id="Node000009" class="node">
<title>Node9</title>
<g id="a_Node000009"><a xlink:href="os__freertos_8c.html#ad3f7d896375245539ecf9303a8f4bb84" target="_top" xlink:title="Returns OS based system tick value.">
<polygon fill="white" stroke="#666666" points="719,-167 618,-167 618,-148 719,-148 719,-167"/>
<text text-anchor="middle" x="668.5" y="-155" font-family="Helvetica,sans-Serif" font-size="10.00">OS_GetTickCount</text>
</a>
</g>
</g>
<!-- Node8&#45;&gt;Node9 -->
<g id="edge8_Node000008_Node000009" class="edge">
<title>Node8&#45;&gt;Node9</title>
<g id="a_edge8_Node000008_Node000009"><a xlink:title=" ">
<path fill="none" stroke="#63b8ff" d="M562.73,-258.96C569.46,-256.71 576.02,-253.93 582,-250.5 614.31,-231.95 641.39,-197.07 655.95,-175.7"/>
<polygon fill="#63b8ff" stroke="#63b8ff" points="658.97,-177.47 661.57,-167.2 653.13,-173.61 658.97,-177.47"/>
</a>
</g>
</g>
<!-- Node10&#45;&gt;Node9 -->
<g id="edge10_Node000010_Node000009" class="edge">
<title>Node10&#45;&gt;Node9</title>
<g id="a_edge10_Node000010_Node000009"><a xlink:title=" ">
<path fill="none" stroke="#63b8ff" d="M552.76,-222.88C562.68,-220.44 572.81,-217.36 582,-213.5 606.16,-203.36 630.89,-186.29 647.5,-173.65"/>
<polygon fill="#63b8ff" stroke="#63b8ff" points="650.1,-176.07 655.84,-167.16 645.8,-170.54 650.1,-176.07"/>
</a>
</g>
</g>
<!-- Node11&#45;&gt;Node9 -->
<g id="edge12_Node000011_Node000009" class="edge">
<title>Node11&#45;&gt;Node9</title>
<g id="a_edge12_Node000011_Node000009"><a xlink:title=" ">
<path fill="none" stroke="#63b8ff" d="M543.61,-184.91C556.03,-182.2 569.54,-179.24 582,-176.5 592.69,-174.15 604.12,-171.61 615.04,-169.19"/>
<polygon fill="#63b8ff" stroke="#63b8ff" points="615.88,-172.59 624.89,-167 614.37,-165.76 615.88,-172.59"/>
</a>
</g>
</g>
<!-- Node12&#45;&gt;Node9 -->
<g id="edge14_Node000012_Node000009" class="edge">
<title>Node12&#45;&gt;Node9</title>
<g id="a_edge14_Node000012_Node000009"><a xlink:title=" ">
<path fill="none" stroke="#63b8ff" d="M549.91,-157.5C568.18,-157.5 588.98,-157.5 607.97,-157.5"/>
<polygon fill="#63b8ff" stroke="#63b8ff" points="608,-161 618,-157.5 608,-154 608,-161"/>
</a>
</g>
</g>
<!-- Node14&#45;&gt;Node9 -->
<g id="edge17_Node000014_Node000009" class="edge">
<title>Node14&#45;&gt;Node9</title>
<g id="a_edge17_Node000014_Node000009"><a xlink:title=" ">
<path fill="none" stroke="#63b8ff" d="M553.17,-93.02C562.95,-95.55 572.93,-98.67 582,-102.5 605.88,-112.57 630.49,-129.18 647.14,-141.51"/>
<polygon fill="#63b8ff" stroke="#63b8ff" points="645.43,-144.61 655.51,-147.86 649.66,-139.03 645.43,-144.61"/>
</a>
</g>
</g>
<!-- Node15&#45;&gt;Node9 -->
<g id="edge19_Node000015_Node000009" class="edge">
<title>Node15&#45;&gt;Node9</title>
<g id="a_edge19_Node000015_Node000009"><a xlink:title=" ">
<path fill="none" stroke="#63b8ff" d="M559.7,-55.9C567.49,-58.39 575.13,-61.53 582,-65.5 614.07,-84.04 641.22,-118.48 655.87,-139.56"/>
<polygon fill="#63b8ff" stroke="#63b8ff" points="653.03,-141.61 661.52,-147.94 658.83,-137.7 653.03,-141.61"/>
</a>
</g>
</g>
<!-- Node16&#45;&gt;Node9 -->
<g id="edge21_Node000016_Node000009" class="edge">
<title>Node16&#45;&gt;Node9</title>
<g id="a_edge21_Node000016_Node000009"><a xlink:title=" ">
<path fill="none" stroke="#63b8ff" d="M559.92,-16.92C567.76,-19.5 575.35,-22.93 582,-27.5 603.19,-42.05 640.12,-106.81 657.69,-139.09"/>
<polygon fill="#63b8ff" stroke="#63b8ff" points="654.65,-140.83 662.47,-147.97 660.81,-137.51 654.65,-140.83"/>
</a>
</g>
</g>
</g>
</svg>
