<?xml version="1.0" encoding="UTF-8" standalone="no"?>
<!DOCTYPE svg PUBLIC "-//W3C//DTD SVG 1.1//EN"
 "http://www.w3.org/Graphics/SVG/1.1/DTD/svg11.dtd">
<!-- Generated by graphviz version 2.43.0 (0)
 -->
<!-- Title: FAKE_SetSubstate Pages: 1 -->
<svg width="713pt" height="113pt"
 viewBox="0.00 0.00 713.00 112.50" xmlns="http://www.w3.org/2000/svg" xmlns:xlink="http://www.w3.org/1999/xlink">
<g id="graph0" class="graph" transform="scale(1 1) rotate(0) translate(4 108.5)">
<title>FAKE_SetSubstate</title>
<!-- Node1 -->
<g id="Node000001" class="node">
<title>Node1</title>
<g id="a_Node000001"><a xlink:title="Sets the next substate and the timer value of the state variable.">
<polygon fill="#999999" stroke="#666666" points="705,-56 601,-56 601,-37 705,-37 705,-56"/>
<text text-anchor="middle" x="653" y="-44" font-family="Helvetica,sans-Serif" font-size="10.00">FAKE_SetSubstate</text>
</a>
</g>
</g>
<!-- Node2 -->
<g id="Node000002" class="node">
<title>Node2</title>
<g id="a_Node000002"><a xlink:href="debug__default_8c.html#a10a87d31f072da72d5f1d47a8baa4413" target="_top" xlink:title="Processes the initialization state.">
<polygon fill="white" stroke="#666666" points="562.5,-104.5 418.5,-104.5 418.5,-74.5 562.5,-74.5 562.5,-104.5"/>
<text text-anchor="start" x="426.5" y="-92.5" font-family="Helvetica,sans-Serif" font-size="10.00">FAKE_ProcessInitialization</text>
<text text-anchor="middle" x="490.5" y="-81.5" font-family="Helvetica,sans-Serif" font-size="10.00">State</text>
</a>
</g>
</g>
<!-- Node1&#45;&gt;Node2 -->
<g id="edge1_Node000001_Node000002" class="edge">
<title>Node1&#45;&gt;Node2</title>
<g id="a_edge1_Node000001_Node000002"><a xlink:title=" ">
<path fill="none" stroke="#63b8ff" d="M606.53,-58.68C588.17,-63.6 566.81,-69.32 547.51,-74.49"/>
<polygon fill="#63b8ff" stroke="#63b8ff" points="607.63,-62.01 616.38,-56.04 605.81,-55.25 607.63,-62.01"/>
</a>
</g>
</g>
<!-- Node6 -->
<g id="Node000006" class="node">
<title>Node6</title>
<g id="a_Node000006"><a xlink:href="debug__default_8c.html#a57644736c49d43c02a23f57a5813d6ec" target="_top" xlink:title="Processes the running state.">
<polygon fill="white" stroke="#666666" points="565,-56 416,-56 416,-37 565,-37 565,-56"/>
<text text-anchor="middle" x="490.5" y="-44" font-family="Helvetica,sans-Serif" font-size="10.00">FAKE_ProcessRunningState</text>
</a>
</g>
</g>
<!-- Node1&#45;&gt;Node6 -->
<g id="edge5_Node000001_Node000006" class="edge">
<title>Node1&#45;&gt;Node6</title>
<g id="a_edge5_Node000001_Node000006"><a xlink:title=" ">
<path fill="none" stroke="#63b8ff" d="M590.71,-46.5C582.32,-46.5 573.63,-46.5 565.05,-46.5"/>
<polygon fill="#63b8ff" stroke="#63b8ff" points="590.78,-50 600.78,-46.5 590.78,-43 590.78,-50"/>
</a>
</g>
</g>
<!-- Node7 -->
<g id="Node000007" class="node">
<title>Node7</title>
<g id="a_Node000007"><a xlink:href="debug__default_8c.html#a9a894ac1dfc077dd766fa461b593f395" target="_top" xlink:title="Sets the next state, the next substate and the timer value of the state variable.">
<polygon fill="white" stroke="#666666" points="534,-19 447,-19 447,0 534,0 534,-19"/>
<text text-anchor="middle" x="490.5" y="-7" font-family="Helvetica,sans-Serif" font-size="10.00">FAKE_SetState</text>
</a>
</g>
</g>
<!-- Node1&#45;&gt;Node7 -->
<g id="edge7_Node000001_Node000007" class="edge">
<title>Node1&#45;&gt;Node7</title>
<g id="a_edge7_Node000001_Node000007"><a xlink:title=" ">
<path fill="none" stroke="#63b8ff" d="M600.86,-34.71C578.95,-29.66 553.69,-23.84 532.97,-19.06"/>
<polygon fill="#63b8ff" stroke="#63b8ff" points="600.14,-38.14 610.67,-36.97 601.71,-31.31 600.14,-38.14"/>
</a>
</g>
</g>
<!-- Node3 -->
<g id="Node000003" class="node">
<title>Node3</title>
<g id="a_Node000003"><a xlink:href="debug__default_8c.html#aeb6e23ce50d19e616aab642a7bee7bd7" target="_top" xlink:title="Defines the state transitions.">
<polygon fill="white" stroke="#666666" points="380,-56 249,-56 249,-37 380,-37 380,-56"/>
<text text-anchor="middle" x="314.5" y="-44" font-family="Helvetica,sans-Serif" font-size="10.00">FAKE_RunStateMachine</text>
</a>
</g>
</g>
<!-- Node2&#45;&gt;Node3 -->
<g id="edge2_Node000002_Node000003" class="edge">
<title>Node2&#45;&gt;Node3</title>
<g id="a_edge2_Node000002_Node000003"><a xlink:title=" ">
<path fill="none" stroke="#63b8ff" d="M418.92,-72.06C396.75,-66.58 373.11,-60.74 354.03,-56.02"/>
<polygon fill="#63b8ff" stroke="#63b8ff" points="418.1,-75.46 428.64,-74.46 419.77,-68.66 418.1,-75.46"/>
</a>
</g>
</g>
<!-- Node4 -->
<g id="Node000004" class="node">
<title>Node4</title>
<g id="a_Node000004"><a xlink:href="debug__default_8c.html#a3ff9b601ec0d377a3a78d8ce735c7971" target="_top" xlink:title="Trigger function for the driver, called to advance the state machine.">
<polygon fill="white" stroke="#666666" points="213,-56 118,-56 118,-37 213,-37 213,-56"/>
<text text-anchor="middle" x="165.5" y="-44" font-family="Helvetica,sans-Serif" font-size="10.00">FAKE_TriggerAfe</text>
</a>
</g>
</g>
<!-- Node3&#45;&gt;Node4 -->
<g id="edge3_Node000003_Node000004" class="edge">
<title>Node3&#45;&gt;Node4</title>
<g id="a_edge3_Node000003_Node000004"><a xlink:title=" ">
<path fill="none" stroke="#63b8ff" d="M238.56,-46.5C229.99,-46.5 221.46,-46.5 213.41,-46.5"/>
<polygon fill="#63b8ff" stroke="#63b8ff" points="238.6,-50 248.6,-46.5 238.6,-43 238.6,-50"/>
</a>
</g>
</g>
<!-- Node5 -->
<g id="Node000005" class="node">
<title>Node5</title>
<g id="a_Node000005"><a xlink:href="debug__default__afe_8c.html#a2063387da9ccfeaaac53a07619ca723b" target="_top" xlink:title=" ">
<polygon fill="white" stroke="#666666" points="82,-56 0,-56 0,-37 82,-37 82,-56"/>
<text text-anchor="middle" x="41" y="-44" font-family="Helvetica,sans-Serif" font-size="10.00">AFE_TriggerIc</text>
</a>
</g>
</g>
<!-- Node4&#45;&gt;Node5 -->
<g id="edge4_Node000004_Node000005" class="edge">
<title>Node4&#45;&gt;Node5</title>
<g id="a_edge4_Node000004_Node000005"><a xlink:title=" ">
<path fill="none" stroke="#63b8ff" d="M107.77,-46.5C99.12,-46.5 90.34,-46.5 82.13,-46.5"/>
<polygon fill="#63b8ff" stroke="#63b8ff" points="107.84,-50 117.84,-46.5 107.84,-43 107.84,-50"/>
</a>
</g>
</g>
<!-- Node6&#45;&gt;Node3 -->
<g id="edge6_Node000006_Node000003" class="edge">
<title>Node6&#45;&gt;Node3</title>
<g id="a_edge6_Node000006_Node000003"><a xlink:title=" ">
<path fill="none" stroke="#63b8ff" d="M405.88,-46.5C397.26,-46.5 388.6,-46.5 380.23,-46.5"/>
<polygon fill="#63b8ff" stroke="#63b8ff" points="405.96,-50 415.96,-46.5 405.96,-43 405.96,-50"/>
</a>
</g>
</g>
<!-- Node7&#45;&gt;Node3 -->
<g id="edge8_Node000007_Node000003" class="edge">
<title>Node7&#45;&gt;Node3</title>
<g id="a_edge8_Node000007_Node000003"><a xlink:title=" ">
<path fill="none" stroke="#63b8ff" d="M437.1,-20.64C412.63,-25.85 383.8,-31.98 360.36,-36.96"/>
<polygon fill="#63b8ff" stroke="#63b8ff" points="437.88,-24.05 446.93,-18.55 436.43,-17.21 437.88,-24.05"/>
</a>
</g>
</g>
</g>
</svg>
