<?xml version="1.0" encoding="UTF-8" standalone="no"?>
<!DOCTYPE svg PUBLIC "-//W3C//DTD SVG 1.1//EN"
 "http://www.w3.org/Graphics/SVG/1.1/DTD/svg11.dtd">
<!-- Generated by graphviz version 2.43.0 (0)
 -->
<!-- Title: FRAM_ReadData Pages: 1 -->
<!--zoomable 304 -->

<svg id="main" version="1.1" xmlns="http://www.w3.org/2000/svg" xmlns:xlink="http://www.w3.org/1999/xlink" xml:space="preserve" onload="init(evt)">
<style type="text/css"><![CDATA[
.node, .edge {opacity: 0.7;}
.node.selected, .edge.selected {opacity: 1;}
.edge:hover path { stroke: red; }
.edge:hover polygon { stroke: red; fill: red; }
]]></style>

<defs>
  <circle id="rim" cx="0" cy="0" r="7"/>
  <circle id="rim2" cx="0" cy="0" r="3.5"/>
  <g id="zoomPlus">
    <use xlink:href="#rim" fill="#404040"><set attributeName="fill" to="#808080" begin="zoomplus.mouseover" end="zoomplus.mouseout"/></use>
    <path d="M-4,0h8M0,-4v8" fill="none" stroke="white" stroke-width="1.5" pointer-events="none"/>
  </g>
  <g id="zoomMin">
    <use xlink:href="#rim" fill="#404040"><set attributeName="fill" to="#808080" begin="zoomminus.mouseover" end="zoomminus.mouseout"/></use>
    <path d="M-4,0h8" fill="none" stroke="white" stroke-width="1.5" pointer-events="none"/>
  </g>
  <g id="arrowUp" transform="translate(30 24)">
    <use xlink:href="#rim"/>
    <path pointer-events="none" fill="none" stroke="white" stroke-width="1.5" d="M0,-3.0v7 M-2.5,-0.5L0,-3.0L2.5,-0.5"/>
  </g>
  <g id="arrowRight" transform="rotate(90) translate(36 -43)">
    <use xlink:href="#rim"/>
    <path pointer-events="none" fill="none" stroke="white" stroke-width="1.5" d="M0,-3.0v7 M-2.5,-0.5L0,-3.0L2.5,-0.5"/>
  </g>
  <g id="arrowDown" transform="rotate(180) translate(-30 -48)">
    <use xlink:href="#rim"/>
    <path pointer-events="none" fill="none" stroke="white" stroke-width="1.5" d="M0,-3.0v7 M-2.5,-0.5L0,-3.0L2.5,-0.5"/>
  </g>
  <g id="arrowLeft" transform="rotate(270) translate(-36 17)">
    <use xlink:href="#rim"/>
    <path pointer-events="none" fill="none" stroke="white" stroke-width="1.5" d="M0,-3.0v7 M-2.5,-0.5L0,-3.0L2.5,-0.5"/>
  </g>
  <g id="resetDef">
    <use xlink:href="#rim2" fill="#404040"><set attributeName="fill" to="#808080" begin="reset.mouseover" end="reset.mouseout"/></use>
  </g>
</defs>
<script type="application/ecmascript">
var viewWidth = 1123;
var viewHeight = 304;
var sectionId = 'dynsection-4';
</script>
<script type="application/ecmascript" xlink:href="svg.min.js"/>
<svg id="graph" class="graph">
<g id="viewport">
<title>FRAM_ReadData</title>
<!-- Node1 -->
<g id="Node000001" class="node">
<title>Node1</title>
<g id="a_Node000001"><a xlink:title="Reads a variable from the FRAM.">
<polygon fill="#999999" stroke="#666666" points="98,-148 0,-148 0,-129 98,-129 98,-148"/>
<text text-anchor="middle" x="49" y="-136" font-family="Helvetica,sans-Serif" font-size="10.00">FRAM_ReadData</text>
</a>
</g>
</g>
<!-- Node2 -->
<g id="Node000002" class="node">
<title>Node2</title>
<g id="a_Node000002"><a xlink:href="crc_8c.html#a45b6a4ef5b5984e50927215ab001c01d" target="_top" xlink:title="Computes CRC of data flow.">
<polygon fill="white" stroke="#666666" points="269,-278 165,-278 165,-259 269,-259 269,-278"/>
<text text-anchor="middle" x="217" y="-266" font-family="Helvetica,sans-Serif" font-size="10.00">CRC_CalculateCrc</text>
</a>
</g>
</g>
<!-- Node1&#45;&gt;Node2 -->
<g id="edge1_Node000001_Node000002" class="edge">
<title>Node1&#45;&gt;Node2</title>
<g id="a_edge1_Node000001_Node000002"><a xlink:title=" ">
<path fill="none" stroke="#63b8ff" d="M54.28,-148.13C64.56,-170.1 92.91,-224.07 134,-250.5 140.32,-254.57 147.42,-257.72 154.73,-260.18"/>
<polygon fill="#63b8ff" stroke="#63b8ff" points="154.2,-263.67 164.78,-263.1 156.15,-256.94 154.2,-263.67"/>
</a>
</g>
</g>
<!-- Node3 -->
<g id="Node000003" class="node">
<title>Node3</title>
<g id="a_Node000003"><a xlink:href="diag_8c.html#a9ccc8d9e39ec632833371523168c4927" target="_top" xlink:title="DIAG_Handler provides generic error handling, based on diagnosis group.">
<polygon fill="white" stroke="#666666" points="259.5,-241 174.5,-241 174.5,-222 259.5,-222 259.5,-241"/>
<text text-anchor="middle" x="217" y="-229" font-family="Helvetica,sans-Serif" font-size="10.00">DIAG_Handler</text>
</a>
</g>
</g>
<!-- Node1&#45;&gt;Node3 -->
<g id="edge2_Node000001_Node000003" class="edge">
<title>Node1&#45;&gt;Node3</title>
<g id="a_edge2_Node000001_Node000003"><a xlink:title=" ">
<path fill="none" stroke="#63b8ff" d="M57.7,-148.02C71.31,-164.17 101.27,-196.77 134,-213.5 143.34,-218.28 153.92,-221.79 164.29,-224.37"/>
<polygon fill="#63b8ff" stroke="#63b8ff" points="163.6,-227.8 174.13,-226.57 165.13,-220.97 163.6,-227.8"/>
</a>
</g>
</g>
<!-- Node15 -->
<g id="Node000015" class="node">
<title>Node15</title>
<g id="a_Node000015"><a xlink:href="io_8c.html#a9a2db1f5acc298fe408a8af231de55ad" target="_top" xlink:title="Reset pin by writing in pin output register.">
<polygon fill="white" stroke="#666666" points="254.5,-204 179.5,-204 179.5,-185 254.5,-185 254.5,-204"/>
<text text-anchor="middle" x="217" y="-192" font-family="Helvetica,sans-Serif" font-size="10.00">IO_PinReset</text>
</a>
</g>
</g>
<!-- Node1&#45;&gt;Node15 -->
<g id="edge15_Node000001_Node000015" class="edge">
<title>Node1&#45;&gt;Node15</title>
<g id="a_edge15_Node000001_Node000015"><a xlink:title=" ">
<path fill="none" stroke="#63b8ff" d="M68.24,-148.09C84.96,-156.56 110.61,-168.74 134,-176.5 145.23,-180.23 157.59,-183.4 169.23,-186"/>
<polygon fill="#63b8ff" stroke="#63b8ff" points="168.72,-189.47 179.23,-188.13 170.18,-182.62 168.72,-189.47"/>
</a>
</g>
</g>
<!-- Node16 -->
<g id="Node000016" class="node">
<title>Node16</title>
<g id="a_Node000016"><a xlink:href="io_8c.html#a7bfc1c1b5a7779778a23ad040043a169" target="_top" xlink:title="Set pin by writing in pin output register.">
<polygon fill="white" stroke="#666666" points="248.5,-167 185.5,-167 185.5,-148 248.5,-148 248.5,-167"/>
<text text-anchor="middle" x="217" y="-155" font-family="Helvetica,sans-Serif" font-size="10.00">IO_PinSet</text>
</a>
</g>
</g>
<!-- Node1&#45;&gt;Node16 -->
<g id="edge16_Node000001_Node000016" class="edge">
<title>Node1&#45;&gt;Node16</title>
<g id="a_edge16_Node000001_Node000016"><a xlink:title=" ">
<path fill="none" stroke="#63b8ff" d="M98.01,-144C122.54,-146.8 152.05,-150.18 175.42,-152.86"/>
<polygon fill="#63b8ff" stroke="#63b8ff" points="175.02,-156.33 185.36,-153.99 175.82,-149.38 175.02,-156.33"/>
</a>
</g>
</g>
<!-- Node17 -->
<g id="Node000017" class="node">
<title>Node17</title>
<g id="a_Node000017"><a xlink:href="spi_8c.html#a75292d5df7f435fec6d457c80a9082ec" target="_top" xlink:title="Transmits and receives data on SPI without DMA, wrapper for FRAM.">
<polygon fill="white" stroke="#666666" points="300,-130 134,-130 134,-111 300,-111 300,-130"/>
<text text-anchor="middle" x="217" y="-118" font-family="Helvetica,sans-Serif" font-size="10.00">SPI_FramTransmitReceiveData</text>
</a>
</g>
</g>
<!-- Node1&#45;&gt;Node17 -->
<g id="edge17_Node000001_Node000017" class="edge">
<title>Node1&#45;&gt;Node17</title>
<g id="a_edge17_Node000001_Node000017"><a xlink:title=" ">
<path fill="none" stroke="#63b8ff" d="M98.01,-133.29C106.22,-132.4 114.99,-131.45 123.9,-130.49"/>
<polygon fill="#63b8ff" stroke="#63b8ff" points="124.43,-133.95 134,-129.39 123.68,-126.99 124.43,-133.95"/>
</a>
</g>
</g>
<!-- Node18 -->
<g id="Node000018" class="node">
<title>Node18</title>
<g id="a_Node000018"><a xlink:href="spi_8c.html#ad14e64eda89eab297290fc3c0b030be6" target="_top" xlink:title="Returns index of SPI node.">
<polygon fill="white" stroke="#666666" points="265,-93 169,-93 169,-74 265,-74 265,-93"/>
<text text-anchor="middle" x="217" y="-81" font-family="Helvetica,sans-Serif" font-size="10.00">SPI_GetSpiIndex</text>
</a>
</g>
</g>
<!-- Node1&#45;&gt;Node18 -->
<g id="edge18_Node000001_Node000018" class="edge">
<title>Node1&#45;&gt;Node18</title>
<g id="a_edge18_Node000001_Node000018"><a xlink:title=" ">
<path fill="none" stroke="#63b8ff" d="M69.64,-128.9C86.43,-120.99 111.38,-109.9 134,-102.5 141.99,-99.89 150.52,-97.49 158.96,-95.34"/>
<polygon fill="#63b8ff" stroke="#63b8ff" points="159.89,-98.72 168.77,-92.94 158.23,-91.92 159.89,-98.72"/>
</a>
</g>
</g>
<!-- Node19 -->
<g id="Node000019" class="node">
<title>Node19</title>
<g id="a_Node000019"><a xlink:href="spi_8c.html#a87efe82f0f460cf54b53405c4891c1cd" target="_top" xlink:title="Locks SPI interfaces.">
<polygon fill="white" stroke="#666666" points="246.5,-56 187.5,-56 187.5,-37 246.5,-37 246.5,-56"/>
<text text-anchor="middle" x="217" y="-44" font-family="Helvetica,sans-Serif" font-size="10.00">SPI_Lock</text>
</a>
</g>
</g>
<!-- Node1&#45;&gt;Node19 -->
<g id="edge19_Node000001_Node000019" class="edge">
<title>Node1&#45;&gt;Node19</title>
<g id="a_edge19_Node000001_Node000019"><a xlink:title=" ">
<path fill="none" stroke="#63b8ff" d="M58.23,-128.77C72.15,-112.96 101.99,-81.83 134,-65.5 147.41,-58.66 163.3,-54.25 177.51,-51.42"/>
<polygon fill="#63b8ff" stroke="#63b8ff" points="178.27,-54.84 187.5,-49.63 177.04,-47.95 178.27,-54.84"/>
</a>
</g>
</g>
<!-- Node22 -->
<g id="Node000022" class="node">
<title>Node22</title>
<g id="a_Node000022"><a xlink:href="spi_8c.html#aa17e9150e0bdf244755f0165aa11154b" target="_top" xlink:title="Unlocks SPI interfaces.">
<polygon fill="white" stroke="#666666" points="252.5,-19 181.5,-19 181.5,0 252.5,0 252.5,-19"/>
<text text-anchor="middle" x="217" y="-7" font-family="Helvetica,sans-Serif" font-size="10.00">SPI_Unlock</text>
</a>
</g>
</g>
<!-- Node1&#45;&gt;Node22 -->
<g id="edge22_Node000001_Node000022" class="edge">
<title>Node1&#45;&gt;Node22</title>
<g id="a_edge22_Node000001_Node000022"><a xlink:title=" ">
<path fill="none" stroke="#63b8ff" d="M54.3,-128.96C64.64,-107.18 93.09,-53.69 134,-27.5 145.04,-20.43 158.45,-16.11 171.19,-13.47"/>
<polygon fill="#63b8ff" stroke="#63b8ff" points="171.98,-16.89 181.22,-11.7 170.76,-9.99 171.98,-16.89"/>
</a>
</g>
</g>
<!-- Node4 -->
<g id="Node000004" class="node">
<title>Node4</title>
<g id="a_Node000004"><a xlink:href="diag_8c.html#a59191bef7fcae145e2d834eb8f447025" target="_top" xlink:title="DIAG_ClearFatalErrorById checks whether the error has been cleared before and if not sends a clear me...">
<polygon fill="white" stroke="#666666" points="476,-241 336,-241 336,-222 476,-222 476,-241"/>
<text text-anchor="middle" x="406" y="-229" font-family="Helvetica,sans-Serif" font-size="10.00">DIAG_ClearFatalErrorById</text>
</a>
</g>
</g>
<!-- Node3&#45;&gt;Node4 -->
<g id="edge3_Node000003_Node000004" class="edge">
<title>Node3&#45;&gt;Node4</title>
<g id="a_edge3_Node000003_Node000004"><a xlink:title=" ">
<path fill="none" stroke="#63b8ff" d="M259.5,-231.5C279,-231.5 302.92,-231.5 325.69,-231.5"/>
<polygon fill="#63b8ff" stroke="#63b8ff" points="325.7,-235 335.7,-231.5 325.7,-228 325.7,-235"/>
</a>
</g>
</g>
<!-- Node12 -->
<g id="Node000012" class="node">
<title>Node12</title>
<g id="a_Node000012"><a xlink:href="diag_8c.html#a58cadf1515b7deb987a0ddef0549e270" target="_top" xlink:title="DIAG_EntryWrite adds an error entry.">
<polygon fill="white" stroke="#666666" points="455,-204 357,-204 357,-185 455,-185 455,-204"/>
<text text-anchor="middle" x="406" y="-192" font-family="Helvetica,sans-Serif" font-size="10.00">DIAG_EntryWrite</text>
</a>
</g>
</g>
<!-- Node3&#45;&gt;Node12 -->
<g id="edge11_Node000003_Node000012" class="edge">
<title>Node3&#45;&gt;Node12</title>
<g id="a_edge11_Node000003_Node000012"><a xlink:title=" ">
<path fill="none" stroke="#63b8ff" d="M259.5,-223.29C285.09,-218.23 318.29,-211.66 346.52,-206.07"/>
<polygon fill="#63b8ff" stroke="#63b8ff" points="347.54,-209.44 356.67,-204.06 346.18,-202.57 347.54,-209.44"/>
</a>
</g>
</g>
<!-- Node13 -->
<g id="Node000013" class="node">
<title>Node13</title>
<g id="a_Node000013"><a xlink:href="diag_8c.html#a4f4874e2e5766a401e9ab0c2721efda6" target="_top" xlink:title="DIAG_SetFatalErrorById checks whether the error has been send before and if not send it per CAN....">
<polygon fill="white" stroke="#666666" points="471.5,-278 340.5,-278 340.5,-259 471.5,-259 471.5,-278"/>
<text text-anchor="middle" x="406" y="-266" font-family="Helvetica,sans-Serif" font-size="10.00">DIAG_SetFatalErrorById</text>
</a>
</g>
</g>
<!-- Node3&#45;&gt;Node13 -->
<g id="edge12_Node000003_Node000013" class="edge">
<title>Node3&#45;&gt;Node13</title>
<g id="a_edge12_Node000003_Node000013"><a xlink:title=" ">
<path fill="none" stroke="#63b8ff" d="M259.5,-239.71C285.09,-244.77 318.29,-251.34 346.52,-256.93"/>
<polygon fill="#63b8ff" stroke="#63b8ff" points="346.18,-260.43 356.67,-258.94 347.54,-253.56 346.18,-260.43"/>
</a>
</g>
</g>
<!-- Node5 -->
<g id="Node000005" class="node">
<title>Node5</title>
<g id="a_Node000005"><a xlink:href="can__cbs__tx__fatal-error_8c.html#af9d19804d03a440d5eb12e574a76bf30" target="_top" xlink:title="Sends the Error ID per CAN.">
<polygon fill="white" stroke="#666666" points="647,-259 512,-259 512,-240 647,-240 647,-259"/>
<text text-anchor="middle" x="579.5" y="-247" font-family="Helvetica,sans-Serif" font-size="10.00">CANTX_SendFatalErrorId</text>
</a>
</g>
</g>
<!-- Node4&#45;&gt;Node5 -->
<g id="edge4_Node000004_Node000005" class="edge">
<title>Node4&#45;&gt;Node5</title>
<g id="a_edge4_Node000004_Node000005"><a xlink:title=" ">
<path fill="none" stroke="#63b8ff" d="M476.26,-238.77C484.59,-239.64 493.13,-240.54 501.56,-241.42"/>
<polygon fill="#63b8ff" stroke="#63b8ff" points="501.45,-244.93 511.76,-242.5 502.18,-237.97 501.45,-244.93"/>
</a>
</g>
</g>
<!-- Node11 -->
<g id="Node000011" class="node">
<title>Node11</title>
<g id="a_Node000011"><a xlink:href="timer_8c.html#a8a878f1764cb181893c79d55b1c41a65" target="_top" xlink:title="TIMER_stops stops a given virtual timer.">
<polygon fill="white" stroke="#666666" points="616.5,-222 542.5,-222 542.5,-203 616.5,-203 616.5,-222"/>
<text text-anchor="middle" x="579.5" y="-210" font-family="Helvetica,sans-Serif" font-size="10.00">TIMER_Stop</text>
</a>
</g>
</g>
<!-- Node4&#45;&gt;Node11 -->
<g id="edge10_Node000004_Node000011" class="edge">
<title>Node4&#45;&gt;Node11</title>
<g id="a_edge10_Node000004_Node000011"><a xlink:title=" ">
<path fill="none" stroke="#63b8ff" d="M476.26,-223.83C495.05,-221.75 514.93,-219.54 532.11,-217.64"/>
<polygon fill="#63b8ff" stroke="#63b8ff" points="532.88,-221.08 542.43,-216.5 532.11,-214.12 532.88,-221.08"/>
</a>
</g>
</g>
<!-- Node6 -->
<g id="Node000006" class="node">
<title>Node6</title>
<g id="a_Node000006"><a xlink:href="can__helper_8c.html#a6154d80fd840f41da0c4ae44011bab10" target="_top" xlink:title="Puts CAN signal data in a 64&#45;bit variable. This function is used to compose a 64&#45;bit CAN message....">
<polygon fill="white" stroke="#666666" points="860,-285.5 700,-285.5 700,-255.5 860,-255.5 860,-285.5"/>
<text text-anchor="start" x="708" y="-273.5" font-family="Helvetica,sans-Serif" font-size="10.00">CAN_TxSetMessageDataWith</text>
<text text-anchor="middle" x="780" y="-262.5" font-family="Helvetica,sans-Serif" font-size="10.00">SignalData</text>
</a>
</g>
</g>
<!-- Node5&#45;&gt;Node6 -->
<g id="edge5_Node000005_Node000006" class="edge">
<title>Node5&#45;&gt;Node6</title>
<g id="a_edge5_Node000005_Node000006"><a xlink:title=" ">
<path fill="none" stroke="#63b8ff" d="M647.15,-256.55C660.74,-257.99 675.26,-259.52 689.5,-261.03"/>
<polygon fill="#63b8ff" stroke="#63b8ff" points="689.49,-264.55 699.81,-262.12 690.23,-257.59 689.49,-264.55"/>
</a>
</g>
</g>
<!-- Node8 -->
<g id="Node000008" class="node">
<title>Node8</title>
<g id="a_Node000008"><a xlink:href="can__cbs__tx__fatal-error_8c.html#a417ea445e91fa2826a6cbefbe8335661" target="_top" xlink:title="Helper function to send the actual error Code.">
<polygon fill="white" stroke="#666666" points="877,-237 683,-237 683,-218 877,-218 877,-237"/>
<text text-anchor="middle" x="780" y="-225" font-family="Helvetica,sans-Serif" font-size="10.00">CANTX_SendMessageFatalErrorCode</text>
</a>
</g>
</g>
<!-- Node5&#45;&gt;Node8 -->
<g id="edge7_Node000005_Node000008" class="edge">
<title>Node5&#45;&gt;Node8</title>
<g id="a_edge7_Node000005_Node000008"><a xlink:title=" ">
<path fill="none" stroke="#63b8ff" d="M647.15,-242.11C658.68,-240.84 670.86,-239.48 682.99,-238.14"/>
<polygon fill="#63b8ff" stroke="#63b8ff" points="683.58,-241.6 693.14,-237.02 682.81,-234.64 683.58,-241.6"/>
</a>
</g>
</g>
<!-- Node7 -->
<g id="Node000007" class="node">
<title>Node7</title>
<g id="a_Node000007"><a xlink:href="can__helper_8c.html#a0d38948df89b374965b8541588148819" target="_top" xlink:title="Convert bit start in big endian case. In the big endian case for CAN, the bit start is set to the MSB...">
<polygon fill="white" stroke="#666666" points="1097.5,-280 930.5,-280 930.5,-261 1097.5,-261 1097.5,-280"/>
<text text-anchor="middle" x="1014" y="-268" font-family="Helvetica,sans-Serif" font-size="10.00">CAN_ConvertBitStartBigEndian</text>
</a>
</g>
</g>
<!-- Node6&#45;&gt;Node7 -->
<g id="edge6_Node000006_Node000007" class="edge">
<title>Node6&#45;&gt;Node7</title>
<g id="a_edge6_Node000006_Node000007"><a xlink:title=" ">
<path fill="none" stroke="#63b8ff" d="M860.19,-270.5C879.42,-270.5 900.15,-270.5 919.95,-270.5"/>
<polygon fill="#63b8ff" stroke="#63b8ff" points="920.21,-274 930.21,-270.5 920.21,-267 920.21,-274"/>
</a>
</g>
</g>
<!-- Node9 -->
<g id="Node000009" class="node">
<title>Node9</title>
<g id="a_Node000009"><a xlink:href="can_8c.html#a9c2903798d15d9e00092596501c752e0" target="_top" xlink:title="Sends over CAN the data passed in parameters. This function goes over the message boxes and marks the...">
<polygon fill="white" stroke="#666666" points="1059,-203 969,-203 969,-184 1059,-184 1059,-203"/>
<text text-anchor="middle" x="1014" y="-191" font-family="Helvetica,sans-Serif" font-size="10.00">CAN_DataSend</text>
</a>
</g>
</g>
<!-- Node8&#45;&gt;Node9 -->
<g id="edge8_Node000008_Node000009" class="edge">
<title>Node8&#45;&gt;Node9</title>
<g id="a_edge8_Node000008_Node000009"><a xlink:title=" ">
<path fill="none" stroke="#63b8ff" d="M845.93,-217.98C881.41,-212.79 924.84,-206.42 958.53,-201.48"/>
<polygon fill="#63b8ff" stroke="#63b8ff" points="959.27,-204.91 968.65,-200 958.25,-197.99 959.27,-204.91"/>
</a>
</g>
</g>
<!-- Node10 -->
<g id="Node000010" class="node">
<title>Node10</title>
<g id="a_Node000010"><a xlink:href="can__helper_8c.html#a6742f6ff56f9a1ec847dcc78cb435f1f" target="_top" xlink:title="Copy CAN data from a 64&#45;bit variable to 8 bytes. This function is used to copy a 64&#45;bit CAN message t...">
<polygon fill="white" stroke="#666666" points="1115,-240 913,-240 913,-221 1115,-221 1115,-240"/>
<text text-anchor="middle" x="1014" y="-228" font-family="Helvetica,sans-Serif" font-size="10.00">CAN_TxSetCanDataWithMessageData</text>
</a>
</g>
</g>
<!-- Node8&#45;&gt;Node10 -->
<g id="edge9_Node000008_Node000010" class="edge">
<title>Node8&#45;&gt;Node10</title>
<g id="a_edge9_Node000008_Node000010"><a xlink:title=" ">
<path fill="none" stroke="#63b8ff" d="M877.04,-228.74C885.55,-228.85 894.21,-228.96 902.83,-229.08"/>
<polygon fill="#63b8ff" stroke="#63b8ff" points="902.87,-232.58 912.91,-229.21 902.96,-225.58 902.87,-232.58"/>
</a>
</g>
</g>
<!-- Node13&#45;&gt;Node5 -->
<g id="edge13_Node000013_Node000005" class="edge">
<title>Node13&#45;&gt;Node5</title>
<g id="a_edge13_Node000013_Node000005"><a xlink:title=" ">
<path fill="none" stroke="#63b8ff" d="M471.84,-261.32C481.65,-260.23 491.86,-259.1 501.9,-257.99"/>
<polygon fill="#63b8ff" stroke="#63b8ff" points="502.31,-261.46 511.86,-256.88 501.54,-254.51 502.31,-261.46"/>
</a>
</g>
</g>
<!-- Node14 -->
<g id="Node000014" class="node">
<title>Node14</title>
<g id="a_Node000014"><a xlink:href="timer_8c.html#a961668103b79a6b04dfd66e507bd2d7f" target="_top" xlink:title="TIMER_start starts a given virtual timer.">
<polygon fill="white" stroke="#666666" points="617.5,-296 541.5,-296 541.5,-277 617.5,-277 617.5,-296"/>
<text text-anchor="middle" x="579.5" y="-284" font-family="Helvetica,sans-Serif" font-size="10.00">TIMER_Start</text>
</a>
</g>
</g>
<!-- Node13&#45;&gt;Node14 -->
<g id="edge14_Node000013_Node000014" class="edge">
<title>Node13&#45;&gt;Node14</title>
<g id="a_edge14_Node000013_Node000014"><a xlink:title=" ">
<path fill="none" stroke="#63b8ff" d="M471.84,-275.31C491.59,-277.38 512.93,-279.62 531.29,-281.54"/>
<polygon fill="#63b8ff" stroke="#63b8ff" points="531.12,-285.05 541.43,-282.61 531.85,-278.08 531.12,-285.05"/>
</a>
</g>
</g>
<!-- Node20 -->
<g id="Node000020" class="node">
<title>Node20</title>
<g id="a_Node000020"><a xlink:href="os__freertos_8c.html#ab8517d65da4e4805a64eda3fbec933de" target="_top" xlink:title="Enter Critical interface function for use in FreeRTOS&#45;Tasks and FreeRTOS&#45;ISR.">
<polygon fill="white" stroke="#666666" points="464.5,-19 347.5,-19 347.5,0 464.5,0 464.5,-19"/>
<text text-anchor="middle" x="406" y="-7" font-family="Helvetica,sans-Serif" font-size="10.00">OS_EnterTaskCritical</text>
</a>
</g>
</g>
<!-- Node19&#45;&gt;Node20 -->
<g id="edge20_Node000019_Node000020" class="edge">
<title>Node19&#45;&gt;Node20</title>
<g id="a_edge20_Node000019_Node000020"><a xlink:title=" ">
<path fill="none" stroke="#63b8ff" d="M246.81,-40.8C273.36,-35.55 313.57,-27.59 346.8,-21.01"/>
<polygon fill="#63b8ff" stroke="#63b8ff" points="347.74,-24.4 356.87,-19.02 346.38,-17.53 347.74,-24.4"/>
</a>
</g>
</g>
<!-- Node21 -->
<g id="Node000021" class="node">
<title>Node21</title>
<g id="a_Node000021"><a xlink:href="os__freertos_8c.html#a83489428a970d8f77f122f41f4b6bc0a" target="_top" xlink:title="Exit Critical interface function for use in FreeRTOS&#45;Tasks and FreeRTOS&#45;ISR.">
<polygon fill="white" stroke="#666666" points="461,-56 351,-56 351,-37 461,-37 461,-56"/>
<text text-anchor="middle" x="406" y="-44" font-family="Helvetica,sans-Serif" font-size="10.00">OS_ExitTaskCritical</text>
</a>
</g>
</g>
<!-- Node19&#45;&gt;Node21 -->
<g id="edge21_Node000019_Node000021" class="edge">
<title>Node19&#45;&gt;Node21</title>
<g id="a_edge21_Node000019_Node000021"><a xlink:title=" ">
<path fill="none" stroke="#63b8ff" d="M246.81,-46.5C271.77,-46.5 308.79,-46.5 340.75,-46.5"/>
<polygon fill="#63b8ff" stroke="#63b8ff" points="340.93,-50 350.93,-46.5 340.93,-43 340.93,-50"/>
</a>
</g>
</g>
<!-- Node22&#45;&gt;Node20 -->
<g id="edge23_Node000022_Node000020" class="edge">
<title>Node22&#45;&gt;Node20</title>
<g id="a_edge23_Node000022_Node000020"><a xlink:title=" ">
<path fill="none" stroke="#63b8ff" d="M252.74,-9.5C276.35,-9.5 308.37,-9.5 336.95,-9.5"/>
<polygon fill="#63b8ff" stroke="#63b8ff" points="337.31,-13 347.31,-9.5 337.31,-6 337.31,-13"/>
</a>
</g>
</g>
<!-- Node22&#45;&gt;Node21 -->
<g id="edge24_Node000022_Node000021" class="edge">
<title>Node22&#45;&gt;Node21</title>
<g id="a_edge24_Node000022_Node000021"><a xlink:title=" ">
<path fill="none" stroke="#63b8ff" d="M252.74,-16.37C279.02,-21.57 315.73,-28.84 346.51,-34.93"/>
<polygon fill="#63b8ff" stroke="#63b8ff" points="346.22,-38.44 356.71,-36.94 347.57,-31.57 346.22,-38.44"/>
</a>
</g>
</g>
</g>
</svg>

<g id="navigator" transform="translate(0 0)" fill="#404254">
  <rect fill="#f2f5e9" fill-opacity="0.5" stroke="#606060" stroke-width=".5" x="0" y="0" width="60" height="60"/>
  <use id="zoomplus" xlink:href="#zoomPlus" x="17" y="9" onmousedown="handleZoom(evt,'in')"/>
  <use id="zoomminus" xlink:href="#zoomMin" x="42" y="9" onmousedown="handleZoom(evt,'out')"/>
  <use id="reset" xlink:href="#resetDef" x="30" y="36" onmousedown="handleReset()"/>
   <use id="arrowup" xlink:href="#arrowUp" x="0" y="0" onmousedown="handlePan(0,-1)"/>
  <use id="arrowright" xlink:href="#arrowRight" x="0" y="0" onmousedown="handlePan(1,0)"/>
  <use id="arrowdown" xlink:href="#arrowDown" x="0" y="0" onmousedown="handlePan(0,1)"/>
  <use id="arrowleft" xlink:href="#arrowLeft" x="0" y="0" onmousedown="handlePan(-1,0)"/>
</g>
<svg viewBox="0 0 15 15" width="100%" height="30px" preserveAspectRatio="xMaxYMin meet">
 <g id="arrow_out" transform="scale(0.3 0.3)">
  <a xlink:href="fram_8h_ac33e9fde66e31d43c22bfc9a2f8aebf7_cgraph_org.svg" target="_base">
   <rect id="button" ry="5" rx="5" y="6" x="6" height="38" width="38"
        fill="#f2f5e9" fill-opacity="0.5" stroke="#606060" stroke-width="1.0"/>
   <path id="arrow"
     d="M 11.500037,31.436501 C 11.940474,20.09759 22.043105,11.32322 32.158766,21.979434 L 37.068811,17.246167 C 37.068811,17.246167 37.088388,32 37.088388,32 L 22.160133,31.978069 C 22.160133,31.978069 26.997745,27.140456 26.997745,27.140456 C 18.528582,18.264221 13.291696,25.230495 11.500037,31.436501 z"
     style="fill:#404040;"/>
  </a>
 </g>
</svg>

<style type='text/css'>
<![CDATA[
[data-mouse-over-selected='false'] { opacity: 0.7; }
[data-mouse-over-selected='true']  { opacity: 1.0; }
]]>
</style>
<script type="application/ecmascript"><![CDATA[
document.addEventListener('DOMContentLoaded', (event) => {
  highlightEdges();
  highlightAdjacentNodes();
});
]]></script>
</svg>
