<?xml version="1.0" encoding="UTF-8" standalone="no"?>
<!DOCTYPE svg PUBLIC "-//W3C//DTD SVG 1.1//EN"
 "http://www.w3.org/Graphics/SVG/1.1/DTD/svg11.dtd">
<!-- Generated by graphviz version 2.43.0 (0)
 -->
<!-- Title: FRAM_Initialize Pages: 1 -->
<svg width="1251pt" height="341pt"
 viewBox="0.00 0.00 1251.00 341.00" xmlns="http://www.w3.org/2000/svg" xmlns:xlink="http://www.w3.org/1999/xlink">
<g id="graph0" class="graph" transform="scale(1 1) rotate(0) translate(4 337)">
<title>FRAM_Initialize</title>
<!-- Node1 -->
<g id="Node000001" class="node">
<title>Node1</title>
<g id="a_Node000001"><a xlink:title="Initializes the addresses to be written in the FRAM.">
<polygon fill="#999999" stroke="#666666" points="92,-186 0,-186 0,-167 92,-167 92,-186"/>
<text text-anchor="middle" x="46" y="-174" font-family="Helvetica,sans-Serif" font-size="10.00">FRAM_Initialize</text>
</a>
</g>
</g>
<!-- Node2 -->
<g id="Node000002" class="node">
<title>Node2</title>
<g id="a_Node000002"><a xlink:href="diag_8c.html#a9ccc8d9e39ec632833371523168c4927" target="_top" xlink:title="DIAG_Handler provides generic error handling, based on diagnosis group.">
<polygon fill="white" stroke="#666666" points="387.5,-278 302.5,-278 302.5,-259 387.5,-259 387.5,-278"/>
<text text-anchor="middle" x="345" y="-266" font-family="Helvetica,sans-Serif" font-size="10.00">DIAG_Handler</text>
</a>
</g>
</g>
<!-- Node1&#45;&gt;Node2 -->
<g id="edge1_Node000001_Node000002" class="edge">
<title>Node1&#45;&gt;Node2</title>
<g id="a_edge1_Node000001_Node000002"><a xlink:title=" ">
<path fill="none" stroke="#63b8ff" d="M72.55,-186.1C112.57,-200.93 192.62,-229.74 262,-249.5 271.8,-252.29 282.35,-254.97 292.51,-257.4"/>
<polygon fill="#63b8ff" stroke="#63b8ff" points="291.97,-260.86 302.5,-259.73 293.56,-254.05 291.97,-260.86"/>
</a>
</g>
</g>
<!-- Node14 -->
<g id="Node000014" class="node">
<title>Node14</title>
<g id="a_Node000014"><a xlink:href="fram_8c.html#ac33e9fde66e31d43c22bfc9a2f8aebf7" target="_top" xlink:title="Reads a variable from the FRAM.">
<polygon fill="white" stroke="#666666" points="226,-167 128,-167 128,-148 226,-148 226,-167"/>
<text text-anchor="middle" x="177" y="-155" font-family="Helvetica,sans-Serif" font-size="10.00">FRAM_ReadData</text>
</a>
</g>
</g>
<!-- Node1&#45;&gt;Node14 -->
<g id="edge14_Node000001_Node000014" class="edge">
<title>Node1&#45;&gt;Node14</title>
<g id="a_edge14_Node000001_Node000014"><a xlink:title=" ">
<path fill="none" stroke="#63b8ff" d="M92.12,-169.85C100.37,-168.64 109.09,-167.36 117.66,-166.09"/>
<polygon fill="#63b8ff" stroke="#63b8ff" points="118.23,-169.55 127.62,-164.63 117.21,-162.62 118.23,-169.55"/>
</a>
</g>
</g>
<!-- Node3 -->
<g id="Node000003" class="node">
<title>Node3</title>
<g id="a_Node000003"><a xlink:href="diag_8c.html#a59191bef7fcae145e2d834eb8f447025" target="_top" xlink:title="DIAG_ClearFatalErrorById checks whether the error has been cleared before and if not sends a clear me...">
<polygon fill="white" stroke="#666666" points="604,-278 464,-278 464,-259 604,-259 604,-278"/>
<text text-anchor="middle" x="534" y="-266" font-family="Helvetica,sans-Serif" font-size="10.00">DIAG_ClearFatalErrorById</text>
</a>
</g>
</g>
<!-- Node2&#45;&gt;Node3 -->
<g id="edge2_Node000002_Node000003" class="edge">
<title>Node2&#45;&gt;Node3</title>
<g id="a_edge2_Node000002_Node000003"><a xlink:title=" ">
<path fill="none" stroke="#63b8ff" d="M387.5,-268.5C407,-268.5 430.92,-268.5 453.69,-268.5"/>
<polygon fill="#63b8ff" stroke="#63b8ff" points="453.7,-272 463.7,-268.5 453.7,-265 453.7,-272"/>
</a>
</g>
</g>
<!-- Node11 -->
<g id="Node000011" class="node">
<title>Node11</title>
<g id="a_Node000011"><a xlink:href="diag_8c.html#a58cadf1515b7deb987a0ddef0549e270" target="_top" xlink:title="DIAG_EntryWrite adds an error entry.">
<polygon fill="white" stroke="#666666" points="583,-241 485,-241 485,-222 583,-222 583,-241"/>
<text text-anchor="middle" x="534" y="-229" font-family="Helvetica,sans-Serif" font-size="10.00">DIAG_EntryWrite</text>
</a>
</g>
</g>
<!-- Node2&#45;&gt;Node11 -->
<g id="edge10_Node000002_Node000011" class="edge">
<title>Node2&#45;&gt;Node11</title>
<g id="a_edge10_Node000002_Node000011"><a xlink:title=" ">
<path fill="none" stroke="#63b8ff" d="M387.5,-260.29C413.09,-255.23 446.29,-248.66 474.52,-243.07"/>
<polygon fill="#63b8ff" stroke="#63b8ff" points="475.54,-246.44 484.67,-241.06 474.18,-239.57 475.54,-246.44"/>
</a>
</g>
</g>
<!-- Node12 -->
<g id="Node000012" class="node">
<title>Node12</title>
<g id="a_Node000012"><a xlink:href="diag_8c.html#a4f4874e2e5766a401e9ab0c2721efda6" target="_top" xlink:title="DIAG_SetFatalErrorById checks whether the error has been send before and if not send it per CAN....">
<polygon fill="white" stroke="#666666" points="599.5,-315 468.5,-315 468.5,-296 599.5,-296 599.5,-315"/>
<text text-anchor="middle" x="534" y="-303" font-family="Helvetica,sans-Serif" font-size="10.00">DIAG_SetFatalErrorById</text>
</a>
</g>
</g>
<!-- Node2&#45;&gt;Node12 -->
<g id="edge11_Node000002_Node000012" class="edge">
<title>Node2&#45;&gt;Node12</title>
<g id="a_edge11_Node000002_Node000012"><a xlink:title=" ">
<path fill="none" stroke="#63b8ff" d="M387.5,-276.71C413.09,-281.77 446.29,-288.34 474.52,-293.93"/>
<polygon fill="#63b8ff" stroke="#63b8ff" points="474.18,-297.43 484.67,-295.94 475.54,-290.56 474.18,-297.43"/>
</a>
</g>
</g>
<!-- Node4 -->
<g id="Node000004" class="node">
<title>Node4</title>
<g id="a_Node000004"><a xlink:href="can__cbs__tx__fatal-error_8c.html#af9d19804d03a440d5eb12e574a76bf30" target="_top" xlink:title="Sends the Error ID per CAN.">
<polygon fill="white" stroke="#666666" points="775,-296 640,-296 640,-277 775,-277 775,-296"/>
<text text-anchor="middle" x="707.5" y="-284" font-family="Helvetica,sans-Serif" font-size="10.00">CANTX_SendFatalErrorId</text>
</a>
</g>
</g>
<!-- Node3&#45;&gt;Node4 -->
<g id="edge3_Node000003_Node000004" class="edge">
<title>Node3&#45;&gt;Node4</title>
<g id="a_edge3_Node000003_Node000004"><a xlink:title=" ">
<path fill="none" stroke="#63b8ff" d="M604.26,-275.77C612.59,-276.64 621.13,-277.54 629.56,-278.42"/>
<polygon fill="#63b8ff" stroke="#63b8ff" points="629.45,-281.93 639.76,-279.5 630.18,-274.97 629.45,-281.93"/>
</a>
</g>
</g>
<!-- Node10 -->
<g id="Node000010" class="node">
<title>Node10</title>
<g id="a_Node000010"><a xlink:href="timer_8c.html#a8a878f1764cb181893c79d55b1c41a65" target="_top" xlink:title="TIMER_stops stops a given virtual timer.">
<polygon fill="white" stroke="#666666" points="744.5,-259 670.5,-259 670.5,-240 744.5,-240 744.5,-259"/>
<text text-anchor="middle" x="707.5" y="-247" font-family="Helvetica,sans-Serif" font-size="10.00">TIMER_Stop</text>
</a>
</g>
</g>
<!-- Node3&#45;&gt;Node10 -->
<g id="edge9_Node000003_Node000010" class="edge">
<title>Node3&#45;&gt;Node10</title>
<g id="a_edge9_Node000003_Node000010"><a xlink:title=" ">
<path fill="none" stroke="#63b8ff" d="M604.26,-260.83C623.05,-258.75 642.93,-256.54 660.11,-254.64"/>
<polygon fill="#63b8ff" stroke="#63b8ff" points="660.88,-258.08 670.43,-253.5 660.11,-251.12 660.88,-258.08"/>
</a>
</g>
</g>
<!-- Node5 -->
<g id="Node000005" class="node">
<title>Node5</title>
<g id="a_Node000005"><a xlink:href="can__helper_8c.html#a6154d80fd840f41da0c4ae44011bab10" target="_top" xlink:title="Puts CAN signal data in a 64&#45;bit variable. This function is used to compose a 64&#45;bit CAN message....">
<polygon fill="white" stroke="#666666" points="988,-323.5 828,-323.5 828,-293.5 988,-293.5 988,-323.5"/>
<text text-anchor="start" x="836" y="-311.5" font-family="Helvetica,sans-Serif" font-size="10.00">CAN_TxSetMessageDataWith</text>
<text text-anchor="middle" x="908" y="-300.5" font-family="Helvetica,sans-Serif" font-size="10.00">SignalData</text>
</a>
</g>
</g>
<!-- Node4&#45;&gt;Node5 -->
<g id="edge4_Node000004_Node000005" class="edge">
<title>Node4&#45;&gt;Node5</title>
<g id="a_edge4_Node000004_Node000005"><a xlink:title=" ">
<path fill="none" stroke="#63b8ff" d="M775.15,-293.89C788.74,-295.39 803.26,-297 817.5,-298.58"/>
<polygon fill="#63b8ff" stroke="#63b8ff" points="817.48,-302.1 827.81,-299.72 818.25,-295.14 817.48,-302.1"/>
</a>
</g>
</g>
<!-- Node7 -->
<g id="Node000007" class="node">
<title>Node7</title>
<g id="a_Node000007"><a xlink:href="can__cbs__tx__fatal-error_8c.html#a417ea445e91fa2826a6cbefbe8335661" target="_top" xlink:title="Helper function to send the actual error Code.">
<polygon fill="white" stroke="#666666" points="1005,-275 811,-275 811,-256 1005,-256 1005,-275"/>
<text text-anchor="middle" x="908" y="-263" font-family="Helvetica,sans-Serif" font-size="10.00">CANTX_SendMessageFatalErrorCode</text>
</a>
</g>
</g>
<!-- Node4&#45;&gt;Node7 -->
<g id="edge6_Node000004_Node000007" class="edge">
<title>Node4&#45;&gt;Node7</title>
<g id="a_edge6_Node000004_Node000007"><a xlink:title=" ">
<path fill="none" stroke="#63b8ff" d="M775.15,-279.45C785.31,-278.37 795.98,-277.25 806.66,-276.12"/>
<polygon fill="#63b8ff" stroke="#63b8ff" points="807.32,-279.57 816.9,-275.03 806.58,-272.6 807.32,-279.57"/>
</a>
</g>
</g>
<!-- Node6 -->
<g id="Node000006" class="node">
<title>Node6</title>
<g id="a_Node000006"><a xlink:href="can__helper_8c.html#a0d38948df89b374965b8541588148819" target="_top" xlink:title="Convert bit start in big endian case. In the big endian case for CAN, the bit start is set to the MSB...">
<polygon fill="white" stroke="#666666" points="1225.5,-318 1058.5,-318 1058.5,-299 1225.5,-299 1225.5,-318"/>
<text text-anchor="middle" x="1142" y="-306" font-family="Helvetica,sans-Serif" font-size="10.00">CAN_ConvertBitStartBigEndian</text>
</a>
</g>
</g>
<!-- Node5&#45;&gt;Node6 -->
<g id="edge5_Node000005_Node000006" class="edge">
<title>Node5&#45;&gt;Node6</title>
<g id="a_edge5_Node000005_Node000006"><a xlink:title=" ">
<path fill="none" stroke="#63b8ff" d="M988.19,-308.5C1007.42,-308.5 1028.15,-308.5 1047.95,-308.5"/>
<polygon fill="#63b8ff" stroke="#63b8ff" points="1048.21,-312 1058.21,-308.5 1048.21,-305 1048.21,-312"/>
</a>
</g>
</g>
<!-- Node8 -->
<g id="Node000008" class="node">
<title>Node8</title>
<g id="a_Node000008"><a xlink:href="can_8c.html#a9c2903798d15d9e00092596501c752e0" target="_top" xlink:title="Sends over CAN the data passed in parameters. This function goes over the message boxes and marks the...">
<polygon fill="white" stroke="#666666" points="1187,-241 1097,-241 1097,-222 1187,-222 1187,-241"/>
<text text-anchor="middle" x="1142" y="-229" font-family="Helvetica,sans-Serif" font-size="10.00">CAN_DataSend</text>
</a>
</g>
</g>
<!-- Node7&#45;&gt;Node8 -->
<g id="edge7_Node000007_Node000008" class="edge">
<title>Node7&#45;&gt;Node8</title>
<g id="a_edge7_Node000007_Node000008"><a xlink:title=" ">
<path fill="none" stroke="#63b8ff" d="M973.93,-255.98C1009.41,-250.79 1052.84,-244.42 1086.53,-239.48"/>
<polygon fill="#63b8ff" stroke="#63b8ff" points="1087.27,-242.91 1096.65,-238 1086.25,-235.99 1087.27,-242.91"/>
</a>
</g>
</g>
<!-- Node9 -->
<g id="Node000009" class="node">
<title>Node9</title>
<g id="a_Node000009"><a xlink:href="can__helper_8c.html#a6742f6ff56f9a1ec847dcc78cb435f1f" target="_top" xlink:title="Copy CAN data from a 64&#45;bit variable to 8 bytes. This function is used to copy a 64&#45;bit CAN message t...">
<polygon fill="white" stroke="#666666" points="1243,-278 1041,-278 1041,-259 1243,-259 1243,-278"/>
<text text-anchor="middle" x="1142" y="-266" font-family="Helvetica,sans-Serif" font-size="10.00">CAN_TxSetCanDataWithMessageData</text>
</a>
</g>
</g>
<!-- Node7&#45;&gt;Node9 -->
<g id="edge8_Node000007_Node000009" class="edge">
<title>Node7&#45;&gt;Node9</title>
<g id="a_edge8_Node000007_Node000009"><a xlink:title=" ">
<path fill="none" stroke="#63b8ff" d="M1005.04,-266.74C1013.55,-266.85 1022.21,-266.96 1030.83,-267.08"/>
<polygon fill="#63b8ff" stroke="#63b8ff" points="1030.87,-270.58 1040.91,-267.21 1030.96,-263.58 1030.87,-270.58"/>
</a>
</g>
</g>
<!-- Node12&#45;&gt;Node4 -->
<g id="edge12_Node000012_Node000004" class="edge">
<title>Node12&#45;&gt;Node4</title>
<g id="a_edge12_Node000012_Node000004"><a xlink:title=" ">
<path fill="none" stroke="#63b8ff" d="M599.84,-298.32C609.65,-297.23 619.86,-296.1 629.9,-294.99"/>
<polygon fill="#63b8ff" stroke="#63b8ff" points="630.31,-298.46 639.86,-293.88 629.54,-291.51 630.31,-298.46"/>
</a>
</g>
</g>
<!-- Node13 -->
<g id="Node000013" class="node">
<title>Node13</title>
<g id="a_Node000013"><a xlink:href="timer_8c.html#a961668103b79a6b04dfd66e507bd2d7f" target="_top" xlink:title="TIMER_start starts a given virtual timer.">
<polygon fill="white" stroke="#666666" points="745.5,-333 669.5,-333 669.5,-314 745.5,-314 745.5,-333"/>
<text text-anchor="middle" x="707.5" y="-321" font-family="Helvetica,sans-Serif" font-size="10.00">TIMER_Start</text>
</a>
</g>
</g>
<!-- Node12&#45;&gt;Node13 -->
<g id="edge13_Node000012_Node000013" class="edge">
<title>Node12&#45;&gt;Node13</title>
<g id="a_edge13_Node000012_Node000013"><a xlink:title=" ">
<path fill="none" stroke="#63b8ff" d="M599.84,-312.31C619.59,-314.38 640.93,-316.62 659.29,-318.54"/>
<polygon fill="#63b8ff" stroke="#63b8ff" points="659.12,-322.05 669.43,-319.61 659.85,-315.08 659.12,-322.05"/>
</a>
</g>
</g>
<!-- Node14&#45;&gt;Node2 -->
<g id="edge16_Node000014_Node000002" class="edge">
<title>Node14&#45;&gt;Node2</title>
<g id="a_edge16_Node000014_Node000002"><a xlink:title=" ">
<path fill="none" stroke="#63b8ff" d="M185.62,-167.21C202.56,-188.57 243.33,-238.58 262,-249.5 271.18,-254.87 281.76,-258.72 292.21,-261.48"/>
<polygon fill="#63b8ff" stroke="#63b8ff" points="291.6,-264.93 302.14,-263.81 293.2,-258.12 291.6,-264.93"/>
</a>
</g>
</g>
<!-- Node15 -->
<g id="Node000015" class="node">
<title>Node15</title>
<g id="a_Node000015"><a xlink:href="crc_8c.html#a45b6a4ef5b5984e50927215ab001c01d" target="_top" xlink:title="Computes CRC of data flow.">
<polygon fill="white" stroke="#666666" points="397,-130 293,-130 293,-111 397,-111 397,-130"/>
<text text-anchor="middle" x="345" y="-118" font-family="Helvetica,sans-Serif" font-size="10.00">CRC_CalculateCrc</text>
</a>
</g>
</g>
<!-- Node14&#45;&gt;Node15 -->
<g id="edge15_Node000014_Node000015" class="edge">
<title>Node14&#45;&gt;Node15</title>
<g id="a_edge15_Node000014_Node000015"><a xlink:title=" ">
<path fill="none" stroke="#63b8ff" d="M219.86,-147.98C233.31,-144.93 248.28,-141.56 262,-138.5 271.09,-136.47 280.75,-134.34 290.13,-132.27"/>
<polygon fill="#63b8ff" stroke="#63b8ff" points="291.14,-135.64 300.16,-130.07 289.64,-128.8 291.14,-135.64"/>
</a>
</g>
</g>
<!-- Node16 -->
<g id="Node000016" class="node">
<title>Node16</title>
<g id="a_Node000016"><a xlink:href="io_8c.html#a9a2db1f5acc298fe408a8af231de55ad" target="_top" xlink:title="Reset pin by writing in pin output register.">
<polygon fill="white" stroke="#666666" points="382.5,-93 307.5,-93 307.5,-74 382.5,-74 382.5,-93"/>
<text text-anchor="middle" x="345" y="-81" font-family="Helvetica,sans-Serif" font-size="10.00">IO_PinReset</text>
</a>
</g>
</g>
<!-- Node14&#45;&gt;Node16 -->
<g id="edge17_Node000014_Node000016" class="edge">
<title>Node14&#45;&gt;Node16</title>
<g id="a_edge17_Node000014_Node000016"><a xlink:title=" ">
<path fill="none" stroke="#63b8ff" d="M189.43,-147.83C204.88,-135.26 233.77,-113.5 262,-101.5 273,-96.82 285.36,-93.3 297.09,-90.66"/>
<polygon fill="#63b8ff" stroke="#63b8ff" points="298.1,-94.03 307.18,-88.57 296.68,-87.17 298.1,-94.03"/>
</a>
</g>
</g>
<!-- Node17 -->
<g id="Node000017" class="node">
<title>Node17</title>
<g id="a_Node000017"><a xlink:href="io_8c.html#a7bfc1c1b5a7779778a23ad040043a169" target="_top" xlink:title="Set pin by writing in pin output register.">
<polygon fill="white" stroke="#666666" points="376.5,-56 313.5,-56 313.5,-37 376.5,-37 376.5,-56"/>
<text text-anchor="middle" x="345" y="-44" font-family="Helvetica,sans-Serif" font-size="10.00">IO_PinSet</text>
</a>
</g>
</g>
<!-- Node14&#45;&gt;Node17 -->
<g id="edge18_Node000014_Node000017" class="edge">
<title>Node14&#45;&gt;Node17</title>
<g id="a_edge18_Node000014_Node000017"><a xlink:title=" ">
<path fill="none" stroke="#63b8ff" d="M183.79,-147.8C195.78,-128.61 225.31,-85.81 262,-64.5 274.35,-57.33 289.27,-53.01 302.97,-50.41"/>
<polygon fill="#63b8ff" stroke="#63b8ff" points="303.85,-53.81 313.15,-48.74 302.72,-46.9 303.85,-53.81"/>
</a>
</g>
</g>
<!-- Node18 -->
<g id="Node000018" class="node">
<title>Node18</title>
<g id="a_Node000018"><a xlink:href="spi_8c.html#a75292d5df7f435fec6d457c80a9082ec" target="_top" xlink:title="Transmits and receives data on SPI without DMA, wrapper for FRAM.">
<polygon fill="white" stroke="#666666" points="428,-19 262,-19 262,0 428,0 428,-19"/>
<text text-anchor="middle" x="345" y="-7" font-family="Helvetica,sans-Serif" font-size="10.00">SPI_FramTransmitReceiveData</text>
</a>
</g>
</g>
<!-- Node14&#45;&gt;Node18 -->
<g id="edge19_Node000014_Node000018" class="edge">
<title>Node14&#45;&gt;Node18</title>
<g id="a_edge19_Node000014_Node000018"><a xlink:title=" ">
<path fill="none" stroke="#63b8ff" d="M181.28,-147.82C190.1,-123.37 216.74,-58.9 262,-27.5 264.15,-26.01 266.4,-24.64 268.72,-23.38"/>
<polygon fill="#63b8ff" stroke="#63b8ff" points="270.43,-26.45 278.03,-19.05 267.48,-20.1 270.43,-26.45"/>
</a>
</g>
</g>
<!-- Node19 -->
<g id="Node000019" class="node">
<title>Node19</title>
<g id="a_Node000019"><a xlink:href="spi_8c.html#ad14e64eda89eab297290fc3c0b030be6" target="_top" xlink:title="Returns index of SPI node.">
<polygon fill="white" stroke="#666666" points="393,-241 297,-241 297,-222 393,-222 393,-241"/>
<text text-anchor="middle" x="345" y="-229" font-family="Helvetica,sans-Serif" font-size="10.00">SPI_GetSpiIndex</text>
</a>
</g>
</g>
<!-- Node14&#45;&gt;Node19 -->
<g id="edge20_Node000014_Node000019" class="edge">
<title>Node14&#45;&gt;Node19</title>
<g id="a_edge20_Node000014_Node000019"><a xlink:title=" ">
<path fill="none" stroke="#63b8ff" d="M189.75,-167.15C205.33,-179.46 234.11,-200.59 262,-212.5 269.82,-215.84 278.33,-218.65 286.8,-220.99"/>
<polygon fill="#63b8ff" stroke="#63b8ff" points="286.14,-224.43 296.69,-223.52 287.88,-217.65 286.14,-224.43"/>
</a>
</g>
</g>
<!-- Node20 -->
<g id="Node000020" class="node">
<title>Node20</title>
<g id="a_Node000020"><a xlink:href="spi_8c.html#a87efe82f0f460cf54b53405c4891c1cd" target="_top" xlink:title="Locks SPI interfaces.">
<polygon fill="white" stroke="#666666" points="374.5,-204 315.5,-204 315.5,-185 374.5,-185 374.5,-204"/>
<text text-anchor="middle" x="345" y="-192" font-family="Helvetica,sans-Serif" font-size="10.00">SPI_Lock</text>
</a>
</g>
</g>
<!-- Node14&#45;&gt;Node20 -->
<g id="edge21_Node000014_Node000020" class="edge">
<title>Node14&#45;&gt;Node20</title>
<g id="a_edge21_Node000014_Node000020"><a xlink:title=" ">
<path fill="none" stroke="#63b8ff" d="M220.75,-167.03C246.92,-172.86 280.14,-180.27 305.5,-185.92"/>
<polygon fill="#63b8ff" stroke="#63b8ff" points="304.97,-189.39 315.49,-188.15 306.49,-182.55 304.97,-189.39"/>
</a>
</g>
</g>
<!-- Node23 -->
<g id="Node000023" class="node">
<title>Node23</title>
<g id="a_Node000023"><a xlink:href="spi_8c.html#aa17e9150e0bdf244755f0165aa11154b" target="_top" xlink:title="Unlocks SPI interfaces.">
<polygon fill="white" stroke="#666666" points="380.5,-167 309.5,-167 309.5,-148 380.5,-148 380.5,-167"/>
<text text-anchor="middle" x="345" y="-155" font-family="Helvetica,sans-Serif" font-size="10.00">SPI_Unlock</text>
</a>
</g>
</g>
<!-- Node14&#45;&gt;Node23 -->
<g id="edge24_Node000014_Node000023" class="edge">
<title>Node14&#45;&gt;Node23</title>
<g id="a_edge24_Node000014_Node000023"><a xlink:title=" ">
<path fill="none" stroke="#63b8ff" d="M226.01,-157.5C249.1,-157.5 276.6,-157.5 299.25,-157.5"/>
<polygon fill="#63b8ff" stroke="#63b8ff" points="299.27,-161 309.27,-157.5 299.27,-154 299.27,-161"/>
</a>
</g>
</g>
<!-- Node21 -->
<g id="Node000021" class="node">
<title>Node21</title>
<g id="a_Node000021"><a xlink:href="os__freertos_8c.html#ab8517d65da4e4805a64eda3fbec933de" target="_top" xlink:title="Enter Critical interface function for use in FreeRTOS&#45;Tasks and FreeRTOS&#45;ISR.">
<polygon fill="white" stroke="#666666" points="592.5,-167 475.5,-167 475.5,-148 592.5,-148 592.5,-167"/>
<text text-anchor="middle" x="534" y="-155" font-family="Helvetica,sans-Serif" font-size="10.00">OS_EnterTaskCritical</text>
</a>
</g>
</g>
<!-- Node20&#45;&gt;Node21 -->
<g id="edge22_Node000020_Node000021" class="edge">
<title>Node20&#45;&gt;Node21</title>
<g id="a_edge22_Node000020_Node000021"><a xlink:title=" ">
<path fill="none" stroke="#63b8ff" d="M374.81,-188.8C401.36,-183.55 441.57,-175.59 474.8,-169.01"/>
<polygon fill="#63b8ff" stroke="#63b8ff" points="475.74,-172.4 484.87,-167.02 474.38,-165.53 475.74,-172.4"/>
</a>
</g>
</g>
<!-- Node22 -->
<g id="Node000022" class="node">
<title>Node22</title>
<g id="a_Node000022"><a xlink:href="os__freertos_8c.html#a83489428a970d8f77f122f41f4b6bc0a" target="_top" xlink:title="Exit Critical interface function for use in FreeRTOS&#45;Tasks and FreeRTOS&#45;ISR.">
<polygon fill="white" stroke="#666666" points="589,-204 479,-204 479,-185 589,-185 589,-204"/>
<text text-anchor="middle" x="534" y="-192" font-family="Helvetica,sans-Serif" font-size="10.00">OS_ExitTaskCritical</text>
</a>
</g>
</g>
<!-- Node20&#45;&gt;Node22 -->
<g id="edge23_Node000020_Node000022" class="edge">
<title>Node20&#45;&gt;Node22</title>
<g id="a_edge23_Node000020_Node000022"><a xlink:title=" ">
<path fill="none" stroke="#63b8ff" d="M374.81,-194.5C399.77,-194.5 436.79,-194.5 468.75,-194.5"/>
<polygon fill="#63b8ff" stroke="#63b8ff" points="468.93,-198 478.93,-194.5 468.93,-191 468.93,-198"/>
</a>
</g>
</g>
<!-- Node23&#45;&gt;Node21 -->
<g id="edge25_Node000023_Node000021" class="edge">
<title>Node23&#45;&gt;Node21</title>
<g id="a_edge25_Node000023_Node000021"><a xlink:title=" ">
<path fill="none" stroke="#63b8ff" d="M380.74,-157.5C404.35,-157.5 436.37,-157.5 464.95,-157.5"/>
<polygon fill="#63b8ff" stroke="#63b8ff" points="465.31,-161 475.31,-157.5 465.31,-154 465.31,-161"/>
</a>
</g>
</g>
<!-- Node23&#45;&gt;Node22 -->
<g id="edge26_Node000023_Node000022" class="edge">
<title>Node23&#45;&gt;Node22</title>
<g id="a_edge26_Node000023_Node000022"><a xlink:title=" ">
<path fill="none" stroke="#63b8ff" d="M380.74,-164.37C407.02,-169.57 443.73,-176.84 474.51,-182.93"/>
<polygon fill="#63b8ff" stroke="#63b8ff" points="474.22,-186.44 484.71,-184.94 475.57,-179.57 474.22,-186.44"/>
</a>
</g>
</g>
</g>
</svg>
