<?xml version="1.0" encoding="UTF-8" standalone="no"?>
<!DOCTYPE svg PUBLIC "-//W3C//DTD SVG 1.1//EN"
 "http://www.w3.org/Graphics/SVG/1.1/DTD/svg11.dtd">
<!-- Generated by graphviz version 2.43.0 (0)
 -->
<!-- Title: I2C_Read Pages: 1 -->
<svg width="1198pt" height="76pt"
 viewBox="0.00 0.00 1198.00 75.50" xmlns="http://www.w3.org/2000/svg" xmlns:xlink="http://www.w3.org/1999/xlink">
<g id="graph0" class="graph" transform="scale(1 1) rotate(0) translate(4 71.5)">
<title>I2C_Read</title>
<!-- Node1 -->
<g id="Node000001" class="node">
<title>Node1</title>
<g id="a_Node000001"><a xlink:title="reads from an I2C slave, no register address written first, blocking.">
<polygon fill="#999999" stroke="#666666" points="1190,-40 1128,-40 1128,-21 1190,-21 1190,-40"/>
<text text-anchor="middle" x="1159" y="-28" font-family="Helvetica,sans-Serif" font-size="10.00">I2C_Read</text>
</a>
</g>
</g>
<!-- Node2 -->
<g id="Node000002" class="node">
<title>Node2</title>
<g id="a_Node000002"><a xlink:href="rtc_8c.html#a7e211808028bab21e95dc95b67c842f6" target="_top" xlink:title="Read bit for battery voltage low flag.">
<polygon fill="white" stroke="#666666" points="1092,-67.5 930,-67.5 930,-37.5 1092,-37.5 1092,-67.5"/>
<text text-anchor="start" x="938" y="-55.5" font-family="Helvetica,sans-Serif" font-size="10.00">RTC_CheckBatteryLowVoltage</text>
<text text-anchor="middle" x="1011" y="-44.5" font-family="Helvetica,sans-Serif" font-size="10.00">Alert</text>
</a>
</g>
</g>
<!-- Node1&#45;&gt;Node2 -->
<g id="edge1_Node000001_Node000002" class="edge">
<title>Node1&#45;&gt;Node2</title>
<g id="a_edge1_Node000001_Node000002"><a xlink:title=" ">
<path fill="none" stroke="#63b8ff" d="M1117.66,-36.58C1109.67,-37.78 1101.02,-39.09 1092.22,-40.41"/>
<polygon fill="#63b8ff" stroke="#63b8ff" points="1118.38,-40.01 1127.75,-35.06 1117.34,-33.09 1118.38,-40.01"/>
</a>
</g>
</g>
<!-- Node10 -->
<g id="Node000010" class="node">
<title>Node10</title>
<g id="a_Node000010"><a xlink:href="rtc_8c.html#a7957c8a7a71846f263c61db1540932ad" target="_top" xlink:title="initialization of the RTC IC.">
<polygon fill="white" stroke="#666666" points="1052,-19 970,-19 970,0 1052,0 1052,-19"/>
<text text-anchor="middle" x="1011" y="-7" font-family="Helvetica,sans-Serif" font-size="10.00">RTC_Initialize</text>
</a>
</g>
</g>
<!-- Node1&#45;&gt;Node10 -->
<g id="edge9_Node000001_Node000010" class="edge">
<title>Node1&#45;&gt;Node10</title>
<g id="a_edge9_Node000001_Node000010"><a xlink:title=" ">
<path fill="none" stroke="#63b8ff" d="M1117.81,-24.72C1097.38,-21.78 1072.62,-18.22 1052.19,-15.28"/>
<polygon fill="#63b8ff" stroke="#63b8ff" points="1117.35,-28.19 1127.75,-26.15 1118.35,-21.26 1117.35,-28.19"/>
</a>
</g>
</g>
<!-- Node3 -->
<g id="Node000003" class="node">
<title>Node3</title>
<g id="a_Node000003"><a xlink:href="rtc_8c.html#a29ea3083fe4a8b3e1dc2e4262ae22863" target="_top" xlink:title="trigger function for the RTC driver.">
<polygon fill="white" stroke="#666666" points="894,-40 821,-40 821,-21 894,-21 894,-40"/>
<text text-anchor="middle" x="857.5" y="-28" font-family="Helvetica,sans-Serif" font-size="10.00">RTC_Trigger</text>
</a>
</g>
</g>
<!-- Node2&#45;&gt;Node3 -->
<g id="edge2_Node000002_Node000003" class="edge">
<title>Node2&#45;&gt;Node3</title>
<g id="a_edge2_Node000002_Node000003"><a xlink:title=" ">
<path fill="none" stroke="#63b8ff" d="M919.63,-39.38C910.69,-38.08 902.04,-36.82 894.19,-35.68"/>
<polygon fill="#63b8ff" stroke="#63b8ff" points="919.41,-42.88 929.81,-40.86 920.42,-35.95 919.41,-42.88"/>
</a>
</g>
</g>
<!-- Node4 -->
<g id="Node000004" class="node">
<title>Node4</title>
<g id="a_Node000004"><a xlink:href="ftask__cfg_8c.html#a6be3660b7f0fd3125febd329f698fdd0" target="_top" xlink:title="Continuously running task for I2C.">
<polygon fill="white" stroke="#666666" points="785,-40 659,-40 659,-21 785,-21 785,-40"/>
<text text-anchor="middle" x="722" y="-28" font-family="Helvetica,sans-Serif" font-size="10.00">FTSK_RunUserCodeI2c</text>
</a>
</g>
</g>
<!-- Node3&#45;&gt;Node4 -->
<g id="edge3_Node000003_Node000004" class="edge">
<title>Node3&#45;&gt;Node4</title>
<g id="a_edge3_Node000003_Node000004"><a xlink:title=" ">
<path fill="none" stroke="#63b8ff" d="M810.62,-30.5C802.41,-30.5 793.74,-30.5 785.16,-30.5"/>
<polygon fill="#63b8ff" stroke="#63b8ff" points="810.72,-34 820.72,-30.5 810.72,-27 810.72,-34"/>
</a>
</g>
</g>
<!-- Node5 -->
<g id="Node000005" class="node">
<title>Node5</title>
<g id="a_Node000005"><a xlink:href="ftask_8c.html#afb6bf58f9deabd4c07bf1d23fb68bb23" target="_top" xlink:title="Creation of continuously running task for I2c.">
<polygon fill="white" stroke="#666666" points="623,-40 509,-40 509,-21 623,-21 623,-40"/>
<text text-anchor="middle" x="566" y="-28" font-family="Helvetica,sans-Serif" font-size="10.00">FTSK_CreateTaskI2c</text>
</a>
</g>
</g>
<!-- Node4&#45;&gt;Node5 -->
<g id="edge4_Node000004_Node000005" class="edge">
<title>Node4&#45;&gt;Node5</title>
<g id="a_edge4_Node000004_Node000005"><a xlink:title=" ">
<path fill="none" stroke="#63b8ff" d="M648.58,-30.5C640.14,-30.5 631.64,-30.5 623.46,-30.5"/>
<polygon fill="#63b8ff" stroke="#63b8ff" points="648.81,-34 658.81,-30.5 648.81,-27 648.81,-34"/>
</a>
</g>
</g>
<!-- Node6 -->
<g id="Node000006" class="node">
<title>Node6</title>
<g id="a_Node000006"><a xlink:href="ftask__freertos_8c.html#acae8871d81e223d555652ef9c187898b" target="_top" xlink:title="Creates all tasks of the group.">
<polygon fill="white" stroke="#666666" points="473,-40 368,-40 368,-21 473,-21 473,-40"/>
<text text-anchor="middle" x="420.5" y="-28" font-family="Helvetica,sans-Serif" font-size="10.00">FTSK_CreateTasks</text>
</a>
</g>
</g>
<!-- Node5&#45;&gt;Node6 -->
<g id="edge5_Node000005_Node000006" class="edge">
<title>Node5&#45;&gt;Node6</title>
<g id="a_edge5_Node000005_Node000006"><a xlink:title=" ">
<path fill="none" stroke="#63b8ff" d="M498.51,-30.5C490.09,-30.5 481.58,-30.5 473.43,-30.5"/>
<polygon fill="#63b8ff" stroke="#63b8ff" points="498.7,-34 508.7,-30.5 498.7,-27 498.7,-34"/>
</a>
</g>
</g>
<!-- Node7 -->
<g id="Node000007" class="node">
<title>Node7</title>
<g id="a_Node000007"><a xlink:href="os_8c.html#a87194f95c7417a637c16c86b64f371e7" target="_top" xlink:title="Initialization the RTOS interface.">
<polygon fill="white" stroke="#666666" points="332,-40 170,-40 170,-21 332,-21 332,-40"/>
<text text-anchor="middle" x="251" y="-28" font-family="Helvetica,sans-Serif" font-size="10.00">OS_InitializeOperatingSystem</text>
</a>
</g>
</g>
<!-- Node6&#45;&gt;Node7 -->
<g id="edge6_Node000006_Node000007" class="edge">
<title>Node6&#45;&gt;Node7</title>
<g id="a_edge6_Node000006_Node000007"><a xlink:title=" ">
<path fill="none" stroke="#63b8ff" d="M357.83,-30.5C349.45,-30.5 340.75,-30.5 332.1,-30.5"/>
<polygon fill="#63b8ff" stroke="#63b8ff" points="357.88,-34 367.88,-30.5 357.88,-27 357.88,-34"/>
</a>
</g>
</g>
<!-- Node8 -->
<g id="Node000008" class="node">
<title>Node8</title>
<g id="a_Node000008"><a xlink:href="main_8c.html#a840291bc02cba5474a4cb46a9b9566fe" target="_top" xlink:title="Main function of foxBMS.">
<polygon fill="white" stroke="#666666" points="134,-40 93,-40 93,-21 134,-21 134,-40"/>
<text text-anchor="middle" x="113.5" y="-28" font-family="Helvetica,sans-Serif" font-size="10.00">main</text>
</a>
</g>
</g>
<!-- Node7&#45;&gt;Node8 -->
<g id="edge7_Node000007_Node000008" class="edge">
<title>Node7&#45;&gt;Node8</title>
<g id="a_edge7_Node000007_Node000008"><a xlink:title=" ">
<path fill="none" stroke="#63b8ff" d="M159.56,-30.5C150.1,-30.5 141.32,-30.5 134.06,-30.5"/>
<polygon fill="#63b8ff" stroke="#63b8ff" points="159.61,-34 169.61,-30.5 159.61,-27 159.61,-34"/>
</a>
</g>
</g>
<!-- Node9 -->
<g id="Node000009" class="node">
<title>Node9</title>
<g id="a_Node000009"><a xlink:href="fstartup_8c.html#a3c8534f5781f4cf53ffbeb6d35880b27" target="_top" xlink:title="Startup Routine.">
<polygon fill="white" stroke="#666666" points="57,-40 0,-40 0,-21 57,-21 57,-40"/>
<text text-anchor="middle" x="28.5" y="-28" font-family="Helvetica,sans-Serif" font-size="10.00">_c_int00</text>
</a>
</g>
</g>
<!-- Node8&#45;&gt;Node9 -->
<g id="edge8_Node000008_Node000009" class="edge">
<title>Node8&#45;&gt;Node9</title>
<g id="a_edge8_Node000008_Node000009"><a xlink:title=" ">
<path fill="none" stroke="#63b8ff" d="M82.76,-30.5C74.42,-30.5 65.4,-30.5 57.19,-30.5"/>
<polygon fill="#63b8ff" stroke="#63b8ff" points="82.83,-34 92.83,-30.5 82.83,-27 82.83,-34"/>
</a>
</g>
</g>
<!-- Node10&#45;&gt;Node3 -->
<g id="edge10_Node000010_Node000003" class="edge">
<title>Node10&#45;&gt;Node3</title>
<g id="a_edge10_Node000010_Node000003"><a xlink:title=" ">
<path fill="none" stroke="#63b8ff" d="M959.86,-16.45C938.39,-19.43 913.81,-22.83 894.23,-25.55"/>
<polygon fill="#63b8ff" stroke="#63b8ff" points="960.37,-19.91 969.8,-15.07 959.41,-12.98 960.37,-19.91"/>
</a>
</g>
</g>
</g>
</svg>
