<?xml version="1.0" encoding="UTF-8" standalone="no"?>
<!DOCTYPE svg PUBLIC "-//W3C//DTD SVG 1.1//EN"
 "http://www.w3.org/Graphics/SVG/1.1/DTD/svg11.dtd">
<!-- Generated by graphviz version 2.43.0 (0)
 -->
<!-- Title: foxbms&#45;2/src/app/driver/afe/nxp/mc33775a/config/nxp_mc33775a_cfg.h Pages: 1 -->
<!--zoomable 434 -->

<svg id="main" version="1.1" xmlns="http://www.w3.org/2000/svg" xmlns:xlink="http://www.w3.org/1999/xlink" xml:space="preserve" onload="init(evt)">
<style type="text/css"><![CDATA[
.node, .edge {opacity: 0.7;}
.node.selected, .edge.selected {opacity: 1;}
.edge:hover path { stroke: red; }
.edge:hover polygon { stroke: red; fill: red; }
]]></style>

<defs>
  <circle id="rim" cx="0" cy="0" r="7"/>
  <circle id="rim2" cx="0" cy="0" r="3.5"/>
  <g id="zoomPlus">
    <use xlink:href="#rim" fill="#404040"><set attributeName="fill" to="#808080" begin="zoomplus.mouseover" end="zoomplus.mouseout"/></use>
    <path d="M-4,0h8M0,-4v8" fill="none" stroke="white" stroke-width="1.5" pointer-events="none"/>
  </g>
  <g id="zoomMin">
    <use xlink:href="#rim" fill="#404040"><set attributeName="fill" to="#808080" begin="zoomminus.mouseover" end="zoomminus.mouseout"/></use>
    <path d="M-4,0h8" fill="none" stroke="white" stroke-width="1.5" pointer-events="none"/>
  </g>
  <g id="arrowUp" transform="translate(30 24)">
    <use xlink:href="#rim"/>
    <path pointer-events="none" fill="none" stroke="white" stroke-width="1.5" d="M0,-3.0v7 M-2.5,-0.5L0,-3.0L2.5,-0.5"/>
  </g>
  <g id="arrowRight" transform="rotate(90) translate(36 -43)">
    <use xlink:href="#rim"/>
    <path pointer-events="none" fill="none" stroke="white" stroke-width="1.5" d="M0,-3.0v7 M-2.5,-0.5L0,-3.0L2.5,-0.5"/>
  </g>
  <g id="arrowDown" transform="rotate(180) translate(-30 -48)">
    <use xlink:href="#rim"/>
    <path pointer-events="none" fill="none" stroke="white" stroke-width="1.5" d="M0,-3.0v7 M-2.5,-0.5L0,-3.0L2.5,-0.5"/>
  </g>
  <g id="arrowLeft" transform="rotate(270) translate(-36 17)">
    <use xlink:href="#rim"/>
    <path pointer-events="none" fill="none" stroke="white" stroke-width="1.5" d="M0,-3.0v7 M-2.5,-0.5L0,-3.0L2.5,-0.5"/>
  </g>
  <g id="resetDef">
    <use xlink:href="#rim2" fill="#404040"><set attributeName="fill" to="#808080" begin="reset.mouseover" end="reset.mouseout"/></use>
  </g>
</defs>
<script type="application/ecmascript">
var viewWidth = 516;
var viewHeight = 434;
var sectionId = 'dynsection-0';
</script>
<script type="application/ecmascript" xlink:href="svg.min.js"/>
<svg id="graph" class="graph">
<g id="viewport">
<title>foxbms&#45;2/src/app/driver/afe/nxp/mc33775a/config/nxp_mc33775a_cfg.h</title>
<!-- Node1 -->
<g id="Node000001" class="node">
<title>Node1</title>
<g id="a_Node000001"><a xlink:title="Header for the configuration for the MC33775A analog front&#45;end.">
<polygon fill="#999999" stroke="#666666" points="301.5,-426 158.5,-426 158.5,-385 301.5,-385 301.5,-426"/>
<text text-anchor="start" x="166.5" y="-414" font-family="Helvetica,sans-Serif" font-size="10.00">foxbms&#45;2/src/app/driver</text>
<text text-anchor="start" x="166.5" y="-403" font-family="Helvetica,sans-Serif" font-size="10.00">/afe/nxp/mc33775a/config</text>
<text text-anchor="middle" x="230" y="-392" font-family="Helvetica,sans-Serif" font-size="10.00">/nxp_mc33775a_cfg.h</text>
</a>
</g>
</g>
<!-- Node2 -->
<g id="Node000002" class="node">
<title>Node2</title>
<g id="a_Node000002"><a xlink:href="battery__system__cfg_8h.html" target="_top" xlink:title="Configuration of the battery system (e.g., number of battery modules, battery cells,...">
<polygon fill="white" stroke="#666666" points="380,-239 258,-239 258,-220 380,-220 380,-239"/>
<text text-anchor="middle" x="319" y="-227" font-family="Helvetica,sans-Serif" font-size="10.00">battery_system_cfg.h</text>
</a>
</g>
</g>
<!-- Node1&#45;&gt;Node2 -->
<g id="edge1_Node000001_Node000002" class="edge">
<title>Node1&#45;&gt;Node2</title>
<g id="a_edge1_Node000001_Node000002"><a xlink:title=" ">
<path fill="none" stroke="#63b8ff" d="M240.4,-384.75C245.95,-374.17 252.88,-360.89 259,-349 277.38,-313.28 298.53,-271.29 310.17,-248.12"/>
<polygon fill="#63b8ff" stroke="#63b8ff" points="313.31,-249.65 314.67,-239.14 307.06,-246.51 313.31,-249.65"/>
</a>
</g>
</g>
<!-- Node6 -->
<g id="Node000006" class="node">
<title>Node6</title>
<g id="a_Node000006"><a xlink:title=" ">
<polygon fill="#e0e0e0" stroke="#999999" points="179.5,-19 126.5,-19 126.5,0 179.5,0 179.5,-19"/>
<text text-anchor="middle" x="153" y="-7" font-family="Helvetica,sans-Serif" font-size="10.00">stdint.h</text>
</a>
</g>
</g>
<!-- Node1&#45;&gt;Node6 -->
<g id="edge22_Node000001_Node000006" class="edge">
<title>Node1&#45;&gt;Node6</title>
<g id="a_edge22_Node000001_Node000006"><a xlink:title=" ">
<path fill="none" stroke="#63b8ff" d="M158.49,-397.4C90.97,-386.29 0,-357.88 0,-285.5 0,-285.5 0,-285.5 0,-118.5 0,-61.67 71.32,-32.1 116.57,-19.05"/>
<polygon fill="#63b8ff" stroke="#63b8ff" points="117.63,-22.39 126.35,-16.37 115.78,-15.64 117.63,-22.39"/>
</a>
</g>
</g>
<!-- Node9 -->
<g id="Node000009" class="node">
<title>Node9</title>
<g id="a_Node000009"><a xlink:href="spi_8h.html" target="_top" xlink:title="Headers for the driver for the SPI module.">
<polygon fill="white" stroke="#666666" points="250,-349 210,-349 210,-330 250,-330 250,-349"/>
<text text-anchor="middle" x="230" y="-337" font-family="Helvetica,sans-Serif" font-size="10.00">spi.h</text>
</a>
</g>
</g>
<!-- Node1&#45;&gt;Node9 -->
<g id="edge14_Node000001_Node000009" class="edge">
<title>Node1&#45;&gt;Node9</title>
<g id="a_edge14_Node000001_Node000009"><a xlink:title=" ">
<path fill="none" stroke="#63b8ff" d="M230,-384.95C230,-376.85 230,-367.5 230,-359.47"/>
<polygon fill="#63b8ff" stroke="#63b8ff" points="233.5,-359.26 230,-349.26 226.5,-359.26 233.5,-359.26"/>
</a>
</g>
</g>
<!-- Node3 -->
<g id="Node000003" class="node">
<title>Node3</title>
<g id="a_Node000003"><a xlink:href="general_8h.html" target="_top" xlink:title="General macros and definitions for the whole platform.">
<polygon fill="white" stroke="#666666" points="338,-129 276,-129 276,-110 338,-110 338,-129"/>
<text text-anchor="middle" x="307" y="-117" font-family="Helvetica,sans-Serif" font-size="10.00">general.h</text>
</a>
</g>
</g>
<!-- Node2&#45;&gt;Node3 -->
<g id="edge2_Node000002_Node000003" class="edge">
<title>Node2&#45;&gt;Node3</title>
<g id="a_edge2_Node000002_Node000003"><a xlink:title=" ">
<path fill="none" stroke="#63b8ff" d="M326.81,-219.95C336.9,-207.82 352.34,-184.89 345,-165 340.94,-153.99 332.81,-143.86 325.1,-136.05"/>
<polygon fill="#63b8ff" stroke="#63b8ff" points="327.39,-133.39 317.71,-129.07 322.58,-138.48 327.39,-133.39"/>
</a>
</g>
</g>
<!-- Node4 -->
<g id="Node000004" class="node">
<title>Node4</title>
<g id="a_Node000004"><a xlink:href="fassert_8h.html" target="_top" xlink:title="Assert macro implementation.">
<polygon fill="white" stroke="#666666" points="259.5,-74 200.5,-74 200.5,-55 259.5,-55 259.5,-74"/>
<text text-anchor="middle" x="230" y="-62" font-family="Helvetica,sans-Serif" font-size="10.00">fassert.h</text>
</a>
</g>
</g>
<!-- Node2&#45;&gt;Node4 -->
<g id="edge11_Node000002_Node000004" class="edge">
<title>Node2&#45;&gt;Node4</title>
<g id="a_edge11_Node000002_Node000004"><a xlink:title=" ">
<path fill="none" stroke="#63b8ff" d="M281.85,-219.9C262.84,-213.41 241.35,-202.37 230,-184 210.96,-153.19 218.11,-108.72 224.43,-83.94"/>
<polygon fill="#63b8ff" stroke="#63b8ff" points="227.87,-84.64 227.18,-74.07 221.12,-82.76 227.87,-84.64"/>
</a>
</g>
</g>
<!-- Node5 -->
<g id="Node000005" class="node">
<title>Node5</title>
<g id="a_Node000005"><a xlink:title=" ">
<polygon fill="#e0e0e0" stroke="#999999" points="357,-19 295,-19 295,0 357,0 357,-19"/>
<text text-anchor="middle" x="326" y="-7" font-family="Helvetica,sans-Serif" font-size="10.00">stdbool.h</text>
</a>
</g>
</g>
<!-- Node2&#45;&gt;Node5 -->
<g id="edge12_Node000002_Node000005" class="edge">
<title>Node2&#45;&gt;Node5</title>
<g id="a_edge12_Node000002_Node000005"><a xlink:title=" ">
<path fill="none" stroke="#63b8ff" d="M330.64,-219.73C340.31,-211.67 353.35,-198.74 359,-184 379.9,-129.49 351.46,-60.09 335.51,-28.1"/>
<polygon fill="#63b8ff" stroke="#63b8ff" points="338.55,-26.37 330.85,-19.1 332.34,-29.59 338.55,-26.37"/>
</a>
</g>
</g>
<!-- Node2&#45;&gt;Node6 -->
<g id="edge13_Node000002_Node000006" class="edge">
<title>Node2&#45;&gt;Node6</title>
<g id="a_edge13_Node000002_Node000006"><a xlink:title=" ">
<path fill="none" stroke="#63b8ff" d="M282.12,-219.93C260.89,-213.3 235.11,-202.1 218,-184 175.72,-139.26 160.33,-64.46 155.25,-29.54"/>
<polygon fill="#63b8ff" stroke="#63b8ff" points="158.68,-28.78 153.9,-19.33 151.74,-29.7 158.68,-28.78"/>
</a>
</g>
</g>
<!-- Node8 -->
<g id="Node000008" class="node">
<title>Node8</title>
<g id="a_Node000008"><a xlink:href="bms-slave__cfg_8h.html" target="_top" xlink:title="Configuration of the foxBMS BMS&#45;Slave (e.g., value of balancing resistor, input capacitance....">
<polygon fill="white" stroke="#666666" points="335.5,-184 238.5,-184 238.5,-165 335.5,-165 335.5,-184"/>
<text text-anchor="middle" x="287" y="-172" font-family="Helvetica,sans-Serif" font-size="10.00">bms&#45;slave_cfg.h</text>
</a>
</g>
</g>
<!-- Node2&#45;&gt;Node8 -->
<g id="edge9_Node000002_Node000008" class="edge">
<title>Node2&#45;&gt;Node8</title>
<g id="a_edge9_Node000002_Node000008"><a xlink:title=" ">
<path fill="none" stroke="#63b8ff" d="M313.72,-219.75C309.29,-212.42 302.84,-201.73 297.38,-192.7"/>
<polygon fill="#63b8ff" stroke="#63b8ff" points="300.35,-190.84 292.19,-184.09 294.36,-194.46 300.35,-190.84"/>
</a>
</g>
</g>
<!-- Node3&#45;&gt;Node4 -->
<g id="edge3_Node000003_Node000004" class="edge">
<title>Node3&#45;&gt;Node4</title>
<g id="a_edge3_Node000003_Node000004"><a xlink:title=" ">
<path fill="none" stroke="#63b8ff" d="M294.63,-109.98C282.91,-101.92 265.08,-89.65 251.11,-80.03"/>
<polygon fill="#63b8ff" stroke="#63b8ff" points="252.82,-76.96 242.6,-74.17 248.85,-82.72 252.82,-76.96"/>
</a>
</g>
</g>
<!-- Node3&#45;&gt;Node5 -->
<g id="edge7_Node000003_Node000005" class="edge">
<title>Node3&#45;&gt;Node5</title>
<g id="a_edge7_Node000003_Node000005"><a xlink:title=" ">
<path fill="none" stroke="#63b8ff" d="M308.55,-109.66C311.63,-92.17 318.56,-52.8 322.7,-29.27"/>
<polygon fill="#63b8ff" stroke="#63b8ff" points="326.19,-29.61 324.48,-19.16 319.3,-28.4 326.19,-29.61"/>
</a>
</g>
</g>
<!-- Node3&#45;&gt;Node6 -->
<g id="edge8_Node000003_Node000006" class="edge">
<title>Node3&#45;&gt;Node6</title>
<g id="a_edge8_Node000003_Node000006"><a xlink:title=" ">
<path fill="none" stroke="#63b8ff" d="M303.97,-109.87C298.81,-96.36 287.1,-70.21 269,-55 246.07,-35.73 213.88,-24.27 189.23,-17.82"/>
<polygon fill="#63b8ff" stroke="#63b8ff" points="190.06,-14.42 179.51,-15.43 188.39,-21.22 190.06,-14.42"/>
</a>
</g>
</g>
<!-- Node7 -->
<g id="Node000007" class="node">
<title>Node7</title>
<g id="a_Node000007"><a xlink:href="fstd__types_8h.html" target="_top" xlink:title="Definition of foxBMS standard types.">
<polygon fill="white" stroke="#666666" points="507.5,-74 430.5,-74 430.5,-55 507.5,-55 507.5,-74"/>
<text text-anchor="middle" x="469" y="-62" font-family="Helvetica,sans-Serif" font-size="10.00">fstd_types.h</text>
</a>
</g>
</g>
<!-- Node3&#45;&gt;Node7 -->
<g id="edge6_Node000003_Node000007" class="edge">
<title>Node3&#45;&gt;Node7</title>
<g id="a_edge6_Node000003_Node000007"><a xlink:title=" ">
<path fill="none" stroke="#63b8ff" d="M333.03,-109.98C360.11,-101.13 402.71,-87.19 433.01,-77.28"/>
<polygon fill="#63b8ff" stroke="#63b8ff" points="434.35,-80.52 442.77,-74.08 432.18,-73.87 434.35,-80.52"/>
</a>
</g>
</g>
<!-- Node4&#45;&gt;Node5 -->
<g id="edge4_Node000004_Node000005" class="edge">
<title>Node4&#45;&gt;Node5</title>
<g id="a_edge4_Node000004_Node000005"><a xlink:title=" ">
<path fill="none" stroke="#63b8ff" d="M245.42,-54.98C260.45,-46.69 283.54,-33.94 301.16,-24.22"/>
<polygon fill="#63b8ff" stroke="#63b8ff" points="303.23,-27.07 310.3,-19.17 299.85,-20.94 303.23,-27.07"/>
</a>
</g>
</g>
<!-- Node4&#45;&gt;Node6 -->
<g id="edge5_Node000004_Node000006" class="edge">
<title>Node4&#45;&gt;Node6</title>
<g id="a_edge5_Node000004_Node000006"><a xlink:title=" ">
<path fill="none" stroke="#63b8ff" d="M217.63,-54.98C205.91,-46.92 188.08,-34.65 174.11,-25.03"/>
<polygon fill="#63b8ff" stroke="#63b8ff" points="175.82,-21.96 165.6,-19.17 171.85,-27.72 175.82,-21.96"/>
</a>
</g>
</g>
<!-- Node8&#45;&gt;Node3 -->
<g id="edge10_Node000008_Node000003" class="edge">
<title>Node8&#45;&gt;Node3</title>
<g id="a_edge10_Node000008_Node000003"><a xlink:title=" ">
<path fill="none" stroke="#63b8ff" d="M290.3,-164.75C292.98,-157.65 296.85,-147.4 300.19,-138.56"/>
<polygon fill="#63b8ff" stroke="#63b8ff" points="303.5,-139.68 303.76,-129.09 296.95,-137.21 303.5,-139.68"/>
</a>
</g>
</g>
<!-- Node9&#45;&gt;Node6 -->
<g id="edge21_Node000009_Node000006" class="edge">
<title>Node9&#45;&gt;Node6</title>
<g id="a_edge21_Node000009_Node000006"><a xlink:title=" ">
<path fill="none" stroke="#63b8ff" d="M229.18,-329.73C227.19,-309.89 221.4,-260.14 210,-220 191.14,-153.59 168.88,-142 157,-74 154.41,-59.17 153.44,-42.13 153.11,-29.44"/>
<polygon fill="#63b8ff" stroke="#63b8ff" points="156.6,-29.14 152.95,-19.2 149.6,-29.25 156.6,-29.14"/>
</a>
</g>
</g>
<!-- Node9&#45;&gt;Node7 -->
<g id="edge20_Node000009_Node000007" class="edge">
<title>Node9&#45;&gt;Node7</title>
<g id="a_edge20_Node000009_Node000007"><a xlink:title=" ">
<path fill="none" stroke="#63b8ff" d="M250.14,-337.47C302.7,-333.6 440,-315.36 440,-230.5 440,-230.5 440,-230.5 440,-173.5 440,-140.95 452.44,-104.71 461.03,-83.57"/>
<polygon fill="#63b8ff" stroke="#63b8ff" points="464.3,-84.82 464.97,-74.25 457.85,-82.09 464.3,-84.82"/>
</a>
</g>
</g>
<!-- Node10 -->
<g id="Node000010" class="node">
<title>Node10</title>
<g id="a_Node000010"><a xlink:href="spi__cfg_8h.html" target="_top" xlink:title="Headers for the configuration for the SPI module.">
<polygon fill="white" stroke="#666666" points="202,-294 142,-294 142,-275 202,-275 202,-294"/>
<text text-anchor="middle" x="172" y="-282" font-family="Helvetica,sans-Serif" font-size="10.00">spi_cfg.h</text>
</a>
</g>
</g>
<!-- Node9&#45;&gt;Node10 -->
<g id="edge15_Node000009_Node000010" class="edge">
<title>Node9&#45;&gt;Node10</title>
<g id="a_edge15_Node000009_Node000010"><a xlink:title=" ">
<path fill="none" stroke="#63b8ff" d="M220.68,-329.98C212.19,-322.23 199.44,-310.58 189.12,-301.14"/>
<polygon fill="#63b8ff" stroke="#63b8ff" points="191.23,-298.33 181.49,-294.17 186.51,-303.5 191.23,-298.33"/>
</a>
</g>
</g>
<!-- Node10&#45;&gt;Node2 -->
<g id="edge16_Node000010_Node000002" class="edge">
<title>Node10&#45;&gt;Node2</title>
<g id="a_edge16_Node000010_Node000002"><a xlink:title=" ">
<path fill="none" stroke="#63b8ff" d="M195.62,-274.98C219.9,-266.23 257.95,-252.51 285.37,-242.62"/>
<polygon fill="#63b8ff" stroke="#63b8ff" points="286.73,-245.85 294.95,-239.17 284.36,-239.27 286.73,-245.85"/>
</a>
</g>
</g>
<!-- Node10&#45;&gt;Node6 -->
<g id="edge19_Node000010_Node000006" class="edge">
<title>Node10&#45;&gt;Node6</title>
<g id="a_edge19_Node000010_Node000006"><a xlink:title=" ">
<path fill="none" stroke="#63b8ff" d="M141.93,-279.37C115.97,-274.25 79.23,-263.05 57,-239 37,-217.37 38,-204.96 38,-175.5 38,-175.5 38,-175.5 38,-118.5 38,-72.06 88.45,-39.76 122.52,-23.24"/>
<polygon fill="#63b8ff" stroke="#63b8ff" points="124.05,-26.39 131.64,-19 121.1,-20.04 124.05,-26.39"/>
</a>
</g>
</g>
<!-- Node11 -->
<g id="Node000011" class="node">
<title>Node11</title>
<g id="a_Node000011"><a xlink:title=" ">
<polygon fill="#e0e0e0" stroke="#999999" points="201.5,-239 142.5,-239 142.5,-220 201.5,-220 201.5,-239"/>
<text text-anchor="middle" x="172" y="-227" font-family="Helvetica,sans-Serif" font-size="10.00">HL_het.h</text>
</a>
</g>
</g>
<!-- Node10&#45;&gt;Node11 -->
<g id="edge17_Node000010_Node000011" class="edge">
<title>Node10&#45;&gt;Node11</title>
<g id="a_edge17_Node000010_Node000011"><a xlink:title=" ">
<path fill="none" stroke="#63b8ff" d="M172,-274.75C172,-267.8 172,-257.85 172,-249.13"/>
<polygon fill="#63b8ff" stroke="#63b8ff" points="175.5,-249.09 172,-239.09 168.5,-249.09 175.5,-249.09"/>
</a>
</g>
</g>
<!-- Node12 -->
<g id="Node000012" class="node">
<title>Node12</title>
<g id="a_Node000012"><a xlink:title=" ">
<polygon fill="#e0e0e0" stroke="#999999" points="124,-239 66,-239 66,-220 124,-220 124,-239"/>
<text text-anchor="middle" x="95" y="-227" font-family="Helvetica,sans-Serif" font-size="10.00">HL_spi.h</text>
</a>
</g>
</g>
<!-- Node10&#45;&gt;Node12 -->
<g id="edge18_Node000010_Node000012" class="edge">
<title>Node10&#45;&gt;Node12</title>
<g id="a_edge18_Node000010_Node000012"><a xlink:title=" ">
<path fill="none" stroke="#63b8ff" d="M159.63,-274.98C147.91,-266.92 130.08,-254.65 116.11,-245.03"/>
<polygon fill="#63b8ff" stroke="#63b8ff" points="117.82,-241.96 107.6,-239.17 113.85,-247.72 117.82,-241.96"/>
</a>
</g>
</g>
</g>
</svg>

<g id="navigator" transform="translate(0 0)" fill="#404254">
  <rect fill="#f2f5e9" fill-opacity="0.5" stroke="#606060" stroke-width=".5" x="0" y="0" width="60" height="60"/>
  <use id="zoomplus" xlink:href="#zoomPlus" x="17" y="9" onmousedown="handleZoom(evt,'in')"/>
  <use id="zoomminus" xlink:href="#zoomMin" x="42" y="9" onmousedown="handleZoom(evt,'out')"/>
  <use id="reset" xlink:href="#resetDef" x="30" y="36" onmousedown="handleReset()"/>
   <use id="arrowup" xlink:href="#arrowUp" x="0" y="0" onmousedown="handlePan(0,-1)"/>
  <use id="arrowright" xlink:href="#arrowRight" x="0" y="0" onmousedown="handlePan(1,0)"/>
  <use id="arrowdown" xlink:href="#arrowDown" x="0" y="0" onmousedown="handlePan(0,1)"/>
  <use id="arrowleft" xlink:href="#arrowLeft" x="0" y="0" onmousedown="handlePan(-1,0)"/>
</g>
<svg viewBox="0 0 15 15" width="100%" height="30px" preserveAspectRatio="xMaxYMin meet">
 <g id="arrow_out" transform="scale(0.3 0.3)">
  <a xlink:href="nxp__mc33775a__cfg_8h__incl_org.svg" target="_base">
   <rect id="button" ry="5" rx="5" y="6" x="6" height="38" width="38"
        fill="#f2f5e9" fill-opacity="0.5" stroke="#606060" stroke-width="1.0"/>
   <path id="arrow"
     d="M 11.500037,31.436501 C 11.940474,20.09759 22.043105,11.32322 32.158766,21.979434 L 37.068811,17.246167 C 37.068811,17.246167 37.088388,32 37.088388,32 L 22.160133,31.978069 C 22.160133,31.978069 26.997745,27.140456 26.997745,27.140456 C 18.528582,18.264221 13.291696,25.230495 11.500037,31.436501 z"
     style="fill:#404040;"/>
  </a>
 </g>
</svg>

<style type='text/css'>
<![CDATA[
[data-mouse-over-selected='false'] { opacity: 0.7; }
[data-mouse-over-selected='true']  { opacity: 1.0; }
]]>
</style>
<script type="application/ecmascript"><![CDATA[
document.addEventListener('DOMContentLoaded', (event) => {
  highlightEdges();
  highlightAdjacentNodes();
});
]]></script>
</svg>
