<?xml version="1.0" encoding="UTF-8" standalone="no"?>
<!DOCTYPE svg PUBLIC "-//W3C//DTD SVG 1.1//EN"
 "http://www.w3.org/Graphics/SVG/1.1/DTD/svg11.dtd">
<!-- Generated by graphviz version 2.43.0 (0)
 -->
<!-- Title: FS85_ClearRegisterFlags Pages: 1 -->
<svg width="1147pt" height="230pt"
 viewBox="0.00 0.00 1147.00 230.00" xmlns="http://www.w3.org/2000/svg" xmlns:xlink="http://www.w3.org/1999/xlink">
<g id="graph0" class="graph" transform="scale(1 1) rotate(0) translate(4 226)">
<title>FS85_ClearRegisterFlags</title>
<!-- Node1 -->
<g id="Node000001" class="node">
<title>Node1</title>
<g id="a_Node000001"><a xlink:title="Clears flags in register.">
<polygon fill="#999999" stroke="#666666" points="137,-167 0,-167 0,-148 137,-148 137,-167"/>
<text text-anchor="middle" x="68.5" y="-155" font-family="Helvetica,sans-Serif" font-size="10.00">FS85_ClearRegisterFlags</text>
</a>
</g>
</g>
<!-- Node2 -->
<g id="Node000002" class="node">
<title>Node2</title>
<g id="a_Node000002"><a xlink:href="nxpfs85xx_8c.html#a75349ceb416c52af358f0a9bd8e8d937" target="_top" xlink:title="Updates register values.">
<polygon fill="white" stroke="#666666" points="294,-204 173,-204 173,-185 294,-185 294,-204"/>
<text text-anchor="middle" x="233.5" y="-192" font-family="Helvetica,sans-Serif" font-size="10.00">FS85_UpdateRegister</text>
</a>
</g>
</g>
<!-- Node1&#45;&gt;Node2 -->
<g id="edge1_Node000001_Node000002" class="edge">
<title>Node1&#45;&gt;Node2</title>
<g id="a_edge1_Node000001_Node000002"><a xlink:title=" ">
<path fill="none" stroke="#63b8ff" d="M111.48,-167.03C132.5,-171.8 158.15,-177.62 180.42,-182.68"/>
<polygon fill="#63b8ff" stroke="#63b8ff" points="179.86,-186.14 190.38,-184.94 181.41,-179.31 179.86,-186.14"/>
</a>
</g>
</g>
<!-- Node5 -->
<g id="Node000005" class="node">
<title>Node5</title>
<g id="a_Node000005"><a xlink:href="group__API.html#gab8787e2ae04f3f2810ca95df41b69190" target="_top" xlink:title="Performs a read from a single FS8x register.">
<polygon fill="white" stroke="#666666" points="288.5,-130 178.5,-130 178.5,-111 288.5,-111 288.5,-130"/>
<text text-anchor="middle" x="233.5" y="-118" font-family="Helvetica,sans-Serif" font-size="10.00">FS8x_ReadRegister</text>
</a>
</g>
</g>
<!-- Node1&#45;&gt;Node5 -->
<g id="edge4_Node000001_Node000005" class="edge">
<title>Node1&#45;&gt;Node5</title>
<g id="a_edge4_Node000001_Node000005"><a xlink:title=" ">
<path fill="none" stroke="#63b8ff" d="M111.48,-147.97C132.5,-143.2 158.15,-137.38 180.42,-132.32"/>
<polygon fill="#63b8ff" stroke="#63b8ff" points="181.41,-135.69 190.38,-130.06 179.86,-128.86 181.41,-135.69"/>
</a>
</g>
</g>
<!-- Node19 -->
<g id="Node000019" class="node">
<title>Node19</title>
<g id="a_Node000019"><a xlink:href="group__API.html#ga45774357f5c85905d3b03812c03a0eb4" target="_top" xlink:title="Sends write command to the FS8x.">
<polygon fill="white" stroke="#666666" points="289.5,-167 177.5,-167 177.5,-148 289.5,-148 289.5,-167"/>
<text text-anchor="middle" x="233.5" y="-155" font-family="Helvetica,sans-Serif" font-size="10.00">FS8x_WriteRegister</text>
</a>
</g>
</g>
<!-- Node1&#45;&gt;Node19 -->
<g id="edge21_Node000001_Node000019" class="edge">
<title>Node1&#45;&gt;Node19</title>
<g id="a_edge21_Node000001_Node000019"><a xlink:title=" ">
<path fill="none" stroke="#63b8ff" d="M137.21,-157.5C147.14,-157.5 157.36,-157.5 167.24,-157.5"/>
<polygon fill="#63b8ff" stroke="#63b8ff" points="167.39,-161 177.39,-157.5 167.39,-154 167.39,-161"/>
</a>
</g>
</g>
<!-- Node3 -->
<g id="Node000003" class="node">
<title>Node3</title>
<g id="a_Node000003"><a xlink:href="nxpfs85xx_8c.html#a8759d334b18e7749c530cb4d232eb96f" target="_top" xlink:title="Updates fail safe register values.">
<polygon fill="white" stroke="#666666" points="489,-185 330,-185 330,-166 489,-166 489,-185"/>
<text text-anchor="middle" x="409.5" y="-173" font-family="Helvetica,sans-Serif" font-size="10.00">FS85_UpdateFailSafeRegister</text>
</a>
</g>
</g>
<!-- Node2&#45;&gt;Node3 -->
<g id="edge2_Node000002_Node000003" class="edge">
<title>Node2&#45;&gt;Node3</title>
<g id="a_edge2_Node000002_Node000003"><a xlink:title=" ">
<path fill="none" stroke="#63b8ff" d="M294.38,-187.96C302.58,-187.07 311.13,-186.13 319.71,-185.2"/>
<polygon fill="#63b8ff" stroke="#63b8ff" points="320.2,-188.66 329.76,-184.1 319.44,-181.7 320.2,-188.66"/>
</a>
</g>
</g>
<!-- Node4 -->
<g id="Node000004" class="node">
<title>Node4</title>
<g id="a_Node000004"><a xlink:href="nxpfs85xx_8c.html#aa27fc31f497232269b3c8c585732c0ec" target="_top" xlink:title="Updates main register values.">
<polygon fill="white" stroke="#666666" points="482,-222 337,-222 337,-203 482,-203 482,-222"/>
<text text-anchor="middle" x="409.5" y="-210" font-family="Helvetica,sans-Serif" font-size="10.00">FS85_UpdateMainRegister</text>
</a>
</g>
</g>
<!-- Node2&#45;&gt;Node4 -->
<g id="edge3_Node000002_Node000004" class="edge">
<title>Node2&#45;&gt;Node4</title>
<g id="a_edge3_Node000002_Node000004"><a xlink:title=" ">
<path fill="none" stroke="#63b8ff" d="M294.38,-200.69C304.84,-201.78 315.89,-202.92 326.82,-204.05"/>
<polygon fill="#63b8ff" stroke="#63b8ff" points="326.5,-207.54 336.8,-205.08 327.22,-200.57 326.5,-207.54"/>
</a>
</g>
</g>
<!-- Node6 -->
<g id="Node000006" class="node">
<title>Node6</title>
<g id="a_Node000006"><a xlink:href="sbc__fs8x__communication_8c.html#adab1bd280fc620a6cd8c881dbc3773ff" target="_top" xlink:title="Performs SPI transfer of the txData. Received frame is saved into rxData structure.">
<polygon fill="white" stroke="#666666" points="473.5,-130 345.5,-130 345.5,-111 473.5,-111 473.5,-130"/>
<text text-anchor="middle" x="409.5" y="-118" font-family="Helvetica,sans-Serif" font-size="10.00">FS8x_SPI_TransferData</text>
</a>
</g>
</g>
<!-- Node5&#45;&gt;Node6 -->
<g id="edge5_Node000005_Node000006" class="edge">
<title>Node5&#45;&gt;Node6</title>
<g id="a_edge5_Node000005_Node000006"><a xlink:title=" ">
<path fill="none" stroke="#63b8ff" d="M288.6,-120.5C303.33,-120.5 319.54,-120.5 335.14,-120.5"/>
<polygon fill="#63b8ff" stroke="#63b8ff" points="335.29,-124 345.29,-120.5 335.29,-117 335.29,-124"/>
</a>
</g>
</g>
<!-- Node7 -->
<g id="Node000007" class="node">
<title>Node7</title>
<g id="a_Node000007"><a xlink:href="sbc__fs8x__communication_8c.html#a80544b95c576332d48a6f882957018d8" target="_top" xlink:title="Performs CRC check of the data array.">
<polygon fill="white" stroke="#666666" points="648.5,-130 553.5,-130 553.5,-111 648.5,-111 648.5,-130"/>
<text text-anchor="middle" x="601" y="-118" font-family="Helvetica,sans-Serif" font-size="10.00">FS8x_CheckCRC</text>
</a>
</g>
</g>
<!-- Node6&#45;&gt;Node7 -->
<g id="edge6_Node000006_Node000007" class="edge">
<title>Node6&#45;&gt;Node7</title>
<g id="a_edge6_Node000006_Node000007"><a xlink:title=" ">
<path fill="none" stroke="#63b8ff" d="M473.6,-120.5C496.09,-120.5 521.28,-120.5 543.21,-120.5"/>
<polygon fill="#63b8ff" stroke="#63b8ff" points="543.36,-124 553.36,-120.5 543.36,-117 543.36,-124"/>
</a>
</g>
</g>
<!-- Node9 -->
<g id="Node000009" class="node">
<title>Node9</title>
<g id="a_Node000009"><a xlink:href="sbc__fs8x__communication_8c.html#ae5b596457c82d4c45e811ad4c404b312" target="_top" xlink:title="Creates a raw frame for SPI transfer.">
<polygon fill="white" stroke="#666666" points="677,-167 525,-167 525,-148 677,-148 677,-167"/>
<text text-anchor="middle" x="601" y="-155" font-family="Helvetica,sans-Serif" font-size="10.00">FS8x_SPI_CreateSendFrame</text>
</a>
</g>
</g>
<!-- Node6&#45;&gt;Node9 -->
<g id="edge8_Node000006_Node000009" class="edge">
<title>Node6&#45;&gt;Node9</title>
<g id="a_edge8_Node000006_Node000009"><a xlink:title=" ">
<path fill="none" stroke="#63b8ff" d="M459.3,-130.03C484.29,-134.91 514.91,-140.89 541.19,-146.02"/>
<polygon fill="#63b8ff" stroke="#63b8ff" points="540.55,-149.46 551.04,-147.94 541.89,-142.59 540.55,-149.46"/>
</a>
</g>
</g>
<!-- Node10 -->
<g id="Node000010" class="node">
<title>Node10</title>
<g id="a_Node000010"><a xlink:href="group__Extern.html#ga1b7c11ee24b9fe8c8e104ae40a350e26" target="_top" xlink:title="This function transfers single frame through blocking SPI communication in both directions....">
<polygon fill="white" stroke="#666666" points="665,-93 537,-93 537,-74 665,-74 665,-93"/>
<text text-anchor="middle" x="601" y="-81" font-family="Helvetica,sans-Serif" font-size="10.00">MCU_SPI_TransferData</text>
</a>
</g>
</g>
<!-- Node6&#45;&gt;Node10 -->
<g id="edge10_Node000006_Node000010" class="edge">
<title>Node6&#45;&gt;Node10</title>
<g id="a_edge10_Node000006_Node000010"><a xlink:title=" ">
<path fill="none" stroke="#63b8ff" d="M459.3,-110.97C484.29,-106.09 514.91,-100.11 541.19,-94.98"/>
<polygon fill="#63b8ff" stroke="#63b8ff" points="541.89,-98.41 551.04,-93.06 540.55,-91.54 541.89,-98.41"/>
</a>
</g>
</g>
<!-- Node8 -->
<g id="Node000008" class="node">
<title>Node8</title>
<g id="a_Node000008"><a xlink:href="sbc__fs8x__communication_8c.html#a87db6e52e5d345e7ae7be0606196c27d" target="_top" xlink:title="This function calculates CRC value of passed data array. Takes bytes in inverted order due to frame f...">
<polygon fill="white" stroke="#666666" points="826.5,-148 740.5,-148 740.5,-129 826.5,-129 826.5,-148"/>
<text text-anchor="middle" x="783.5" y="-136" font-family="Helvetica,sans-Serif" font-size="10.00">FS8x_CalcCRC</text>
</a>
</g>
</g>
<!-- Node7&#45;&gt;Node8 -->
<g id="edge7_Node000007_Node000008" class="edge">
<title>Node7&#45;&gt;Node8</title>
<g id="a_edge7_Node000007_Node000008"><a xlink:title=" ">
<path fill="none" stroke="#63b8ff" d="M648.95,-125.18C673.83,-127.66 704.47,-130.72 730.11,-133.28"/>
<polygon fill="#63b8ff" stroke="#63b8ff" points="730.11,-136.79 740.4,-134.3 730.8,-129.83 730.11,-136.79"/>
</a>
</g>
</g>
<!-- Node9&#45;&gt;Node8 -->
<g id="edge9_Node000009_Node000008" class="edge">
<title>Node9&#45;&gt;Node8</title>
<g id="a_edge9_Node000009_Node000008"><a xlink:title=" ">
<path fill="none" stroke="#63b8ff" d="M677.24,-149.58C695.11,-147.7 713.78,-145.73 730.35,-143.99"/>
<polygon fill="#63b8ff" stroke="#63b8ff" points="730.79,-147.46 740.37,-142.93 730.06,-140.5 730.79,-147.46"/>
</a>
</g>
</g>
<!-- Node11 -->
<g id="Node000011" class="node">
<title>Node11</title>
<g id="a_Node000011"><a xlink:href="spi_8c.html#ac84bc8424de860e2cd89fea2e89dd89a" target="_top" xlink:title="Transmits and receives data on SPI without DMA.">
<polygon fill="white" stroke="#666666" points="854,-93 713,-93 713,-74 854,-74 854,-93"/>
<text text-anchor="middle" x="783.5" y="-81" font-family="Helvetica,sans-Serif" font-size="10.00">SPI_TransmitReceiveData</text>
</a>
</g>
</g>
<!-- Node10&#45;&gt;Node11 -->
<g id="edge11_Node000010_Node000011" class="edge">
<title>Node10&#45;&gt;Node11</title>
<g id="a_edge11_Node000010_Node000011"><a xlink:title=" ">
<path fill="none" stroke="#63b8ff" d="M665.13,-83.5C677.32,-83.5 690.24,-83.5 702.88,-83.5"/>
<polygon fill="#63b8ff" stroke="#63b8ff" points="702.94,-87 712.94,-83.5 702.94,-80 702.94,-87"/>
</a>
</g>
</g>
<!-- Node12 -->
<g id="Node000012" class="node">
<title>Node12</title>
<g id="a_Node000012"><a xlink:href="io_8c.html#a9a2db1f5acc298fe408a8af231de55ad" target="_top" xlink:title="Reset pin by writing in pin output register.">
<polygon fill="white" stroke="#666666" points="975.5,-167 900.5,-167 900.5,-148 975.5,-148 975.5,-167"/>
<text text-anchor="middle" x="938" y="-155" font-family="Helvetica,sans-Serif" font-size="10.00">IO_PinReset</text>
</a>
</g>
</g>
<!-- Node11&#45;&gt;Node12 -->
<g id="edge12_Node000011_Node000012" class="edge">
<title>Node11&#45;&gt;Node12</title>
<g id="a_edge12_Node000011_Node000012"><a xlink:title=" ">
<path fill="none" stroke="#63b8ff" d="M803.46,-93.13C817.47,-100.3 837,-110.38 854,-119.5 870.13,-128.15 873.41,-131.76 890,-139.5 893.37,-141.07 896.91,-142.61 900.48,-144.1"/>
<polygon fill="#63b8ff" stroke="#63b8ff" points="899.3,-147.4 909.88,-147.86 901.9,-140.9 899.3,-147.4"/>
</a>
</g>
</g>
<!-- Node13 -->
<g id="Node000013" class="node">
<title>Node13</title>
<g id="a_Node000013"><a xlink:href="io_8c.html#a7bfc1c1b5a7779778a23ad040043a169" target="_top" xlink:title="Set pin by writing in pin output register.">
<polygon fill="white" stroke="#666666" points="969.5,-130 906.5,-130 906.5,-111 969.5,-111 969.5,-130"/>
<text text-anchor="middle" x="938" y="-118" font-family="Helvetica,sans-Serif" font-size="10.00">IO_PinSet</text>
</a>
</g>
</g>
<!-- Node11&#45;&gt;Node13 -->
<g id="edge13_Node000011_Node000013" class="edge">
<title>Node11&#45;&gt;Node13</title>
<g id="a_edge13_Node000011_Node000013"><a xlink:title=" ">
<path fill="none" stroke="#63b8ff" d="M823.77,-93.03C845.97,-98.41 873.67,-105.14 896.13,-110.58"/>
<polygon fill="#63b8ff" stroke="#63b8ff" points="895.49,-114.03 906.03,-112.99 897.14,-107.23 895.49,-114.03"/>
</a>
</g>
</g>
<!-- Node14 -->
<g id="Node000014" class="node">
<title>Node14</title>
<g id="a_Node000014"><a xlink:href="spi_8c.html#ad14e64eda89eab297290fc3c0b030be6" target="_top" xlink:title="Returns index of SPI node.">
<polygon fill="white" stroke="#666666" points="986,-93 890,-93 890,-74 986,-74 986,-93"/>
<text text-anchor="middle" x="938" y="-81" font-family="Helvetica,sans-Serif" font-size="10.00">SPI_GetSpiIndex</text>
</a>
</g>
</g>
<!-- Node11&#45;&gt;Node14 -->
<g id="edge14_Node000011_Node000014" class="edge">
<title>Node11&#45;&gt;Node14</title>
<g id="a_edge14_Node000011_Node000014"><a xlink:title=" ">
<path fill="none" stroke="#63b8ff" d="M854.06,-83.5C862.66,-83.5 871.37,-83.5 879.76,-83.5"/>
<polygon fill="#63b8ff" stroke="#63b8ff" points="879.8,-87 889.8,-83.5 879.8,-80 879.8,-87"/>
</a>
</g>
</g>
<!-- Node15 -->
<g id="Node000015" class="node">
<title>Node15</title>
<g id="a_Node000015"><a xlink:href="spi_8c.html#a87efe82f0f460cf54b53405c4891c1cd" target="_top" xlink:title="Locks SPI interfaces.">
<polygon fill="white" stroke="#666666" points="967.5,-19 908.5,-19 908.5,0 967.5,0 967.5,-19"/>
<text text-anchor="middle" x="938" y="-7" font-family="Helvetica,sans-Serif" font-size="10.00">SPI_Lock</text>
</a>
</g>
</g>
<!-- Node11&#45;&gt;Node15 -->
<g id="edge15_Node000011_Node000015" class="edge">
<title>Node11&#45;&gt;Node15</title>
<g id="a_edge15_Node000011_Node000015"><a xlink:title=" ">
<path fill="none" stroke="#63b8ff" d="M800.99,-73.93C821.49,-62.24 857.72,-42.18 890,-27.5 893.57,-25.88 897.33,-24.27 901.1,-22.73"/>
<polygon fill="#63b8ff" stroke="#63b8ff" points="902.41,-25.97 910.42,-19.03 899.83,-19.46 902.41,-25.97"/>
</a>
</g>
</g>
<!-- Node18 -->
<g id="Node000018" class="node">
<title>Node18</title>
<g id="a_Node000018"><a xlink:href="spi_8c.html#aa17e9150e0bdf244755f0165aa11154b" target="_top" xlink:title="Unlocks SPI interfaces.">
<polygon fill="white" stroke="#666666" points="973.5,-56 902.5,-56 902.5,-37 973.5,-37 973.5,-56"/>
<text text-anchor="middle" x="938" y="-44" font-family="Helvetica,sans-Serif" font-size="10.00">SPI_Unlock</text>
</a>
</g>
</g>
<!-- Node11&#45;&gt;Node18 -->
<g id="edge18_Node000011_Node000018" class="edge">
<title>Node11&#45;&gt;Node18</title>
<g id="a_edge18_Node000011_Node000018"><a xlink:title=" ">
<path fill="none" stroke="#63b8ff" d="M823.77,-73.97C844.72,-68.89 870.59,-62.61 892.31,-57.34"/>
<polygon fill="#63b8ff" stroke="#63b8ff" points="893.38,-60.68 902.28,-54.92 891.73,-53.88 893.38,-60.68"/>
</a>
</g>
</g>
<!-- Node16 -->
<g id="Node000016" class="node">
<title>Node16</title>
<g id="a_Node000016"><a xlink:href="os__freertos_8c.html#ab8517d65da4e4805a64eda3fbec933de" target="_top" xlink:title="Enter Critical interface function for use in FreeRTOS&#45;Tasks and FreeRTOS&#45;ISR.">
<polygon fill="white" stroke="#666666" points="1139,-56 1022,-56 1022,-37 1139,-37 1139,-56"/>
<text text-anchor="middle" x="1080.5" y="-44" font-family="Helvetica,sans-Serif" font-size="10.00">OS_EnterTaskCritical</text>
</a>
</g>
</g>
<!-- Node15&#45;&gt;Node16 -->
<g id="edge16_Node000015_Node000016" class="edge">
<title>Node15&#45;&gt;Node16</title>
<g id="a_edge16_Node000015_Node000016"><a xlink:title=" ">
<path fill="none" stroke="#63b8ff" d="M967.77,-17.08C986.71,-22.06 1011.91,-28.7 1033.59,-34.41"/>
<polygon fill="#63b8ff" stroke="#63b8ff" points="1032.7,-37.79 1043.26,-36.96 1034.48,-31.03 1032.7,-37.79"/>
</a>
</g>
</g>
<!-- Node17 -->
<g id="Node000017" class="node">
<title>Node17</title>
<g id="a_Node000017"><a xlink:href="os__freertos_8c.html#a83489428a970d8f77f122f41f4b6bc0a" target="_top" xlink:title="Exit Critical interface function for use in FreeRTOS&#45;Tasks and FreeRTOS&#45;ISR.">
<polygon fill="white" stroke="#666666" points="1135.5,-19 1025.5,-19 1025.5,0 1135.5,0 1135.5,-19"/>
<text text-anchor="middle" x="1080.5" y="-7" font-family="Helvetica,sans-Serif" font-size="10.00">OS_ExitTaskCritical</text>
</a>
</g>
</g>
<!-- Node15&#45;&gt;Node17 -->
<g id="edge17_Node000015_Node000017" class="edge">
<title>Node15&#45;&gt;Node17</title>
<g id="a_edge17_Node000015_Node000017"><a xlink:title=" ">
<path fill="none" stroke="#63b8ff" d="M967.77,-9.5C981.53,-9.5 998.6,-9.5 1015.23,-9.5"/>
<polygon fill="#63b8ff" stroke="#63b8ff" points="1015.48,-13 1025.48,-9.5 1015.48,-6 1015.48,-13"/>
</a>
</g>
</g>
<!-- Node18&#45;&gt;Node16 -->
<g id="edge19_Node000018_Node000016" class="edge">
<title>Node18&#45;&gt;Node16</title>
<g id="a_edge19_Node000018_Node000016"><a xlink:title=" ">
<path fill="none" stroke="#63b8ff" d="M973.73,-46.5C985.32,-46.5 998.66,-46.5 1011.88,-46.5"/>
<polygon fill="#63b8ff" stroke="#63b8ff" points="1011.93,-50 1021.93,-46.5 1011.93,-43 1011.93,-50"/>
</a>
</g>
</g>
<!-- Node18&#45;&gt;Node17 -->
<g id="edge20_Node000018_Node000017" class="edge">
<title>Node18&#45;&gt;Node17</title>
<g id="a_edge20_Node000018_Node000017"><a xlink:title=" ">
<path fill="none" stroke="#63b8ff" d="M973.73,-37.35C991.72,-32.62 1013.93,-26.77 1033.35,-21.65"/>
<polygon fill="#63b8ff" stroke="#63b8ff" points="1034.43,-24.99 1043.21,-19.06 1032.65,-18.22 1034.43,-24.99"/>
</a>
</g>
</g>
<!-- Node19&#45;&gt;Node6 -->
<g id="edge22_Node000019_Node000006" class="edge">
<title>Node19&#45;&gt;Node6</title>
<g id="a_edge22_Node000019_Node000006"><a xlink:title=" ">
<path fill="none" stroke="#63b8ff" d="M279.31,-147.97C301.95,-143.16 329.63,-137.27 353.55,-132.19"/>
<polygon fill="#63b8ff" stroke="#63b8ff" points="354.49,-135.56 363.54,-130.06 353.03,-128.72 354.49,-135.56"/>
</a>
</g>
</g>
</g>
</svg>
