<?xml version="1.0" encoding="UTF-8" standalone="no"?>
<!DOCTYPE svg PUBLIC "-//W3C//DTD SVG 1.1//EN"
 "http://www.w3.org/Graphics/SVG/1.1/DTD/svg11.dtd">
<!-- Generated by graphviz version 2.43.0 (0)
 -->
<!-- Title: FS85_PerformPathCheckRstb Pages: 1 -->
<svg width="1349pt" height="27pt"
 viewBox="0.00 0.00 1349.00 27.00" xmlns="http://www.w3.org/2000/svg" xmlns:xlink="http://www.w3.org/1999/xlink">
<g id="graph0" class="graph" transform="scale(1 1) rotate(0) translate(4 23)">
<title>FS85_PerformPathCheckRstb</title>
<!-- Node1 -->
<g id="Node000001" class="node">
<title>Node1</title>
<g id="a_Node000001"><a xlink:title="Perform RSTB safety path check.">
<polygon fill="#999999" stroke="#666666" points="1341,-19 1184,-19 1184,0 1341,0 1341,-19"/>
<text text-anchor="middle" x="1262.5" y="-7" font-family="Helvetica,sans-Serif" font-size="10.00">FS85_PerformPathCheckRstb</text>
</a>
</g>
</g>
<!-- Node2 -->
<g id="Node000002" class="node">
<title>Node2</title>
<g id="a_Node000002"><a xlink:href="nxpfs85xx_8c.html#adbcda981b42a9a928aca6e027ec1dd50" target="_top" xlink:title="Performs SBC safety path checks.">
<polygon fill="white" stroke="#666666" points="1148,-19 1015,-19 1015,0 1148,0 1148,-19"/>
<text text-anchor="middle" x="1081.5" y="-7" font-family="Helvetica,sans-Serif" font-size="10.00">FS85_SafetyPathChecks</text>
</a>
</g>
</g>
<!-- Node1&#45;&gt;Node2 -->
<g id="edge1_Node000001_Node000002" class="edge">
<title>Node1&#45;&gt;Node2</title>
<g id="a_edge1_Node000001_Node000002"><a xlink:title=" ">
<path fill="none" stroke="#63b8ff" d="M1173.69,-9.5C1165.08,-9.5 1156.45,-9.5 1148.12,-9.5"/>
<polygon fill="#63b8ff" stroke="#63b8ff" points="1173.77,-13 1183.77,-9.5 1173.77,-6 1173.77,-13"/>
</a>
</g>
</g>
<!-- Node3 -->
<g id="Node000003" class="node">
<title>Node3</title>
<g id="a_Node000003"><a xlink:href="sbc_8c.html#a3e0fcadd5fce6da908a572116eea2b4c" target="_top" xlink:title="trigger function for the SYS driver state machine.">
<polygon fill="white" stroke="#666666" points="979,-19 905,-19 905,0 979,0 979,-19"/>
<text text-anchor="middle" x="942" y="-7" font-family="Helvetica,sans-Serif" font-size="10.00">SBC_Trigger</text>
</a>
</g>
</g>
<!-- Node2&#45;&gt;Node3 -->
<g id="edge2_Node000002_Node000003" class="edge">
<title>Node2&#45;&gt;Node3</title>
<g id="a_edge2_Node000002_Node000003"><a xlink:title=" ">
<path fill="none" stroke="#63b8ff" d="M1004.87,-9.5C995.96,-9.5 987.2,-9.5 979.21,-9.5"/>
<polygon fill="#63b8ff" stroke="#63b8ff" points="1004.97,-13 1014.97,-9.5 1004.97,-6 1004.97,-13"/>
</a>
</g>
</g>
<!-- Node4 -->
<g id="Node000004" class="node">
<title>Node4</title>
<g id="a_Node000004"><a xlink:href="ftask__cfg_8c.html#a7f3620825ec0f5072516255d6febebdb" target="_top" xlink:title="Cyclic 10 ms task.">
<polygon fill="white" stroke="#666666" points="869,-19 701,-19 701,0 869,0 869,-19"/>
<text text-anchor="middle" x="785" y="-7" font-family="Helvetica,sans-Serif" font-size="10.00">FTSK_RunUserCodeCyclic10ms</text>
</a>
</g>
</g>
<!-- Node3&#45;&gt;Node4 -->
<g id="edge3_Node000003_Node000004" class="edge">
<title>Node3&#45;&gt;Node4</title>
<g id="a_edge3_Node000003_Node000004"><a xlink:title=" ">
<path fill="none" stroke="#63b8ff" d="M894.47,-9.5C886.46,-9.5 877.91,-9.5 869.28,-9.5"/>
<polygon fill="#63b8ff" stroke="#63b8ff" points="894.66,-13 904.66,-9.5 894.66,-6 894.66,-13"/>
</a>
</g>
</g>
<!-- Node5 -->
<g id="Node000005" class="node">
<title>Node5</title>
<g id="a_Node000005"><a xlink:href="ftask_8c.html#a2a1d135e2e4e6fef538294d8c43d0328" target="_top" xlink:title="Creation of cyclic 10 ms task.">
<polygon fill="white" stroke="#666666" points="665,-19 509,-19 509,0 665,0 665,-19"/>
<text text-anchor="middle" x="587" y="-7" font-family="Helvetica,sans-Serif" font-size="10.00">FTSK_CreateTaskCyclic10ms</text>
</a>
</g>
</g>
<!-- Node4&#45;&gt;Node5 -->
<g id="edge4_Node000004_Node000005" class="edge">
<title>Node4&#45;&gt;Node5</title>
<g id="a_edge4_Node000004_Node000005"><a xlink:title=" ">
<path fill="none" stroke="#63b8ff" d="M690.79,-9.5C682.16,-9.5 673.48,-9.5 665.02,-9.5"/>
<polygon fill="#63b8ff" stroke="#63b8ff" points="690.88,-13 700.88,-9.5 690.88,-6 690.88,-13"/>
</a>
</g>
</g>
<!-- Node6 -->
<g id="Node000006" class="node">
<title>Node6</title>
<g id="a_Node000006"><a xlink:href="ftask__freertos_8c.html#acae8871d81e223d555652ef9c187898b" target="_top" xlink:title="Creates all tasks of the group.">
<polygon fill="white" stroke="#666666" points="473,-19 368,-19 368,0 473,0 473,-19"/>
<text text-anchor="middle" x="420.5" y="-7" font-family="Helvetica,sans-Serif" font-size="10.00">FTSK_CreateTasks</text>
</a>
</g>
</g>
<!-- Node5&#45;&gt;Node6 -->
<g id="edge5_Node000005_Node000006" class="edge">
<title>Node5&#45;&gt;Node6</title>
<g id="a_edge5_Node000005_Node000006"><a xlink:title=" ">
<path fill="none" stroke="#63b8ff" d="M498.43,-9.5C489.81,-9.5 481.27,-9.5 473.18,-9.5"/>
<polygon fill="#63b8ff" stroke="#63b8ff" points="498.57,-13 508.57,-9.5 498.57,-6 498.57,-13"/>
</a>
</g>
</g>
<!-- Node7 -->
<g id="Node000007" class="node">
<title>Node7</title>
<g id="a_Node000007"><a xlink:href="os_8c.html#a87194f95c7417a637c16c86b64f371e7" target="_top" xlink:title="Initialization the RTOS interface.">
<polygon fill="white" stroke="#666666" points="332,-19 170,-19 170,0 332,0 332,-19"/>
<text text-anchor="middle" x="251" y="-7" font-family="Helvetica,sans-Serif" font-size="10.00">OS_InitializeOperatingSystem</text>
</a>
</g>
</g>
<!-- Node6&#45;&gt;Node7 -->
<g id="edge6_Node000006_Node000007" class="edge">
<title>Node6&#45;&gt;Node7</title>
<g id="a_edge6_Node000006_Node000007"><a xlink:title=" ">
<path fill="none" stroke="#63b8ff" d="M357.83,-9.5C349.45,-9.5 340.75,-9.5 332.1,-9.5"/>
<polygon fill="#63b8ff" stroke="#63b8ff" points="357.88,-13 367.88,-9.5 357.88,-6 357.88,-13"/>
</a>
</g>
</g>
<!-- Node8 -->
<g id="Node000008" class="node">
<title>Node8</title>
<g id="a_Node000008"><a xlink:href="main_8c.html#a840291bc02cba5474a4cb46a9b9566fe" target="_top" xlink:title="Main function of foxBMS.">
<polygon fill="white" stroke="#666666" points="134,-19 93,-19 93,0 134,0 134,-19"/>
<text text-anchor="middle" x="113.5" y="-7" font-family="Helvetica,sans-Serif" font-size="10.00">main</text>
</a>
</g>
</g>
<!-- Node7&#45;&gt;Node8 -->
<g id="edge7_Node000007_Node000008" class="edge">
<title>Node7&#45;&gt;Node8</title>
<g id="a_edge7_Node000007_Node000008"><a xlink:title=" ">
<path fill="none" stroke="#63b8ff" d="M159.56,-9.5C150.1,-9.5 141.32,-9.5 134.06,-9.5"/>
<polygon fill="#63b8ff" stroke="#63b8ff" points="159.61,-13 169.61,-9.5 159.61,-6 159.61,-13"/>
</a>
</g>
</g>
<!-- Node9 -->
<g id="Node000009" class="node">
<title>Node9</title>
<g id="a_Node000009"><a xlink:href="fstartup_8c.html#a3c8534f5781f4cf53ffbeb6d35880b27" target="_top" xlink:title="Startup Routine.">
<polygon fill="white" stroke="#666666" points="57,-19 0,-19 0,0 57,0 57,-19"/>
<text text-anchor="middle" x="28.5" y="-7" font-family="Helvetica,sans-Serif" font-size="10.00">_c_int00</text>
</a>
</g>
</g>
<!-- Node8&#45;&gt;Node9 -->
<g id="edge8_Node000008_Node000009" class="edge">
<title>Node8&#45;&gt;Node9</title>
<g id="a_edge8_Node000008_Node000009"><a xlink:title=" ">
<path fill="none" stroke="#63b8ff" d="M82.76,-9.5C74.42,-9.5 65.4,-9.5 57.19,-9.5"/>
<polygon fill="#63b8ff" stroke="#63b8ff" points="82.83,-13 92.83,-9.5 82.83,-6 82.83,-13"/>
</a>
</g>
</g>
</g>
</svg>
