<?xml version="1.0" encoding="UTF-8" standalone="no"?>
<!DOCTYPE svg PUBLIC "-//W3C//DTD SVG 1.1//EN"
 "http://www.w3.org/Graphics/SVG/1.1/DTD/svg11.dtd">
<!-- Generated by graphviz version 2.43.0 (0)
 -->
<!-- Title: foxbms&#45;2/src/app/application/algorithm/state_estimation/state_estimation.h Pages: 1 -->
<!--zoomable 489 -->

<svg id="main" version="1.1" xmlns="http://www.w3.org/2000/svg" xmlns:xlink="http://www.w3.org/1999/xlink" xml:space="preserve" onload="init(evt)">
<style type="text/css"><![CDATA[
.node, .edge {opacity: 0.7;}
.node.selected, .edge.selected {opacity: 1;}
.edge:hover path { stroke: red; }
.edge:hover polygon { stroke: red; fill: red; }
]]></style>

<defs>
  <circle id="rim" cx="0" cy="0" r="7"/>
  <circle id="rim2" cx="0" cy="0" r="3.5"/>
  <g id="zoomPlus">
    <use xlink:href="#rim" fill="#404040"><set attributeName="fill" to="#808080" begin="zoomplus.mouseover" end="zoomplus.mouseout"/></use>
    <path d="M-4,0h8M0,-4v8" fill="none" stroke="white" stroke-width="1.5" pointer-events="none"/>
  </g>
  <g id="zoomMin">
    <use xlink:href="#rim" fill="#404040"><set attributeName="fill" to="#808080" begin="zoomminus.mouseover" end="zoomminus.mouseout"/></use>
    <path d="M-4,0h8" fill="none" stroke="white" stroke-width="1.5" pointer-events="none"/>
  </g>
  <g id="arrowUp" transform="translate(30 24)">
    <use xlink:href="#rim"/>
    <path pointer-events="none" fill="none" stroke="white" stroke-width="1.5" d="M0,-3.0v7 M-2.5,-0.5L0,-3.0L2.5,-0.5"/>
  </g>
  <g id="arrowRight" transform="rotate(90) translate(36 -43)">
    <use xlink:href="#rim"/>
    <path pointer-events="none" fill="none" stroke="white" stroke-width="1.5" d="M0,-3.0v7 M-2.5,-0.5L0,-3.0L2.5,-0.5"/>
  </g>
  <g id="arrowDown" transform="rotate(180) translate(-30 -48)">
    <use xlink:href="#rim"/>
    <path pointer-events="none" fill="none" stroke="white" stroke-width="1.5" d="M0,-3.0v7 M-2.5,-0.5L0,-3.0L2.5,-0.5"/>
  </g>
  <g id="arrowLeft" transform="rotate(270) translate(-36 17)">
    <use xlink:href="#rim"/>
    <path pointer-events="none" fill="none" stroke="white" stroke-width="1.5" d="M0,-3.0v7 M-2.5,-0.5L0,-3.0L2.5,-0.5"/>
  </g>
  <g id="resetDef">
    <use xlink:href="#rim2" fill="#404040"><set attributeName="fill" to="#808080" begin="reset.mouseover" end="reset.mouseout"/></use>
  </g>
</defs>
<script type="application/ecmascript">
var viewWidth = 739;
var viewHeight = 489;
var sectionId = 'dynsection-0';
</script>
<script type="application/ecmascript" xlink:href="svg.min.js"/>
<svg id="graph" class="graph">
<g id="viewport">
<title>foxbms&#45;2/src/app/application/algorithm/state_estimation/state_estimation.h</title>
<!-- Node1 -->
<g id="Node000001" class="node">
<title>Node1</title>
<g id="a_Node000001"><a xlink:title="Header for state&#45;estimation module responsible for the estimation of state&#45;of&#45;charge (SOC),...">
<polygon fill="#999999" stroke="#666666" points="712,-481 554,-481 554,-440 712,-440 712,-481"/>
<text text-anchor="start" x="562" y="-469" font-family="Helvetica,sans-Serif" font-size="10.00">foxbms&#45;2/src/app/application</text>
<text text-anchor="start" x="562" y="-458" font-family="Helvetica,sans-Serif" font-size="10.00">/algorithm/state_estimation</text>
<text text-anchor="middle" x="633" y="-447" font-family="Helvetica,sans-Serif" font-size="10.00">/state_estimation.h</text>
</a>
</g>
</g>
<!-- Node2 -->
<g id="Node000002" class="node">
<title>Node2</title>
<g id="a_Node000002"><a xlink:href="database_8h.html" target="_top" xlink:title="Database module header.">
<polygon fill="white" stroke="#666666" points="568.5,-404 497.5,-404 497.5,-385 568.5,-385 568.5,-404"/>
<text text-anchor="middle" x="533" y="-392" font-family="Helvetica,sans-Serif" font-size="10.00">database.h</text>
</a>
</g>
</g>
<!-- Node1&#45;&gt;Node2 -->
<g id="edge1_Node000001_Node000002" class="edge">
<title>Node1&#45;&gt;Node2</title>
<g id="a_edge1_Node000001_Node000002"><a xlink:title=" ">
<path fill="none" stroke="#63b8ff" d="M602.45,-439.95C587.09,-430.12 568.83,-418.43 554.89,-409.51"/>
<polygon fill="#63b8ff" stroke="#63b8ff" points="556.73,-406.53 546.42,-404.09 552.96,-412.43 556.73,-406.53"/>
</a>
</g>
</g>
<!-- Node7 -->
<g id="Node000007" class="node">
<title>Node7</title>
<g id="a_Node000007"><a xlink:title=" ">
<polygon fill="#e0e0e0" stroke="#999999" points="159,-19 97,-19 97,0 159,0 159,-19"/>
<text text-anchor="middle" x="128" y="-7" font-family="Helvetica,sans-Serif" font-size="10.00">stdbool.h</text>
</a>
</g>
</g>
<!-- Node1&#45;&gt;Node7 -->
<g id="edge33_Node000001_Node000007" class="edge">
<title>Node1&#45;&gt;Node7</title>
<g id="a_edge33_Node000001_Node000007"><a xlink:title=" ">
<path fill="none" stroke="#63b8ff" d="M553.79,-452.79C383.94,-437.34 0,-396.24 0,-340.5 0,-340.5 0,-340.5 0,-118.5 0,-69.92 54.52,-38.75 92.39,-22.96"/>
<polygon fill="#63b8ff" stroke="#63b8ff" points="94.1,-26.04 102.1,-19.09 91.51,-19.54 94.1,-26.04"/>
</a>
</g>
</g>
<!-- Node8 -->
<g id="Node000008" class="node">
<title>Node8</title>
<g id="a_Node000008"><a xlink:title=" ">
<polygon fill="#e0e0e0" stroke="#999999" points="435.5,-19 382.5,-19 382.5,0 435.5,0 435.5,-19"/>
<text text-anchor="middle" x="409" y="-7" font-family="Helvetica,sans-Serif" font-size="10.00">stdint.h</text>
</a>
</g>
</g>
<!-- Node1&#45;&gt;Node8 -->
<g id="edge34_Node000001_Node000008" class="edge">
<title>Node1&#45;&gt;Node8</title>
<g id="a_edge34_Node000001_Node000008"><a xlink:title=" ">
<path fill="none" stroke="#63b8ff" d="M664.01,-439.91C692.72,-419.1 731,-383.32 731,-340.5 731,-340.5 731,-340.5 731,-118.5 731,-58.86 529.9,-26.03 445.55,-14.89"/>
<polygon fill="#63b8ff" stroke="#63b8ff" points="445.99,-11.42 435.62,-13.61 445.09,-18.36 445.99,-11.42"/>
</a>
</g>
</g>
<!-- Node12 -->
<g id="Node000012" class="node">
<title>Node12</title>
<g id="a_Node000012"><a xlink:title=" ">
<polygon fill="#e0e0e0" stroke="#999999" points="660.5,-239 609.5,-239 609.5,-220 660.5,-220 660.5,-239"/>
<text text-anchor="middle" x="635" y="-227" font-family="Helvetica,sans-Serif" font-size="10.00">math.h</text>
</a>
</g>
</g>
<!-- Node1&#45;&gt;Node12 -->
<g id="edge32_Node000001_Node000012" class="edge">
<title>Node1&#45;&gt;Node12</title>
<g id="a_edge32_Node000001_Node000012"><a xlink:title=" ">
<path fill="none" stroke="#63b8ff" d="M633.69,-439.94C634.43,-417.86 635.57,-380.85 636,-349 636.11,-340.56 636.04,-338.44 636,-330 635.86,-301.84 635.49,-269.2 635.24,-249.2"/>
<polygon fill="#63b8ff" stroke="#63b8ff" points="638.74,-248.97 635.11,-239.02 631.74,-249.06 638.74,-248.97"/>
</a>
</g>
</g>
<!-- Node3 -->
<g id="Node000003" class="node">
<title>Node3</title>
<g id="a_Node000003"><a xlink:href="database__cfg_8h.html" target="_top" xlink:title="Database configuration header.">
<polygon fill="white" stroke="#666666" points="416.5,-294 325.5,-294 325.5,-275 416.5,-275 416.5,-294"/>
<text text-anchor="middle" x="371" y="-282" font-family="Helvetica,sans-Serif" font-size="10.00">database_cfg.h</text>
</a>
</g>
</g>
<!-- Node2&#45;&gt;Node3 -->
<g id="edge2_Node000002_Node000003" class="edge">
<title>Node2&#45;&gt;Node3</title>
<g id="a_edge2_Node000002_Node000003"><a xlink:title=" ">
<path fill="none" stroke="#63b8ff" d="M509.91,-384.91C490.2,-377.05 461.55,-364.32 439,-349 418.67,-335.19 398.49,-315.37 385.46,-301.56"/>
<polygon fill="#63b8ff" stroke="#63b8ff" points="388.02,-299.18 378.66,-294.21 382.88,-303.93 388.02,-299.18"/>
</a>
</g>
</g>
<!-- Node2&#45;&gt;Node8 -->
<g id="edge31_Node000002_Node000008" class="edge">
<title>Node2&#45;&gt;Node8</title>
<g id="a_edge31_Node000002_Node000008"><a xlink:title=" ">
<path fill="none" stroke="#63b8ff" d="M568.72,-385.16C590.48,-378.5 617.56,-367.2 636,-349 677.06,-308.46 689,-288.19 689,-230.5 689,-230.5 689,-230.5 689,-118.5 689,-66.93 521.6,-30.54 445.67,-16.69"/>
<polygon fill="#63b8ff" stroke="#63b8ff" points="446.05,-13.2 435.59,-14.88 444.82,-20.09 446.05,-13.2"/>
</a>
</g>
</g>
<!-- Node9 -->
<g id="Node000009" class="node">
<title>Node9</title>
<g id="a_Node000009"><a xlink:href="fstd__types_8h.html" target="_top" xlink:title="Definition of foxBMS standard types.">
<polygon fill="white" stroke="#666666" points="552.5,-74 475.5,-74 475.5,-55 552.5,-55 552.5,-74"/>
<text text-anchor="middle" x="514" y="-62" font-family="Helvetica,sans-Serif" font-size="10.00">fstd_types.h</text>
</a>
</g>
</g>
<!-- Node2&#45;&gt;Node9 -->
<g id="edge26_Node000002_Node000009" class="edge">
<title>Node2&#45;&gt;Node9</title>
<g id="a_edge26_Node000002_Node000009"><a xlink:title=" ">
<path fill="none" stroke="#63b8ff" d="M527.42,-384.72C522.26,-376.03 514.95,-362.17 512,-349 510.15,-340.76 511.97,-338.44 512,-330 512.35,-237.88 513.38,-127.71 513.81,-84.35"/>
<polygon fill="#63b8ff" stroke="#63b8ff" points="517.31,-84.21 513.91,-74.18 510.31,-84.14 517.31,-84.21"/>
</a>
</g>
</g>
<!-- Node13 -->
<g id="Node000013" class="node">
<title>Node13</title>
<g id="a_Node000013"><a xlink:href="database__helper_8h.html" target="_top" xlink:title="Database module header.">
<polygon fill="white" stroke="#666666" points="627,-349 521,-349 521,-330 627,-330 627,-349"/>
<text text-anchor="middle" x="574" y="-337" font-family="Helvetica,sans-Serif" font-size="10.00">database_helper.h</text>
</a>
</g>
</g>
<!-- Node2&#45;&gt;Node13 -->
<g id="edge23_Node000002_Node000013" class="edge">
<title>Node2&#45;&gt;Node13</title>
<g id="a_edge23_Node000002_Node000013"><a xlink:title=" ">
<path fill="none" stroke="#63b8ff" d="M539.77,-384.75C545.56,-377.26 554.06,-366.28 561.14,-357.13"/>
<polygon fill="#63b8ff" stroke="#63b8ff" points="564.01,-359.14 567.36,-349.09 558.47,-354.86 564.01,-359.14"/>
</a>
</g>
</g>
<!-- Node14 -->
<g id="Node000014" class="node">
<title>Node14</title>
<g id="a_Node000014"><a xlink:href="os_8h.html" target="_top" xlink:title="Declaration of the OS wrapper interface.">
<polygon fill="white" stroke="#666666" points="470.5,-129 433.5,-129 433.5,-110 470.5,-110 470.5,-129"/>
<text text-anchor="middle" x="452" y="-117" font-family="Helvetica,sans-Serif" font-size="10.00">os.h</text>
</a>
</g>
</g>
<!-- Node2&#45;&gt;Node14 -->
<g id="edge27_Node000002_Node000014" class="edge">
<title>Node2&#45;&gt;Node14</title>
<g id="a_edge27_Node000002_Node000014"><a xlink:title=" ">
<path fill="none" stroke="#63b8ff" d="M518.93,-384.79C506.94,-376.77 489.95,-363.86 479,-349 460.91,-324.45 453,-316 453,-285.5 453,-285.5 453,-285.5 453,-228.5 453,-197.19 452.57,-160.77 452.28,-139.23"/>
<polygon fill="#63b8ff" stroke="#63b8ff" points="455.78,-139.13 452.13,-129.18 448.78,-139.23 455.78,-139.13"/>
</a>
</g>
</g>
<!-- Node4 -->
<g id="Node000004" class="node">
<title>Node4</title>
<g id="a_Node000004"><a xlink:href="battery__system__cfg_8h.html" target="_top" xlink:title="Configuration of the battery system (e.g., number of battery modules, battery cells,...">
<polygon fill="white" stroke="#666666" points="300,-239 178,-239 178,-220 300,-220 300,-239"/>
<text text-anchor="middle" x="239" y="-227" font-family="Helvetica,sans-Serif" font-size="10.00">battery_system_cfg.h</text>
</a>
</g>
</g>
<!-- Node3&#45;&gt;Node4 -->
<g id="edge3_Node000003_Node000004" class="edge">
<title>Node3&#45;&gt;Node4</title>
<g id="a_edge3_Node000003_Node000004"><a xlink:title=" ">
<path fill="none" stroke="#63b8ff" d="M349.79,-274.98C328.27,-266.34 294.72,-252.87 270.17,-243.02"/>
<polygon fill="#63b8ff" stroke="#63b8ff" points="271.18,-239.65 260.59,-239.17 268.57,-246.14 271.18,-239.65"/>
</a>
</g>
</g>
<!-- Node3&#45;&gt;Node7 -->
<g id="edge21_Node000003_Node000007" class="edge">
<title>Node3&#45;&gt;Node7</title>
<g id="a_edge21_Node000003_Node000007"><a xlink:title=" ">
<path fill="none" stroke="#63b8ff" d="M325.4,-278.39C234.2,-266.89 38,-235.21 38,-175.5 38,-175.5 38,-175.5 38,-118.5 38,-76.84 78.02,-42.72 104.68,-24.6"/>
<polygon fill="#63b8ff" stroke="#63b8ff" points="106.68,-27.48 113.14,-19.09 102.85,-21.62 106.68,-27.48"/>
</a>
</g>
</g>
<!-- Node3&#45;&gt;Node8 -->
<g id="edge22_Node000003_Node000008" class="edge">
<title>Node3&#45;&gt;Node8</title>
<g id="a_edge22_Node000003_Node000008"><a xlink:title=" ">
<path fill="none" stroke="#63b8ff" d="M372.22,-274.73C377.56,-236.38 398.9,-83.03 406.39,-29.25"/>
<polygon fill="#63b8ff" stroke="#63b8ff" points="409.89,-29.49 407.8,-19.11 402.96,-28.53 409.89,-29.49"/>
</a>
</g>
</g>
<!-- Node10 -->
<g id="Node000010" class="node">
<title>Node10</title>
<g id="a_Node000010"><a xlink:href="bms-slave__cfg_8h.html" target="_top" xlink:title="Configuration of the foxBMS BMS&#45;Slave (e.g., value of balancing resistor, input capacitance....">
<polygon fill="white" stroke="#666666" points="325.5,-184 228.5,-184 228.5,-165 325.5,-165 325.5,-184"/>
<text text-anchor="middle" x="277" y="-172" font-family="Helvetica,sans-Serif" font-size="10.00">bms&#45;slave_cfg.h</text>
</a>
</g>
</g>
<!-- Node3&#45;&gt;Node10 -->
<g id="edge16_Node000003_Node000010" class="edge">
<title>Node3&#45;&gt;Node10</title>
<g id="a_edge16_Node000003_Node000010"><a xlink:title=" ">
<path fill="none" stroke="#63b8ff" d="M363.31,-274.66C347.53,-256.54 311.3,-214.91 291.16,-191.77"/>
<polygon fill="#63b8ff" stroke="#63b8ff" points="293.74,-189.4 284.54,-184.16 288.46,-194 293.74,-189.4"/>
</a>
</g>
</g>
<!-- Node11 -->
<g id="Node000011" class="node">
<title>Node11</title>
<g id="a_Node000011"><a xlink:href="mcu_8h.html" target="_top" xlink:title="Headers for the driver for the MCU module.">
<polygon fill="white" stroke="#666666" points="151.5,-74 104.5,-74 104.5,-55 151.5,-55 151.5,-74"/>
<text text-anchor="middle" x="128" y="-62" font-family="Helvetica,sans-Serif" font-size="10.00">mcu.h</text>
</a>
</g>
</g>
<!-- Node3&#45;&gt;Node11 -->
<g id="edge17_Node000003_Node000011" class="edge">
<title>Node3&#45;&gt;Node11</title>
<g id="a_edge17_Node000003_Node000011"><a xlink:title=" ">
<path fill="none" stroke="#63b8ff" d="M325.29,-279.06C272.69,-273.01 190.75,-260.42 169,-239 126.6,-197.24 124.76,-120.34 126.47,-84.64"/>
<polygon fill="#63b8ff" stroke="#63b8ff" points="130,-84.43 127.14,-74.22 123.01,-83.98 130,-84.43"/>
</a>
</g>
</g>
<!-- Node3&#45;&gt;Node12 -->
<g id="edge20_Node000003_Node000012" class="edge">
<title>Node3&#45;&gt;Node12</title>
<g id="a_edge20_Node000003_Node000012"><a xlink:title=" ">
<path fill="none" stroke="#63b8ff" d="M413.42,-274.98C465.02,-264.63 551.2,-247.32 599.47,-237.63"/>
<polygon fill="#63b8ff" stroke="#63b8ff" points="600.34,-241.03 609.45,-235.63 598.96,-234.17 600.34,-241.03"/>
</a>
</g>
</g>
<!-- Node5 -->
<g id="Node000005" class="node">
<title>Node5</title>
<g id="a_Node000005"><a xlink:href="general_8h.html" target="_top" xlink:title="General macros and definitions for the whole platform.">
<polygon fill="white" stroke="#666666" points="296,-129 234,-129 234,-110 296,-110 296,-129"/>
<text text-anchor="middle" x="265" y="-117" font-family="Helvetica,sans-Serif" font-size="10.00">general.h</text>
</a>
</g>
</g>
<!-- Node4&#45;&gt;Node5 -->
<g id="edge4_Node000004_Node000005" class="edge">
<title>Node4&#45;&gt;Node5</title>
<g id="a_edge4_Node000004_Node000005"><a xlink:title=" ">
<path fill="none" stroke="#63b8ff" d="M232.32,-219.68C223.78,-207.24 210.97,-183.94 219,-165 223.98,-153.25 233.75,-143.09 243.01,-135.45"/>
<polygon fill="#63b8ff" stroke="#63b8ff" points="245.4,-138.03 251.22,-129.18 241.15,-132.47 245.4,-138.03"/>
</a>
</g>
</g>
<!-- Node6 -->
<g id="Node000006" class="node">
<title>Node6</title>
<g id="a_Node000006"><a xlink:href="fassert_8h.html" target="_top" xlink:title="Assert macro implementation.">
<polygon fill="white" stroke="#666666" points="228.5,-74 169.5,-74 169.5,-55 228.5,-55 228.5,-74"/>
<text text-anchor="middle" x="199" y="-62" font-family="Helvetica,sans-Serif" font-size="10.00">fassert.h</text>
</a>
</g>
</g>
<!-- Node4&#45;&gt;Node6 -->
<g id="edge13_Node000004_Node000006" class="edge">
<title>Node4&#45;&gt;Node6</title>
<g id="a_edge13_Node000004_Node000006"><a xlink:title=" ">
<path fill="none" stroke="#63b8ff" d="M232.46,-219.82C226.34,-211.21 217.49,-197.41 213,-184 201.64,-150.07 199.23,-107.98 198.87,-84.19"/>
<polygon fill="#63b8ff" stroke="#63b8ff" points="202.37,-84.08 198.83,-74.09 195.37,-84.11 202.37,-84.08"/>
</a>
</g>
</g>
<!-- Node4&#45;&gt;Node7 -->
<g id="edge14_Node000004_Node000007" class="edge">
<title>Node4&#45;&gt;Node7</title>
<g id="a_edge14_Node000004_Node000007"><a xlink:title=" ">
<path fill="none" stroke="#63b8ff" d="M226.1,-219.98C196.11,-199.27 122.14,-142.92 95,-74 88.43,-57.31 99.76,-39.25 110.9,-26.67"/>
<polygon fill="#63b8ff" stroke="#63b8ff" points="113.6,-28.91 118,-19.27 108.55,-24.06 113.6,-28.91"/>
</a>
</g>
</g>
<!-- Node4&#45;&gt;Node8 -->
<g id="edge15_Node000004_Node000008" class="edge">
<title>Node4&#45;&gt;Node8</title>
<g id="a_edge15_Node000004_Node000008"><a xlink:title=" ">
<path fill="none" stroke="#63b8ff" d="M271.13,-219.9C291.4,-213.06 316.88,-201.65 334,-184 356.77,-160.54 389.53,-68.48 402.94,-28.83"/>
<polygon fill="#63b8ff" stroke="#63b8ff" points="406.33,-29.73 406.18,-19.14 399.69,-27.51 406.33,-29.73"/>
</a>
</g>
</g>
<!-- Node4&#45;&gt;Node10 -->
<g id="edge11_Node000004_Node000010" class="edge">
<title>Node4&#45;&gt;Node10</title>
<g id="a_edge11_Node000004_Node000010"><a xlink:title=" ">
<path fill="none" stroke="#63b8ff" d="M245.27,-219.75C250.59,-212.34 258.36,-201.5 264.88,-192.41"/>
<polygon fill="#63b8ff" stroke="#63b8ff" points="267.86,-194.26 270.84,-184.09 262.17,-190.18 267.86,-194.26"/>
</a>
</g>
</g>
<!-- Node5&#45;&gt;Node6 -->
<g id="edge5_Node000005_Node000006" class="edge">
<title>Node5&#45;&gt;Node6</title>
<g id="a_edge5_Node000005_Node000006"><a xlink:title=" ">
<path fill="none" stroke="#63b8ff" d="M254.4,-109.98C244.54,-102.07 229.65,-90.11 217.78,-80.58"/>
<polygon fill="#63b8ff" stroke="#63b8ff" points="219.79,-77.7 209.8,-74.17 215.4,-83.16 219.79,-77.7"/>
</a>
</g>
</g>
<!-- Node5&#45;&gt;Node7 -->
<g id="edge9_Node000005_Node000007" class="edge">
<title>Node5&#45;&gt;Node7</title>
<g id="a_edge9_Node000005_Node000007"><a xlink:title=" ">
<path fill="none" stroke="#63b8ff" d="M263.37,-109.92C260.4,-96.5 252.89,-70.46 237,-55 218.45,-36.96 191.59,-25.88 169.17,-19.28"/>
<polygon fill="#63b8ff" stroke="#63b8ff" points="169.8,-15.83 159.23,-16.56 167.95,-22.58 169.8,-15.83"/>
</a>
</g>
</g>
<!-- Node5&#45;&gt;Node8 -->
<g id="edge10_Node000005_Node000008" class="edge">
<title>Node5&#45;&gt;Node8</title>
<g id="a_edge10_Node000005_Node000008"><a xlink:title=" ">
<path fill="none" stroke="#63b8ff" d="M270.72,-109.71C279.7,-96.46 298.24,-71.2 319,-55 336.16,-41.61 357.99,-30.69 375.86,-23.03"/>
<polygon fill="#63b8ff" stroke="#63b8ff" points="377.42,-26.17 385.32,-19.1 374.74,-19.7 377.42,-26.17"/>
</a>
</g>
</g>
<!-- Node5&#45;&gt;Node9 -->
<g id="edge8_Node000005_Node000009" class="edge">
<title>Node5&#45;&gt;Node9</title>
<g id="a_edge8_Node000005_Node000009"><a xlink:title=" ">
<path fill="none" stroke="#63b8ff" d="M296.03,-111.89C338.48,-102.86 415.08,-86.56 465.23,-75.88"/>
<polygon fill="#63b8ff" stroke="#63b8ff" points="466.15,-79.26 475.2,-73.76 464.69,-72.42 466.15,-79.26"/>
</a>
</g>
</g>
<!-- Node6&#45;&gt;Node7 -->
<g id="edge6_Node000006_Node000007" class="edge">
<title>Node6&#45;&gt;Node7</title>
<g id="a_edge6_Node000006_Node000007"><a xlink:title=" ">
<path fill="none" stroke="#63b8ff" d="M187.59,-54.98C176.89,-47 160.66,-34.88 147.84,-25.31"/>
<polygon fill="#63b8ff" stroke="#63b8ff" points="149.72,-22.35 139.61,-19.17 145.53,-27.96 149.72,-22.35"/>
</a>
</g>
</g>
<!-- Node6&#45;&gt;Node8 -->
<g id="edge7_Node000006_Node000008" class="edge">
<title>Node6&#45;&gt;Node8</title>
<g id="a_edge7_Node000006_Node000008"><a xlink:title=" ">
<path fill="none" stroke="#63b8ff" d="M228.64,-56.02C266.48,-46.47 331.9,-29.96 372.69,-19.66"/>
<polygon fill="#63b8ff" stroke="#63b8ff" points="373.65,-23.03 382.49,-17.19 371.94,-16.24 373.65,-23.03"/>
</a>
</g>
</g>
<!-- Node10&#45;&gt;Node5 -->
<g id="edge12_Node000010_Node000005" class="edge">
<title>Node10&#45;&gt;Node5</title>
<g id="a_edge12_Node000010_Node000005"><a xlink:title=" ">
<path fill="none" stroke="#63b8ff" d="M275.02,-164.75C273.43,-157.72 271.14,-147.62 269.15,-138.84"/>
<polygon fill="#63b8ff" stroke="#63b8ff" points="272.57,-138.07 266.94,-129.09 265.74,-139.62 272.57,-138.07"/>
</a>
</g>
</g>
<!-- Node11&#45;&gt;Node7 -->
<g id="edge18_Node000011_Node000007" class="edge">
<title>Node11&#45;&gt;Node7</title>
<g id="a_edge18_Node000011_Node000007"><a xlink:title=" ">
<path fill="none" stroke="#63b8ff" d="M128,-54.75C128,-47.8 128,-37.85 128,-29.13"/>
<polygon fill="#63b8ff" stroke="#63b8ff" points="131.5,-29.09 128,-19.09 124.5,-29.09 131.5,-29.09"/>
</a>
</g>
</g>
<!-- Node11&#45;&gt;Node8 -->
<g id="edge19_Node000011_Node000008" class="edge">
<title>Node11&#45;&gt;Node8</title>
<g id="a_edge19_Node000011_Node000008"><a xlink:title=" ">
<path fill="none" stroke="#63b8ff" d="M151.71,-56.97C154.5,-56.27 157.31,-55.6 160,-55 234.89,-38.39 323.51,-23.73 372.26,-16.09"/>
<polygon fill="#63b8ff" stroke="#63b8ff" points="372.98,-19.52 382.32,-14.52 371.9,-12.6 372.98,-19.52"/>
</a>
</g>
</g>
<!-- Node13&#45;&gt;Node3 -->
<g id="edge24_Node000013_Node000003" class="edge">
<title>Node13&#45;&gt;Node3</title>
<g id="a_edge24_Node000013_Node000003"><a xlink:title=" ">
<path fill="none" stroke="#63b8ff" d="M541.38,-329.98C506.71,-320.93 451.74,-306.58 413.65,-296.64"/>
<polygon fill="#63b8ff" stroke="#63b8ff" points="414.43,-293.22 403.87,-294.08 412.66,-299.99 414.43,-293.22"/>
</a>
</g>
</g>
<!-- Node13&#45;&gt;Node8 -->
<g id="edge25_Node000013_Node000008" class="edge">
<title>Node13&#45;&gt;Node8</title>
<g id="a_edge25_Node000013_Node000008"><a xlink:title=" ">
<path fill="none" stroke="#63b8ff" d="M574.94,-329.83C576.85,-311.52 581,-267.52 581,-230.5 581,-230.5 581,-230.5 581,-118.5 581,-88.91 582.13,-75.71 561,-55 530.12,-24.74 479.83,-14.86 445.63,-11.75"/>
<polygon fill="#63b8ff" stroke="#63b8ff" points="445.8,-8.25 435.57,-10.98 445.27,-15.23 445.8,-8.25"/>
</a>
</g>
</g>
<!-- Node14&#45;&gt;Node7 -->
<g id="edge29_Node000014_Node000007" class="edge">
<title>Node14&#45;&gt;Node7</title>
<g id="a_edge29_Node000014_Node000007"><a xlink:title=" ">
<path fill="none" stroke="#63b8ff" d="M433.18,-112.23C380.66,-94.72 231.87,-45.12 163.35,-22.28"/>
<polygon fill="#63b8ff" stroke="#63b8ff" points="164.43,-18.95 153.84,-19.11 162.22,-25.6 164.43,-18.95"/>
</a>
</g>
</g>
<!-- Node14&#45;&gt;Node8 -->
<g id="edge30_Node000014_Node000008" class="edge">
<title>Node14&#45;&gt;Node8</title>
<g id="a_edge30_Node000014_Node000008"><a xlink:title=" ">
<path fill="none" stroke="#63b8ff" d="M448.48,-109.66C441.45,-92.01 425.56,-52.09 416.22,-28.64"/>
<polygon fill="#63b8ff" stroke="#63b8ff" points="419.4,-27.15 412.45,-19.16 412.89,-29.74 419.4,-27.15"/>
</a>
</g>
</g>
<!-- Node14&#45;&gt;Node9 -->
<g id="edge28_Node000014_Node000009" class="edge">
<title>Node14&#45;&gt;Node9</title>
<g id="a_edge28_Node000014_Node000009"><a xlink:title=" ">
<path fill="none" stroke="#63b8ff" d="M461.96,-109.98C471.13,-102.15 484.94,-90.34 496.03,-80.86"/>
<polygon fill="#63b8ff" stroke="#63b8ff" points="498.53,-83.33 503.86,-74.17 493.98,-78.01 498.53,-83.33"/>
</a>
</g>
</g>
</g>
</svg>

<g id="navigator" transform="translate(0 0)" fill="#404254">
  <rect fill="#f2f5e9" fill-opacity="0.5" stroke="#606060" stroke-width=".5" x="0" y="0" width="60" height="60"/>
  <use id="zoomplus" xlink:href="#zoomPlus" x="17" y="9" onmousedown="handleZoom(evt,'in')"/>
  <use id="zoomminus" xlink:href="#zoomMin" x="42" y="9" onmousedown="handleZoom(evt,'out')"/>
  <use id="reset" xlink:href="#resetDef" x="30" y="36" onmousedown="handleReset()"/>
   <use id="arrowup" xlink:href="#arrowUp" x="0" y="0" onmousedown="handlePan(0,-1)"/>
  <use id="arrowright" xlink:href="#arrowRight" x="0" y="0" onmousedown="handlePan(1,0)"/>
  <use id="arrowdown" xlink:href="#arrowDown" x="0" y="0" onmousedown="handlePan(0,1)"/>
  <use id="arrowleft" xlink:href="#arrowLeft" x="0" y="0" onmousedown="handlePan(-1,0)"/>
</g>
<svg viewBox="0 0 15 15" width="100%" height="30px" preserveAspectRatio="xMaxYMin meet">
 <g id="arrow_out" transform="scale(0.3 0.3)">
  <a xlink:href="state__estimation_8h__incl_org.svg" target="_base">
   <rect id="button" ry="5" rx="5" y="6" x="6" height="38" width="38"
        fill="#f2f5e9" fill-opacity="0.5" stroke="#606060" stroke-width="1.0"/>
   <path id="arrow"
     d="M 11.500037,31.436501 C 11.940474,20.09759 22.043105,11.32322 32.158766,21.979434 L 37.068811,17.246167 C 37.068811,17.246167 37.088388,32 37.088388,32 L 22.160133,31.978069 C 22.160133,31.978069 26.997745,27.140456 26.997745,27.140456 C 18.528582,18.264221 13.291696,25.230495 11.500037,31.436501 z"
     style="fill:#404040;"/>
  </a>
 </g>
</svg>

<style type='text/css'>
<![CDATA[
[data-mouse-over-selected='false'] { opacity: 0.7; }
[data-mouse-over-selected='true']  { opacity: 1.0; }
]]>
</style>
<script type="application/ecmascript"><![CDATA[
document.addEventListener('DOMContentLoaded', (event) => {
  highlightEdges();
  highlightAdjacentNodes();
});
]]></script>
</svg>
